<svg width="79" height="79" viewBox="0 0 79 79" fill="none" xmlns="http://www.w3.org/2000/svg">
<g id="SVGRepo_iconCarrier">
<path id="Vector" d="M28.45 7.37H47.78C48.48 7.37 49.04 7.92 49.04 8.6V34.53C49.0347 34.8598 48.8993 35.1741 48.6633 35.4045C48.4273 35.6349 48.1098 35.7627 47.78 35.76H31.22C26.345 35.76 22.39 39.61 22.39 44.36V50.17C22.3808 50.498 22.243 50.8093 22.0064 51.0366C21.7697 51.2639 21.4531 51.3891 21.125 51.385H8.835C8.50433 51.389 8.18554 51.2618 7.94844 51.0313C7.71135 50.8008 7.57527 50.4857 7.57 50.155V30.385C7.57527 30.0552 7.71066 29.7409 7.94667 29.5105C8.18268 29.2801 8.50019 29.1523 8.83 29.155H39.4C41.49 29.155 43.185 27.505 43.185 25.47C43.1791 24.9791 43.0765 24.4941 42.8831 24.0429C42.6896 23.5917 42.4091 23.183 42.0575 22.8403C41.706 22.4976 41.2903 22.2275 40.8343 22.0456C40.3783 21.8636 39.8909 21.7734 39.4 21.78H27.185V8.6C27.1903 8.26935 27.3264 7.95425 27.5634 7.72371C27.8005 7.49318 28.1193 7.36599 28.45 7.37ZM56.61 20.33V8.6C56.61 3.85 52.66 0 47.78 0H28.45C23.57 0 19.615 3.85 19.615 8.6V21.78H8.835C3.95 21.78 0 25.63 0 30.38V50.155C0 54.905 3.95 58.755 8.83 58.755H21.13C21.555 58.755 21.98 58.725 22.39 58.67V70.4C22.39 75.15 26.34 79 31.22 79H50.55C55.43 79 59.385 75.15 59.385 70.4V57.22H70.165C75.045 57.22 79 53.37 79 48.62V28.84C79 24.09 75.05 20.24 70.165 20.24H57.875C57.445 20.24 57.025 20.27 56.61 20.33ZM29.96 50.2V44.47C29.9653 44.1402 30.1007 43.8259 30.3367 43.5955C30.5727 43.3651 30.8902 43.2373 31.22 43.24H47.78C52.66 43.24 56.61 39.39 56.61 34.64V28.83C56.6192 28.502 56.757 28.1907 56.9936 27.9634C57.2303 27.7361 57.5469 27.6109 57.875 27.615H70.165C70.865 27.615 71.43 28.165 71.43 28.845V48.615C71.4247 48.9448 71.2893 49.2591 71.0533 49.4895C70.8173 49.7199 70.4998 49.8477 70.17 49.845H39.6C39.1095 49.8384 38.6225 49.9285 38.1668 50.1101C37.7111 50.2917 37.2957 50.5613 36.9442 50.9035C36.5927 51.2457 36.3121 51.6538 36.1184 52.1044C35.9246 52.5551 35.8215 53.0395 35.815 53.53C35.815 55.57 37.51 57.22 39.6 57.22H51.81V70.4C51.8047 70.7307 51.6687 71.0458 51.4316 71.2763C51.1945 71.5068 50.8757 71.634 50.545 71.63H31.22C30.8902 71.6327 30.5727 71.5049 30.3367 71.2745C30.1007 71.0441 29.9653 70.7298 29.96 70.4V50.2Z" fill="#0F0063"/>
</g>
</svg>
