<svg width="80" height="80" viewBox="0 0 80 80" fill="none" xmlns="http://www.w3.org/2000/svg">
<g id="SVGRepo_iconCarrier">
<g id="Layer 2">
<g id="Q3 icons">
<g id="Group">
<path id="Vector" d="M70.5003 19.6666L42.8337 3.99996C41.9471 3.58372 40.9797 3.36792 40.0003 3.36792C39.0209 3.36792 38.0535 3.58372 37.167 3.99996L9.50033 19.6666C8.64968 20.1576 7.94126 20.8613 7.44455 21.7086C6.94784 22.556 6.67989 23.5179 6.66699 24.5V55.5C6.67989 56.4821 6.94784 57.4439 7.44455 58.2913C7.94126 59.1386 8.64968 59.8423 9.50033 60.3333L16.8337 64.5C18.7494 65.632 20.9422 66.209 23.167 66.1666C28.3337 66.1666 31.3337 63 31.3337 57.6666V27.1666C31.3337 26.9456 31.2459 26.7337 31.0896 26.5774C30.9333 26.4211 30.7213 26.3333 30.5003 26.3333H27.0003C26.7793 26.3333 26.5674 26.4211 26.4111 26.5774C26.2548 26.7337 26.167 26.9456 26.167 27.1666V57.6666C26.167 60.1666 23.667 62.5 19.667 60.5L12.0003 56.1666C11.8968 56.089 11.8128 55.9883 11.755 55.8726C11.6971 55.7569 11.667 55.6293 11.667 55.5V24.5C11.6785 24.192 11.7963 23.8975 12.0003 23.6666L39.5003 8.16663H40.5003L68.0003 23.6666C68.2044 23.8975 68.3222 24.192 68.3337 24.5V55.5C68.3337 55.6293 68.3035 55.7569 68.2457 55.8726C68.1878 55.9883 68.1038 56.089 68.0003 56.1666L40.5003 71.6666C40.3483 71.7544 40.1759 71.8006 40.0003 71.8006C39.8248 71.8006 39.6523 71.7544 39.5003 71.6666L32.5003 67.6666C32.4087 67.5846 32.29 67.5393 32.167 67.5393C32.044 67.5393 31.9253 67.5846 31.8337 67.6666L27.667 69.5C27.167 69.6666 26.5003 69.8333 27.8337 70.6666L37.167 75.8333C38.0088 76.3854 38.9936 76.6795 40.0003 76.6795C41.007 76.6795 41.9918 76.3854 42.8337 75.8333L70.5003 60.3333C71.351 59.8423 72.0594 59.1386 72.5561 58.2913C73.0528 57.4439 73.3208 56.4821 73.3337 55.5V24.5C73.3208 23.5179 73.0528 22.556 72.5561 21.7086C72.0594 20.8613 71.351 20.1576 70.5003 19.6666Z" fill="#0F0063"/>
<path id="Vector_2" d="M48.5 50.5C41.1667 50.5 39.6667 48.8333 39 45.3333C39 45.1565 38.9298 44.987 38.8047 44.8619C38.6797 44.7369 38.5101 44.6667 38.3333 44.6667H34.6667C34.4899 44.6667 34.3203 44.7369 34.1953 44.8619C34.0702 44.987 34 45.1565 34 45.3333C34 49.8333 36.5 55.3333 48.5 55.3333C57.1667 55.3333 62.1667 52 62.1667 46.1667C62.1667 40.3333 58.1667 38.6667 49.6667 37.6667C41.1667 36.6667 40.3333 36 40.3333 34C40.3333 32 41 30.3333 47.3333 30.3333C53.6667 30.3333 55.1667 31.5 56 35.1667C56.039 35.3577 56.1437 35.5291 56.296 35.6509C56.4482 35.7727 56.6384 35.8373 56.8333 35.8333H60.3333L61 35.5C61.0603 35.4324 61.1062 35.3531 61.1348 35.2672C61.1635 35.1812 61.1743 35.0903 61.1667 35C60.6667 28.5 56.1667 25.5 47.3333 25.5C38.5 25.5 34.8333 28.8333 34.8333 34.1667C34.8333 39.5 39.5 41.6667 47 42.5C54.5 43.3333 56.8333 44.5 56.8333 46.3333C56.8333 48.1667 54.3333 50.5 48.5 50.5Z" fill="#0F0063"/>
</g>
</g>
</g>
</g>
</svg>
