<svg width="80" height="67" viewBox="0 0 80 67" fill="none" xmlns="http://www.w3.org/2000/svg">
<g id="SVGRepo_iconCarrier">
<path id="Vector" d="M78.1359 60.4831H76.0291V46.3471C76.0291 45.3174 75.1943 44.483 74.1649 44.483H60.986C60.8499 44.3305 60.693 44.1933 60.5043 44.0886L41.9638 33.8091V21.8586H57.3212C58.3505 21.8586 59.1853 21.0242 59.1853 19.9945V17.8642C59.1853 16.8345 58.3505 16.0001 57.3212 16.0001H55.2147V1.86412C55.2147 0.834378 54.38 0 53.3506 0H26.8489C25.8195 0 24.9847 0.834378 24.9847 1.86412V16.0001H22.8783C21.8489 16.0001 21.0142 16.8345 21.0142 17.8642V19.9945C21.0142 21.0242 21.8489 21.8586 22.8783 21.8586H38.2356V33.8095L19.6951 44.0889C19.5065 44.1937 19.3495 44.3309 19.2134 44.4834H5.83468C4.80532 44.4834 3.97057 45.3178 3.97057 46.3475V60.4835H1.86412C0.834751 60.4835 0 61.3178 0 62.3476V64.4783C0 65.508 0.834751 66.3424 1.86412 66.3424H36.307C37.3364 66.3424 38.1711 65.508 38.1711 64.4783V62.3476C38.1711 61.3178 37.3364 60.4835 36.307 60.4835H34.2006V46.3475C34.2006 45.3178 33.3658 44.4834 32.3364 44.4834H26.6729L40.0997 37.0392L53.5266 44.4834H47.6636C46.6342 44.4834 45.7994 45.3178 45.7994 46.3475V60.4835H43.693C42.6636 60.4835 41.8289 61.3178 41.8289 62.3476V64.4783C41.8289 65.508 42.6636 66.3424 43.693 66.3424H78.1359C79.1652 66.3424 80 65.508 80 64.4783V62.3476C80 61.3175 79.1652 60.4831 78.1359 60.4831ZM28.713 3.72823H51.4861V15.6623H28.713V3.72823ZM30.4723 60.4831H7.6988V48.2112H30.4723V60.4831ZM49.5277 48.2112H72.3008V60.1677H49.5277V48.2112Z" fill="#0F0063"/>
</g>
</svg>
