<svg width="80" height="80" viewBox="0 0 80 80" fill="none" xmlns="http://www.w3.org/2000/svg">
<g id="SVGRepo_iconCarrier">
<path id="Vector" d="M40.0003 33.7C41.2303 33.7001 42.4328 34.064 43.4564 34.7461C44.4799 35.4281 45.2788 36.3977 45.7525 37.5328C46.2262 38.6679 46.3535 39.9178 46.1183 41.1251C45.8832 42.3324 45.2961 43.4431 44.431 44.3175C43.5659 45.1918 42.4615 45.7907 41.2567 46.0387C40.052 46.2867 38.8009 46.1727 37.6608 45.7111C36.5207 45.2495 35.5426 44.461 34.8498 43.4447C34.1569 42.4285 33.7801 41.2299 33.767 40C33.7626 39.1771 33.9204 38.3613 34.2312 37.5993C34.5421 36.8373 35 36.144 35.5789 35.559C36.1577 34.974 36.8461 34.5087 37.6047 34.1898C38.3633 33.8708 39.1774 33.7044 40.0003 33.7ZM24.567 66.6667C26.667 67.9334 31.2337 66 36.567 61C34.7844 58.9743 33.1045 56.8606 31.5337 54.6667C28.8451 54.3656 26.1746 53.9205 23.5337 53.3333C21.8337 60.4667 22.467 65.3667 24.567 66.6667ZM26.9337 47.5333L25.967 45.8333C25.5902 46.7696 25.2674 47.7267 25.0003 48.7C25.9003 48.9 26.9003 49.0667 27.9337 49.2334L26.9337 47.5333ZM48.7337 45L51.4337 40L48.7337 35C47.7337 33.2333 46.667 31.6667 45.7003 30.1C43.9003 30 42.0003 30 40.0003 30C38.0003 30 36.1003 30 34.3003 30C33.3337 31.5667 32.267 33.1333 31.267 34.9L28.567 40L31.267 45C32.267 46.7667 33.3337 48.3334 34.3003 49.9C36.1003 49.9 38.0003 49.9 40.0003 49.9C42.0003 49.9 43.9003 49.9 45.7003 49.9C46.667 48.3334 47.7337 46.7667 48.7337 45ZM40.0003 22.6C39.367 23.3333 38.7003 24.1 38.0337 25H41.967C41.3003 24.1 40.6337 23.3333 40.0003 22.6ZM40.0003 57.4C40.6337 56.6667 41.3003 55.9 41.967 55H38.0337C38.7003 55.9 39.367 56.6667 40.0003 57.4ZM55.4003 13.3333C53.3337 12.0667 48.7337 14 43.4337 19C45.2162 21.0257 46.8961 23.1394 48.467 25.3333C51.1531 25.5904 53.8236 25.991 56.467 26.5333C58.167 19.4 57.5337 14.5 55.4003 13.2M53.067 32.3333L54.0337 34.0333C54.4105 33.0971 54.7332 32.14 55.0003 31.1667C54.1003 30.9667 53.1003 30.8 52.067 30.6333L53.067 32.3333ZM57.9003 9.00001C62.8003 11.8 63.3337 19.1667 61.2337 27.7667C69.7003 30.2667 75.8003 34.4333 75.8003 40.0333C75.8003 45.6333 69.7003 49.8 61.2337 52.3C63.3003 60.9 62.767 68.2667 57.9003 71.0667C53.0337 73.8667 46.4003 70.6667 40.0003 64.5667C33.6003 70.6667 26.967 73.8667 22.067 71.0667C17.167 68.2667 16.667 61.0667 18.7337 52.3C10.267 49.8 4.16699 45.6333 4.16699 40.0333C4.16699 34.4333 10.267 30.2333 18.7337 27.7333C16.667 19.1333 17.2003 11.7667 22.067 8.96668C26.9337 6.16668 33.6003 9.36668 40.0003 15.4667C46.4003 9.36668 53.0337 6.16668 57.9003 8.96668M56.9337 40C58.0913 42.4538 59.1151 44.9686 60.0003 47.5333C67.0003 45.4333 70.9337 42.4333 70.9337 40C70.9337 37.5667 66.9003 34.5667 60.0003 32.4667C59.1151 35.0314 58.0913 37.5462 56.9337 40ZM23.067 40C21.9093 37.5462 20.8856 35.0314 20.0003 32.4667C13.0003 34.5667 9.06699 37.5667 9.06699 40C9.06699 42.4333 13.1003 45.4333 20.0003 47.5333C20.8856 44.9686 21.9093 42.4538 23.067 40ZM53.067 47.5333L52.067 49.2334C53.1003 49.2334 54.1003 48.9 55.0003 48.7C54.7332 47.7267 54.4105 46.7696 54.0337 45.8333L53.067 47.5333ZM43.3337 61C48.6337 66 53.3337 67.9334 55.3003 66.6667C57.267 65.4 58.067 60.6 56.367 53.3333C53.7236 53.8757 51.0531 54.2763 48.367 54.5334C46.7998 56.7727 45.1198 58.9311 43.3337 61ZM26.9337 32.4667L27.9337 30.7667C26.9003 30.7667 25.9003 31.1 25.0003 31.3C25.2674 32.2733 25.5902 33.2304 25.967 34.1667L26.9337 32.4667ZM36.667 19C31.267 14 26.667 12.0667 24.567 13.3333C22.467 14.6 21.8337 19.4 23.5337 26.6667C26.177 26.1243 28.8475 25.7237 31.5337 25.4667C33.1334 23.225 34.8467 21.0666 36.667 19Z" fill="#0F0063"/>
</g>
</svg>
