<svg width="81" height="80" viewBox="0 0 81 80" fill="none" xmlns="http://www.w3.org/2000/svg">
<g id="SVGRepo_iconCarrier">
<g id="Page-1">
<g id="Dribbble-Light-Preview">
<g id="icons">
<path id="github-[#142]" fill-rule="evenodd" clip-rule="evenodd" d="M40.5 0C62.592 0 80.5 18.3597 80.5 41.0117C80.5 59.1277 69.052 74.4958 53.168 79.9238C51.14 80.3278 50.42 79.0471 50.42 77.9551C50.42 76.6031 50.468 72.1872 50.468 66.6992C50.468 62.8752 49.188 60.3794 47.752 59.1074C56.66 58.0914 66.02 54.6231 66.02 38.8711C66.02 34.3911 64.468 30.7353 61.9 27.8633C62.316 26.8273 63.688 22.6558 61.508 17.0078C61.508 17.0078 58.156 15.9089 50.52 21.2129C47.324 20.3049 43.9 19.848 40.5 19.832C37.1 19.848 33.68 20.3049 30.488 21.2129C22.844 15.9089 19.484 17.0078 19.484 17.0078C17.312 22.6558 18.684 26.8273 19.096 27.8633C16.54 30.7353 14.976 34.3911 14.976 38.8711C14.976 54.5831 24.316 58.1046 33.2 59.1406C32.056 60.1646 31.02 61.971 30.66 64.623C28.38 65.671 22.588 67.4848 19.02 61.2168C19.02 61.2168 16.904 57.2763 12.888 56.9883C12.888 56.9883 8.988 56.9365 12.616 59.4805C12.616 59.4805 15.236 60.7405 17.056 65.4805C17.056 65.4805 19.404 72.8003 30.532 70.3203C30.552 73.7483 30.588 76.9791 30.588 77.9551C30.588 79.0391 29.852 80.3077 27.856 79.9277C11.96 74.5077 0.5 59.1317 0.5 41.0117C0.5 18.3597 18.412 0 40.5 0Z" fill="#0F0063"/>
</g>
</g>
</g>
</g>
</svg>
