<svg width="73" height="80" viewBox="0 0 73 80" fill="none" xmlns="http://www.w3.org/2000/svg">
<g id="SVGRepo_iconCarrier">
<path id="Vector" fill-rule="evenodd" clip-rule="evenodd" d="M64.9238 0H7.32086C3.34565 0 0.115234 3.22156 0.115234 7.20562V72.801C0.115234 76.7784 3.34565 80 7.32086 80H64.9238C68.9001 80 72.1205 76.7784 72.1205 72.801V7.20562C72.1205 3.22156 68.9001 0 64.9238 0ZM68.1199 72.801C68.1199 74.5673 66.6889 75.9971 64.9238 75.9971H7.32086C5.5568 75.9971 4.1159 74.5673 4.1159 72.801V7.20562C4.1159 5.43271 5.5568 4.00066 7.32086 4.00066H64.9238C66.6889 4.00066 68.1199 5.43271 68.1199 7.20562V72.801ZM18.1165 68.0045L27.1226 60.001L18.1165 51.9997V68.0045ZM50.641 35.5743C49.0219 33.9463 46.066 32.0019 41.1224 32.0019C35.6986 32.0019 30.112 33.4151 26.1191 34.7088V12.0041H18.1167V46.6953L23.7718 44.1334C23.8659 44.0913 32.9828 40.0043 41.1224 40.0043C45.1829 40.0043 46.0826 42.2398 46.1257 44.1079V68.0045H54.1193V44.005C54.1282 43.4915 54.0773 39.0526 50.641 35.5743ZM40.1195 25.0013H48.122C51.7375 20.9055 53.5802 16.5452 54.1202 12.0033H46.1255C45.2346 16.5363 43.2636 20.8712 40.1195 25.0013Z" fill="#0F0063"/>
</g>
</svg>
