<svg width="72" height="80" viewBox="0 0 72 80" fill="none" xmlns="http://www.w3.org/2000/svg">
<g id="SVGRepo_iconCarrier">
<g id="c133de6af664cd4f011a55de6b001b19">
<path id="Vector" d="M71.5874 0L64.9327 72.0803L36.1009 79.8434L7.26852 72.0803L0.615234 0H71.5874ZM58.1779 14.6564H36.0749H13.5804L14.6562 23.3608H36.0749H37.278L36.0749 23.8616L15.439 32.4562L16.1234 40.9645L36.0749 41.0292L46.7684 41.0631L46.0838 52.4078L36.0748 55.2258V55.2169L35.9927 55.2397L26.3265 52.7995L25.7399 45.7573H25.7079H16.742H16.7104L17.884 59.3522L36.0751 64.7317V64.722L36.1079 64.7317L54.2015 59.4501L56.5485 32.4562H36.0751H36.0246L36.0751 32.4344L57.2985 23.3608L58.1779 14.6564Z" fill="#0F0063"/>
</g>
</g>
</svg>
