<svg width="76" height="73" viewBox="0 0 76 73" fill="none" xmlns="http://www.w3.org/2000/svg">
<g id="SVGRepo_iconCarrier">
<path id="Vector" d="M27.5771 15.0745H48.8271C49.8217 15.081 50.7781 14.6921 51.4859 13.9934C52.1938 13.2947 52.5951 12.3435 52.6015 11.3489C52.608 10.3543 52.2191 9.39795 51.5204 8.69012C50.8217 7.98229 49.8705 7.581 48.8759 7.57453L47.5396 7.68578C47.24 7.71365 46.9405 7.63127 46.6972 7.45407C46.454 7.27688 46.2837 7.01704 46.2184 6.72328C46.1062 6.20686 45.8842 5.72064 45.5674 5.29768C45.2505 4.87471 44.8464 4.52492 44.3823 4.27208C43.9182 4.01924 43.4052 3.86927 42.878 3.83238C42.3508 3.79549 41.8219 3.87254 41.3271 4.05828C41.0191 4.16786 40.6805 4.15242 40.3837 4.01525C40.087 3.87809 39.8558 3.63014 39.7396 3.32453C39.3591 2.29788 38.6507 1.42534 37.7241 0.842044C36.7975 0.258749 35.7044 -0.00274947 34.6142 0.098047C33.5239 0.198844 32.4973 0.656311 31.6934 1.3996C30.8894 2.14289 30.353 3.13052 30.1671 4.20953C30.1374 4.37525 30.0746 4.53326 29.9823 4.67408C29.89 4.8149 29.7702 4.93563 29.6301 5.02902C29.4901 5.12241 29.3325 5.18654 29.1671 5.21756C29.0016 5.24858 28.8315 5.24585 28.6671 5.20953C28.3101 5.12362 27.9444 5.07833 27.5771 5.07453C26.2511 5.07453 24.9793 5.60132 24.0416 6.539C23.1039 7.47668 22.5771 8.74845 22.5771 10.0745C22.5771 11.4006 23.1039 12.6724 24.0416 13.6101C24.9793 14.5477 26.2511 15.0745 27.5771 15.0745Z" fill="#0F0063"/>
<path id="Vector_2" d="M52.5771 17.5745H22.5771V23.8245H52.5771V17.5745ZM32.5771 22.5745H25.0771V20.0745H32.5771V22.5745ZM36.3271 22.5745H33.8271V20.0745H36.3271V22.5745ZM40.0771 22.5745H37.5771V20.0745H40.0771V22.5745Z" fill="#0F0063"/>
<path id="Vector_3" d="M52.5771 26.3245H22.5771V32.5745H52.5771V26.3245ZM32.5771 31.3245H25.0771V28.8245H32.5771V31.3245ZM36.3271 31.3245H33.8271V28.8245H36.3271V31.3245ZM40.0771 31.3245H37.5771V28.8245H40.0771V31.3245Z" fill="#0F0063"/>
<path id="Vector_4" d="M11.3271 46.3245H32.7546C32.9793 47.1835 33.4286 47.9673 34.0565 48.5951C34.6843 49.223 35.4681 49.6723 36.3271 49.897V55.0745H38.8271V49.897C39.6862 49.6723 40.4699 49.223 41.0978 48.5951C41.7257 47.9673 42.175 47.1835 42.3996 46.3245H63.8271V55.0745H66.3271V45.0745C66.3271 44.7429 66.1954 44.425 65.961 44.1906C65.7266 43.9562 65.4087 43.8245 65.0771 43.8245H42.3996C42.175 42.9654 41.7257 42.1817 41.0978 41.5538C40.4699 40.9259 39.6862 40.4766 38.8271 40.252V33.8245H36.3271V40.252C35.4681 40.4766 34.6843 40.9259 34.0565 41.5538C33.4286 42.1817 32.9793 42.9654 32.7546 43.8245H10.0771C9.74563 43.8245 9.42769 43.9562 9.19327 44.1906C8.95884 44.425 8.82715 44.7429 8.82715 45.0745V55.0745H11.3271V46.3245Z" fill="#0F0063"/>
<path id="Vector_5" d="M18.8271 58.8245H8.82715L7.32715 56.8245C7.21071 56.6692 7.05973 56.5432 6.88617 56.4564C6.7126 56.3696 6.5212 56.3245 6.32715 56.3245H1.32715C0.995628 56.3245 0.677685 56.4562 0.443265 56.6906C0.208844 56.925 0.0771484 57.2429 0.0771484 57.5745V71.3245C0.0771484 71.656 0.208844 71.9739 0.443265 72.2083C0.677685 72.4428 0.995628 72.5745 1.32715 72.5745H18.8271C19.1587 72.5745 19.4766 72.4428 19.711 72.2083C19.9455 71.9739 20.0771 71.656 20.0771 71.3245V60.0745C20.0771 59.7429 19.9455 59.425 19.711 59.1906C19.4766 58.9562 19.1587 58.8245 18.8271 58.8245ZM16.3271 65.0745H13.8271V62.5745H16.3271V65.0745Z" fill="#0F0063"/>
<path id="Vector_6" d="M46.3271 58.8245H36.3271L34.8271 56.8245C34.7107 56.6692 34.5597 56.5432 34.3862 56.4564C34.2126 56.3696 34.0212 56.3245 33.8271 56.3245H28.8271C28.4956 56.3245 28.1777 56.4562 27.9433 56.6906C27.7088 56.925 27.5771 57.2429 27.5771 57.5745V71.3245C27.5771 71.656 27.7088 71.9739 27.9433 72.2083C28.1777 72.4428 28.4956 72.5745 28.8271 72.5745H46.3271C46.6587 72.5745 46.9766 72.4428 47.211 72.2083C47.4455 71.9739 47.5771 71.656 47.5771 71.3245V60.0745C47.5771 59.7429 47.4455 59.425 47.211 59.1906C46.9766 58.9562 46.6587 58.8245 46.3271 58.8245ZM43.8271 65.0745H41.3271V62.5745H43.8271V65.0745Z" fill="#0F0063"/>
<path id="Vector_7" d="M73.8271 58.8245H63.8271L62.3271 56.8245C62.2107 56.6692 62.0597 56.5432 61.8862 56.4564C61.7126 56.3696 61.5212 56.3245 61.3271 56.3245H56.3271C55.9956 56.3245 55.6777 56.4562 55.4433 56.6906C55.2088 56.925 55.0771 57.2429 55.0771 57.5745V71.3245C55.0771 71.656 55.2088 71.9739 55.4433 72.2083C55.6777 72.4428 55.9956 72.5745 56.3271 72.5745H73.8271C74.1587 72.5745 74.4766 72.4428 74.711 72.2083C74.9454 71.9739 75.0771 71.656 75.0771 71.3245V60.0745C75.0771 59.7429 74.9454 59.425 74.711 59.1906C74.4766 58.9562 74.1587 58.8245 73.8271 58.8245ZM71.3271 65.0745H68.8271V62.5745H71.3271V65.0745Z" fill="#0F0063"/>
</g>
</svg>
