<svg width="80" height="80" viewBox="0 0 80 80" fill="none" xmlns="http://www.w3.org/2000/svg">
<g id="SVGRepo_iconCarrier">
<path id="Vector" d="M0 8.75C0 3.91751 3.91751 0 8.75 0H71.25C76.0825 0 80 3.91751 80 8.75V18.75C80 20.8211 78.321 22.5 76.25 22.5C74.179 22.5 72.5 20.8211 72.5 18.75V8.75C72.5 8.05965 71.9405 7.5 71.25 7.5H8.75C8.05965 7.5 7.5 8.05965 7.5 8.75V71.25C7.5 71.9405 8.05965 72.5 8.75 72.5H76.25C78.321 72.5 80 74.179 80 76.25C80 78.321 78.321 80 76.25 80H8.75C3.91751 80 0 76.0825 0 71.25V8.75ZM41.25 28.75C43.321 28.75 45 30.4289 45 32.5V52.5C45 57.524 43.6199 61.292 40.7757 63.662C38.0611 65.924 34.7692 66.25 32.5 66.25C30.4289 66.25 28.75 64.571 28.75 62.5C28.75 60.429 30.4289 58.75 32.5 58.75C34.2309 58.75 35.3139 58.451 35.9743 57.9005C36.505 57.458 37.5 56.226 37.5 52.5V32.5C37.5 30.4289 39.1789 28.75 41.25 28.75ZM56.3785 32.9006C58.472 30.4082 61.7535 28.75 66.25 28.75C70.4245 28.75 73.574 30.1783 75.697 32.424C77.1195 33.9291 77.0525 36.3026 75.5475 37.7253C74.0425 39.1479 71.669 39.0811 70.2465 37.576C69.697 36.9949 68.602 36.25 66.25 36.25C63.7465 36.25 62.653 37.0918 62.1215 37.7244C61.467 38.5033 61.25 39.48 61.25 40C61.25 40.52 61.467 41.4967 62.1215 42.2755C62.653 42.9082 63.7465 43.75 66.25 43.75C66.6285 43.75 66.994 43.806 67.338 43.9104C70.6535 44.3823 73.1595 45.8625 74.8715 47.9005C76.842 50.2465 77.5 53.02 77.5 55C77.5 56.98 76.842 59.7535 74.8715 62.0995C72.778 64.592 69.4965 66.25 65 66.25C60.8255 66.25 57.676 64.8215 55.553 62.576C54.1305 61.071 54.1975 58.6975 55.7025 57.2745C57.2075 55.852 59.581 55.919 61.0035 57.424C61.553 58.005 62.648 58.75 65 58.75C67.5035 58.75 68.597 57.908 69.1285 57.2755C69.783 56.4965 70 55.52 70 55C70 54.48 69.783 53.5035 69.1285 52.7245C68.597 52.092 67.5035 51.25 65 51.25C64.6215 51.25 64.256 51.194 63.912 51.0895C60.5965 50.6175 58.0905 49.1375 56.3785 47.0995C54.408 44.7533 53.75 41.98 53.75 40C53.75 38.02 54.408 35.2467 56.3785 32.9006Z" fill="#0F0063"/>
</g>
</svg>
