<svg width="80" height="80" viewBox="0 0 80 80" fill="none" xmlns="http://www.w3.org/2000/svg">
<g id="SVGRepo_iconCarrier">
<path id="Vector" d="M0.761137 27.8971C0.761137 27.8971 -1.18737 26.4774 1.15084 24.5817L6.59853 19.6578C6.59853 19.6578 8.15737 18.0001 9.80547 19.4444L60.077 57.9166V76.3646C60.077 76.3646 60.0527 79.2616 56.3747 78.9416L0.761137 27.8971Z" fill="#0F0063"/>
<path id="Vector_2" d="M13.7183 39.7891L0.760716 51.6964C0.760716 51.6964 -0.570768 52.6977 0.760716 54.4867L6.77674 60.0177C6.77674 60.0177 8.20564 61.5687 10.3165 59.8044L24.0535 49.2757L13.7183 39.7891Z" fill="#0F0063"/>
<path id="Vector_3" d="M36.4664 39.8869L60.2301 21.5453L60.0758 3.1954C60.0758 3.1954 59.0608 -0.80941 55.6754 1.27506L24.0527 30.3674L36.4664 39.8869Z" fill="#0F0063"/>
<path id="Vector_4" d="M56.3738 78.9667C57.7538 80.3943 59.4264 79.9267 59.4264 79.9267L77.9461 70.7027C80.3171 69.0693 79.9841 67.0423 79.9841 67.0423V11.9601C79.9841 9.53917 77.5321 8.7021 77.5321 8.7021L61.4804 0.881256C57.9731 -1.30989 55.6758 1.27516 55.6758 1.27516C55.6758 1.27516 58.6308 -0.874947 60.0761 3.1955V76.0287C60.0761 76.5293 59.9704 77.0217 59.7594 77.4647C59.3371 78.3263 58.4198 79.1307 56.2195 78.7943L56.3738 78.9667Z" fill="#0F0063"/>
</g>
</svg>
