<svg width="72" height="72" viewBox="0 0 72 72" fill="none" xmlns="http://www.w3.org/2000/svg">
<g id="SVGRepo_iconCarrier">
<path id="machine--learning--03_1_" d="M69.3 35.1375V26.665C70.7375 26.2675 71.8 24.9625 71.8 23.4025C71.8 21.5275 70.275 20.0025 68.4 20.0025C67.9225 20.0025 67.47 20.1025 67.0575 20.28L61.145 12.89C61.5525 12.33 61.8 11.645 61.8 10.9C61.8 9.025 60.275 7.5 58.4 7.5C57.3975 7.5 56.505 7.9425 55.8825 8.635L46.735 4.06C46.7775 3.8475 46.8 3.6275 46.8 3.4C46.8 1.525 45.275 0 43.4 0C41.8375 0 40.5325 1.0625 40.135 2.5H29.1625C28.765 1.0625 27.46 0 25.9 0C24.025 0 22.5 1.525 22.5 3.4C22.5 3.6275 22.525 3.8475 22.5675 4.06L15.9175 7.385C15.295 6.695 14.4025 6.25 13.4 6.25C11.525 6.25 10 7.775 10 9.65C10 10.3325 10.205 10.965 10.5525 11.4975L4.895 17.8625C4.4425 17.6375 3.94 17.5 3.4 17.5C1.525 17.5 0 19.025 0 20.9C0 22.4625 1.0625 23.765 2.5 24.1625V32.635C1.0625 33.0325 0 34.3375 0 35.8975C0 37.7725 1.525 39.2975 3.4 39.2975C4.765 39.2975 5.935 38.485 6.4775 37.32L15.0375 38.7475C15.215 40.46 16.645 41.8 18.4 41.8C18.6275 41.8 18.8475 41.775 19.06 41.7325L21.135 45.88C20.445 46.505 20 47.3975 20 48.4C20 50.275 21.525 51.8 23.4 51.8C24.575 51.8 25.6125 51.2 26.225 50.29L35.02 53.2225C35.015 53.2825 35 53.34 35 53.4C35 54.9625 36.0625 56.2675 37.5 56.665V65.135C36.0625 65.5325 35 66.8375 35 68.4C35 70.275 36.525 71.8 38.4 71.8C40.275 71.8 41.8 70.275 41.8 68.4C41.8 66.84 40.7375 65.5325 39.3 65.135V56.6625C40.7375 56.265 41.8 54.96 41.8 53.3975C41.8 52.2675 41.24 51.2725 40.39 50.6525L42.095 46.1025L50.0025 48.3625C50.0025 48.375 50 48.3875 50 48.4C50 49.96 51.0625 51.2675 52.5 51.665V65.1375C51.0625 65.535 50 66.84 50 68.4025C50 70.2775 51.525 71.8025 53.4 71.8025C55.275 71.8025 56.8 70.2775 56.8 68.4025C56.8 66.8425 55.7375 65.535 54.3 65.1375V51.665C55.7375 51.2675 56.8 49.9625 56.8 48.4C56.8 48.0275 56.725 47.675 56.615 47.34L66.185 40.9575C66.7825 41.4775 67.55 41.8 68.4 41.8C70.275 41.8 71.8 40.275 71.8 38.4C71.8 36.84 70.7375 35.535 69.3 35.1375ZM49.285 33.23C49.28 33.1175 49.2675 33.005 49.25 32.895L56.8725 29.5075L65.155 36.755L49.285 33.23ZM45.9 35C45.0175 35 44.3 34.2825 44.3 33.4C44.3 32.5175 45.0175 31.8 45.9 31.8C46.7825 31.8 47.5 32.5175 47.5 33.4C47.5 34.2825 46.7825 35 45.9 35ZM45.9 30C44.025 30 42.5 31.525 42.5 33.4C42.5 34.53 43.06 35.525 43.91 36.1425L40.995 43.9175L36.24 42.56L32.5775 29.745L46.235 20.355L47.805 21.5775L55.375 28.2025L48.5125 31.2525C47.89 30.495 46.9575 30 45.9 30ZM18.7275 35.0325L16.205 20.525L25.235 19.6225V19.6125C25.725 20.8875 26.9525 21.8 28.4 21.8C28.4125 21.8 28.4225 21.7975 28.435 21.7975L30.4925 28.995L20.5775 35.81C20.065 35.38 19.43 35.1025 18.7275 35.0325ZM28.4 20C27.5175 20 26.8 19.2825 26.8 18.4C26.8 17.5175 27.5175 16.8 28.4 16.8C29.2825 16.8 30 17.5175 30 18.4C30 19.2825 29.2825 20 28.4 20ZM21.6 37.2925L31.0125 30.82L34.2 41.9775L21.795 38.4325C21.795 38.42 21.7975 38.41 21.7975 38.3975C21.8 38.01 21.72 37.6425 21.6 37.2925ZM56.2225 13.49C56.815 13.9875 57.5675 14.3 58.4 14.3C58.8775 14.3 59.33 14.2 59.7425 14.0225L65.655 21.41C65.2475 21.97 65 22.655 65 23.4C65 23.5725 65.025 23.7375 65.05 23.9025L57.19 27.395L48.9525 20.1875L47.7925 19.285L56.2225 13.49ZM66.5275 35.565L58.6825 28.7025L65.785 25.5475C66.225 26.08 66.815 26.475 67.5 26.6625V35.135C67.1525 35.2325 66.8225 35.3725 66.5275 35.565ZM70 23.4C70 24.2825 69.2825 25 68.4 25C67.5175 25 66.8 24.2825 66.8 23.4C66.8 22.5175 67.5175 21.8 68.4 21.8C69.2825 21.8 70 22.5175 70 23.4ZM58.4 9.3C59.2825 9.3 60 10.0175 60 10.9C60 11.7825 59.2825 12.5 58.4 12.5C57.5175 12.5 56.8 11.7825 56.8 10.9C56.8 10.0175 57.5175 9.3 58.4 9.3ZM43.4 1.8C44.2825 1.8 45 2.5175 45 3.4C45 4.2825 44.2825 5 43.4 5C42.5175 5 41.8 4.2825 41.8 3.4C41.8 2.5175 42.5175 1.8 43.4 1.8ZM43.4 6.8C44.4025 6.8 45.295 6.3575 45.9175 5.665L55.065 10.24C55.0225 10.4525 55 10.6725 55 10.9C55 11.29 55.08 11.6575 55.2 12.0075L46.3 18.1275L29.04 4.7025C29.0925 4.575 29.1275 4.4375 29.165 4.3H40.1375C40.5325 5.7375 41.8375 6.8 43.4 6.8ZM25.9 1.8C26.7825 1.8 27.5 2.5175 27.5 3.4C27.5 4.2825 26.7825 5 25.9 5C25.0175 5 24.3 4.2825 24.3 3.4C24.3 2.5175 25.0175 1.8 25.9 1.8ZM23.3825 5.665C24.005 6.355 24.8975 6.8 25.9 6.8C26.66 6.8 27.3575 6.54 27.925 6.115L44.745 19.195L32.0575 27.9175L30.165 21.2925C31.14 20.695 31.8 19.6275 31.8 18.4C31.8 16.525 30.275 15 28.4 15C26.7175 15 25.3275 16.23 25.0575 17.8375V17.83L15.895 18.745L14.845 12.715C15.9975 12.17 16.8 11.005 16.8 9.65C16.8 9.4225 16.775 9.2025 16.7325 8.99L23.3825 5.665ZM6.5625 19.6775C6.4775 19.4575 6.375 19.2475 6.2475 19.0525L11.905 12.6875C12.2625 12.865 12.655 12.975 13.0725 13.0175L14.1 18.925L6.5625 19.6775ZM13.4 8.05C14.2825 8.05 15 8.7675 15 9.65C15 10.5325 14.2825 11.25 13.4 11.25C12.5175 11.25 11.8 10.5325 11.8 9.65C11.8 8.7675 12.5175 8.05 13.4 8.05ZM1.8 20.9C1.8 20.0175 2.5175 19.3 3.4 19.3C4.2825 19.3 5 20.0175 5 20.9C5 21.7825 4.2825 22.5 3.4 22.5C2.5175 22.5 1.8 21.7825 1.8 20.9ZM3.4 37.5C2.5175 37.5 1.8 36.7825 1.8 35.9C1.8 35.0175 2.5175 34.3 3.4 34.3C4.2825 34.3 5 35.0175 5 35.9C5 36.7825 4.2825 37.5 3.4 37.5ZM15.3225 36.975L6.7625 35.5475C6.615 34.145 5.625 33.0025 4.2975 32.635V24.1625C5.555 23.815 6.5175 22.7725 6.74 21.47L14.4075 20.7025L16.9525 35.335C16.2375 35.675 15.66 36.255 15.3225 36.975ZM16.8 38.4C16.8 37.5175 17.5175 36.8 18.4 36.8C19.2825 36.8 20 37.5175 20 38.4C20 39.2825 19.2825 40 18.4 40C17.5175 40 16.8 39.2825 16.8 38.4ZM23.4 50C22.5175 50 21.8 49.2825 21.8 48.4C21.8 47.5175 22.5175 46.8 23.4 46.8C24.2825 46.8 25 47.5175 25 48.4C25 49.2825 24.2825 50 23.4 50ZM26.7825 48.5775C26.785 48.5175 26.8 48.46 26.8 48.4C26.8 46.525 25.275 45 23.4 45C23.1725 45 22.9525 45.025 22.74 45.0675L20.665 40.92C20.91 40.7 21.12 40.4475 21.2925 40.165L34.7825 44.0175L36.6375 50.5075C36.2175 50.765 35.85 51.1025 35.575 51.5125L26.7825 48.5775ZM40 68.4C40 69.2825 39.2825 70 38.4 70C37.5175 70 36.8 69.2825 36.8 68.4C36.8 67.5175 37.5175 66.8 38.4 66.8C39.2825 66.8 40 67.5175 40 68.4ZM38.4 55C37.5175 55 36.8 54.2825 36.8 53.4C36.8 52.5175 37.5175 51.8 38.4 51.8C39.2825 51.8 40 52.5175 40 53.4C40 54.2825 39.2825 55 38.4 55ZM38.7025 50.03C38.6 50.02 38.5025 50 38.4 50C38.3875 50 38.3775 50.0025 38.365 50.0025L36.82 44.5975L40.36 45.6075L38.7025 50.03ZM42.73 44.415L45.5975 36.7675C45.7 36.7775 45.7975 36.7975 45.9 36.7975C47.1975 36.7975 48.3175 36.0575 48.89 34.985L65.0175 38.5675C65.0325 38.8775 65.0925 39.175 65.1875 39.4575L55.6175 45.84C55.0175 45.3225 54.25 45 53.4 45C52.1725 45 51.105 45.66 50.505 46.6375L42.73 44.415ZM55 68.4C55 69.2825 54.2825 70 53.4 70C52.5175 70 51.8 69.2825 51.8 68.4C51.8 67.5175 52.5175 66.8 53.4 66.8C54.2825 66.8 55 67.5175 55 68.4ZM53.4 50C52.5175 50 51.8 49.2825 51.8 48.4C51.8 47.5175 52.5175 46.8 53.4 46.8C54.2825 46.8 55 47.5175 55 48.4C55 49.2825 54.2825 50 53.4 50ZM68.4 40C67.5175 40 66.8 39.2825 66.8 38.4C66.8 37.5175 67.5175 36.8 68.4 36.8C69.2825 36.8 70 37.5175 70 38.4C70 39.2825 69.2825 40 68.4 40Z" fill="#0F0063"/>
</g>
</svg>
