<svg width="79" height="80" viewBox="0 0 79 80" fill="none" xmlns="http://www.w3.org/2000/svg">
<g id="SVGRepo_iconCarrier">
<g id="Group">
<path id="Vector" d="M76.4447 48.4664L73.6852 46.8731C74.1486 44.5681 74.3831 42.26 74.3831 40C74.3831 37.7071 74.1524 35.3968 73.6968 33.12L76.4447 31.5335C77.2957 31.0422 77.9046 30.2488 78.1588 29.2996C78.413 28.3504 78.2826 27.3589 77.7912 26.5079L70.2765 13.492C69.7851 12.6409 68.9918 12.0321 68.0426 11.7778C67.0933 11.5236 66.102 11.654 65.2508 12.1454L62.5007 13.7332C59.0269 10.6771 54.9386 8.31186 50.5867 6.84023V3.67906C50.5867 1.65041 48.9363 0 46.9076 0H31.8783C29.8496 0 28.1992 1.65041 28.1992 3.67906V6.84039C23.8704 8.30607 19.7878 10.6744 16.3011 13.7426L13.5349 12.1454C12.6837 11.654 11.6923 11.5234 10.7431 11.7778C9.79387 12.0323 9.0006 12.6409 8.50917 13.492L0.994496 26.5079C0.503068 27.3589 0.372657 28.3504 0.626903 29.2996C0.88115 30.2488 1.49 31.0422 2.34103 31.5335L5.10048 33.1267C4.63739 35.4317 4.40272 37.7398 4.40272 40C4.40272 42.2926 4.63348 44.6029 5.08906 46.8798L2.34119 48.4664C0.58432 49.4807 -0.0196721 51.7351 0.994496 53.4921L8.50917 66.508C9.5235 68.2647 11.7779 68.8689 13.5349 67.8546L16.2848 66.2668C19.7588 69.3229 23.8469 71.6881 28.1992 73.1599V76.3209C28.1992 78.3496 29.8496 80 31.8783 80H46.9076C48.9363 80 50.5867 78.3496 50.5867 76.3209V73.1596C54.9156 71.6939 58.9983 69.3256 62.4849 66.2575L65.2509 67.8546C67.0076 68.8689 69.2624 68.2647 70.2767 66.508L77.7914 53.4921C78.8055 51.7351 78.2015 49.4807 76.4447 48.4664ZM75.7575 52.318L68.2429 65.3337C67.8761 65.9693 67.0606 66.1877 66.4251 65.8207L62.9195 63.7968C62.4741 63.5396 61.9128 63.6023 61.5352 63.9516C57.9512 67.2664 53.639 69.7674 49.0651 71.1843C48.5735 71.3367 48.2383 71.7913 48.2383 72.3059V76.3209C48.2383 77.0547 47.6414 77.6517 46.9076 77.6517H31.8783C31.1445 77.6517 30.5475 77.0547 30.5475 76.3209V72.3061C30.5475 71.7915 30.2123 71.3368 29.7209 71.1845C25.1188 69.7587 20.8013 67.2609 17.2348 63.9612C17.0123 63.7553 16.726 63.6488 16.4372 63.6488C16.2358 63.6488 16.0334 63.7005 15.8504 63.8062L12.3608 65.8207C11.7251 66.1876 10.9098 65.9692 10.543 65.3337L3.02831 52.318C2.6615 51.6825 2.88005 50.867 3.51536 50.5L7.00217 48.4869C7.44741 48.2298 7.67364 47.7132 7.56045 47.2116C7.0233 44.8308 6.75105 42.4044 6.75105 40C6.75105 37.636 7.02737 35.2119 7.5725 32.795C7.68553 32.2935 7.45931 31.7768 7.01422 31.5198L3.51536 29.4998C3.20757 29.3221 2.98745 29.0351 2.8954 28.6918C2.8035 28.3485 2.85062 27.9898 3.02831 27.682L10.543 14.6661C10.7207 14.3584 11.0076 14.1381 11.3511 14.0462C11.6943 13.9541 12.0531 14.0014 12.3609 14.1791L15.8665 16.2031C16.3121 16.4604 16.8732 16.3975 17.2508 16.0482C20.835 12.7335 25.147 10.2325 29.7209 8.8155C30.2125 8.66317 30.5477 8.20853 30.5477 7.69393V3.67906C30.5477 2.94528 31.1446 2.34834 31.8784 2.34834H46.9078C47.6415 2.34834 48.2385 2.94528 48.2385 3.67906V7.69393C48.2385 8.20853 48.5737 8.66317 49.0651 8.8155C53.6671 10.2411 57.9846 12.7389 61.5512 16.0388C61.9288 16.3883 62.4901 16.451 62.9356 16.1938L66.4253 14.1791C66.7332 14.0014 67.0919 13.9541 67.435 14.0462C67.7784 14.1382 68.0653 14.3584 68.2432 14.6661L75.7579 27.682C75.9356 27.9898 75.9828 28.3485 75.8908 28.6918C75.7987 29.0351 75.5786 29.3221 75.2708 29.4998L71.784 31.513C71.3388 31.77 71.1125 32.2868 71.2257 32.7883C71.7629 35.1688 72.0351 37.5951 72.0351 40C72.0351 42.364 71.7588 44.7881 71.2137 47.2049C71.1006 47.7063 71.3269 48.2229 71.772 48.48L75.2708 50.5C75.906 50.867 76.1245 51.6825 75.7575 52.318Z" fill="#0F0063"/>
<path id="Vector_2" d="M39.393 16.2817C26.3146 16.2817 15.6748 26.9217 15.6748 39.9999C15.6748 53.0781 26.3146 63.7181 39.393 63.7181C52.4714 63.7181 63.1112 53.0781 63.1112 39.9999C63.1112 26.9217 52.4714 16.2817 39.393 16.2817ZM39.393 61.3698C27.6097 61.3698 18.0231 51.7833 18.0231 39.9999C18.0231 28.2166 27.6097 18.6301 39.393 18.6301C51.1763 18.6301 60.7629 28.2166 60.7629 39.9999C60.7629 51.7833 51.1763 61.3698 39.393 61.3698Z" fill="#0F0063"/>
<path id="Vector_3" d="M43.7765 33.8162H39.3929C38.7445 33.8162 38.2188 34.3419 38.2188 34.9903V45.0099C38.2188 45.6584 38.7445 46.1841 39.3929 46.1841C40.0414 46.1841 40.5671 45.6584 40.5671 45.0099V42.4267H43.7765C46.1505 42.4267 48.0818 40.4955 48.0818 38.1214C48.0818 35.7474 46.1505 33.8162 43.7765 33.8162ZM43.7765 40.0784H40.5671V36.1645H43.7765C44.8556 36.1645 45.7334 37.0423 45.7334 38.1214C45.7334 39.2006 44.8556 40.0784 43.7765 40.0784Z" fill="#0F0063"/>
<path id="Vector_4" d="M32.9779 34.5781C32.806 34.1199 32.368 33.8162 31.8786 33.8162H30.6261C30.1367 33.8162 29.6985 34.1197 29.5268 34.5781L25.7694 44.5977C25.5417 45.2048 25.8494 45.8816 26.4566 46.1094C27.0637 46.3372 27.7405 46.0294 27.9683 45.4223L28.6217 43.6792H33.8828L34.5364 45.4221C34.7132 45.8935 35.1606 46.1844 35.6359 46.1844C35.7729 46.1844 35.9122 46.1603 36.048 46.1094C36.6551 45.8818 36.9629 45.2048 36.7351 44.5977L32.9779 34.5781ZM29.5024 41.3308L31.2523 36.6644L33.0023 41.3308H29.5024Z" fill="#0F0063"/>
<path id="Vector_5" d="M50.6654 33.8162C50.0169 33.8162 49.4912 34.3419 49.4912 34.9903V45.0099C49.4912 45.6584 50.0169 46.1841 50.6654 46.1841C51.3138 46.1841 51.8395 45.6584 51.8395 45.0099V34.9903C51.8395 34.3419 51.3138 33.8162 50.6654 33.8162Z" fill="#0F0063"/>
<path id="Vector_6" d="M47.7926 13.6674C48.6075 13.9271 49.4198 14.2288 50.2068 14.5638C50.3568 14.6277 50.5127 14.6579 50.6662 14.6579C51.1227 14.6579 51.557 14.3899 51.747 13.9434C52.001 13.3467 51.7232 12.6571 51.1266 12.4032C50.2721 12.0395 49.3904 11.712 48.5055 11.43C47.8879 11.2331 47.2273 11.5744 47.0303 12.1922C46.8335 12.8099 47.1748 13.4704 47.7926 13.6674Z" fill="#0F0063"/>
<path id="Vector_7" d="M15.1192 53.2139C14.8086 52.6446 14.0952 52.4348 13.5261 52.7455C12.9569 53.0561 12.7471 53.7693 13.0577 54.3386C13.5449 55.2316 14.0842 56.11 14.6607 56.9494C14.8883 57.2809 15.2558 57.459 15.6296 57.459C15.8587 57.459 16.09 57.3922 16.2933 57.2527C16.8279 56.8856 16.9636 56.1546 16.5965 55.6201C16.0653 54.8464 15.5682 54.0369 15.1192 53.2139Z" fill="#0F0063"/>
<path id="Vector_8" d="M36.9882 67.5289C30.6964 66.9867 24.7241 64.2601 20.1716 59.8512C19.7057 59.4 18.9624 59.4121 18.5114 59.8778C18.0603 60.3437 18.0721 61.0871 18.538 61.5381C23.4773 66.3217 29.9583 69.2801 36.7866 69.8684C36.8209 69.8714 36.8548 69.8728 36.8887 69.8728C37.4916 69.8728 38.0044 69.4111 38.0572 68.7995C38.1128 68.1535 37.6342 67.5846 36.9882 67.5289Z" fill="#0F0063"/>
<path id="Vector_9" d="M56.2889 15.2307C55.7535 14.8649 55.0229 15.0023 54.657 15.5376C54.2911 16.073 54.4286 16.8036 54.9638 17.1695C60.4189 20.8976 64.3649 26.4451 66.0749 32.79C66.2161 33.3139 66.6902 33.6589 67.2079 33.6589C67.3091 33.6589 67.4119 33.6458 67.5141 33.6182C68.1404 33.4494 68.5111 32.805 68.3423 32.179C66.4868 25.2937 62.2061 19.2747 56.2889 15.2307Z" fill="#0F0063"/>
</g>
</g>
</svg>
