<svg width="66" height="80" viewBox="0 0 66 80" fill="none" xmlns="http://www.w3.org/2000/svg">
<g id="SVGRepo_iconCarrier">
<g id="Group">
<g id="Group_2">
<path id="Vector" d="M0.325736 43.0067C0.0308495 43.4349 -0.0694852 43.9623 0.0479801 44.4652C0.165445 44.9693 0.490922 45.4025 0.943653 45.6545L4.1299 47.4239V51.2378C4.1299 51.9793 4.58141 52.6511 5.27274 52.9374L6.84139 53.5773L5.89066 54.5256C5.51256 54.9062 5.31801 55.4274 5.35839 55.9609C5.39755 56.4956 5.66796 56.9826 6.09744 57.3032L9.32896 59.6855V66.9916C9.32896 68.0048 10.15 68.827 11.1644 68.827H22.7384L24.1859 78.4335C24.2617 78.9388 24.5456 79.3879 24.969 79.6815C25.2761 79.892 25.6358 79.9997 26.0005 79.9997C26.1387 79.9997 26.2782 79.9801 26.414 79.952L55.4757 73.2222C56.4619 72.9921 57.0786 72.012 56.8498 71.0234L54.0368 58.7617L55.6898 51.2978L65.2045 39.5476C65.47 39.2196 65.6132 38.8122 65.6132 38.3925V20.1902C65.6132 19.899 65.5386 19.6115 65.4125 19.3521L59.2946 7.42201C59.1147 7.06839 58.8161 6.78329 58.4576 6.60832L47.7511 1.40803C47.5358 1.30403 47.307 1.24162 47.0622 1.22816L27.4847 0.00456573C27.1164 -0.0223534 26.7481 0.07064 26.43 0.260298L10.5232 9.74318C10.128 9.97811 9.83553 10.3537 9.70461 10.7942L4.96317 26.701C4.75271 27.4082 4.98642 28.173 5.55539 28.6429L7.42382 30.1821L7.22071 33.0184L0.325736 43.0067ZM10.4963 27.9479L8.83585 26.5811L13.0254 12.5281L27.8298 3.70228L46.4786 4.86714L56.3077 9.64039L61.9412 20.6307V37.7379L52.5611 49.318C52.3824 49.5395 52.2576 49.7989 52.1952 50.0754L50.3598 58.3604C50.2974 58.6308 50.2974 58.9012 50.3623 59.1679L52.8596 70.0518L27.5202 75.9214L26.1338 66.7188C25.998 65.8243 25.2272 65.1599 24.3193 65.1599H13.001V58.7629C13.001 58.1768 12.7244 57.6323 12.2558 57.286L9.9946 55.6195L11.3932 54.2185C11.8275 53.7853 12.016 53.1601 11.8948 52.5605C11.7737 51.9585 11.3577 51.4593 10.7887 51.2219L7.80191 50.0081V46.3471C7.80191 45.6802 7.44095 45.066 6.85852 44.7405L4.4982 43.4325L10.5367 34.6948C10.7239 34.4244 10.834 34.1099 10.8572 33.782L11.1631 29.4994C11.1986 28.9059 10.9551 28.3272 10.4963 27.9479Z" fill="#0F0063"/>
<path id="Vector_2" d="M14.4326 26.9456L13.1234 30.275C12.919 30.7951 12.9631 31.3799 13.242 31.8645C13.5222 32.349 14.0068 32.6782 14.5586 32.7614L18.0973 33.2937L19.2364 36.6867C19.4139 37.2165 19.8225 37.635 20.3487 37.8271C20.8736 38.0167 21.4585 37.9605 21.9345 37.668L24.9873 35.802L28.0402 37.668C28.3314 37.8467 28.6643 37.9384 28.9983 37.9384C29.21 37.9384 29.4229 37.9017 29.626 37.8271C30.1509 37.6362 30.5608 37.2165 30.7383 36.6867L31.8774 33.2937L35.4136 32.7614C35.9679 32.6782 36.4561 32.3478 36.7302 31.8645C37.0104 31.3799 37.0581 30.7951 36.8526 30.275L35.5433 26.9456L37.9147 24.2635C38.2879 23.8438 38.4457 23.2797 38.3478 22.7291C38.2511 22.1797 37.9098 21.7025 37.4179 21.4358L34.2745 19.7264L34.3638 16.1486C34.3797 15.5907 34.1337 15.0547 33.7104 14.695C33.2809 14.3365 32.7131 14.1884 32.165 14.3034L28.6569 15.0131L26.4275 12.2147C25.7313 11.3399 24.2532 11.3399 23.5557 12.2147L21.3288 15.0131L17.8207 14.3034C17.2713 14.1896 16.7048 14.3365 16.2766 14.695C15.8483 15.0547 15.6073 15.587 15.6219 16.1486L15.7125 19.7264L12.5691 21.4358C12.0784 21.7025 11.7358 22.1785 11.6391 22.7291C11.5412 23.2797 11.7003 23.8438 12.0711 24.2635L14.4326 26.9456ZM18.4497 22.4122C19.0554 22.0831 19.4249 21.4431 19.4077 20.7542L19.3466 18.3572L21.6959 18.8332C22.3725 18.9727 23.0663 18.7169 23.4958 18.1786L24.9898 16.304L26.4838 18.1786C26.9133 18.7169 27.6095 18.9739 28.2837 18.8332L30.633 18.3572L30.5718 20.7542C30.5547 21.4431 30.9242 22.0843 31.5299 22.4122L33.6357 23.5587L32.0487 25.3562C31.5923 25.8725 31.4639 26.6018 31.7171 27.243L32.5932 29.4736L30.2219 29.8297C29.5404 29.9324 28.9738 30.4084 28.7548 31.0606L27.9913 33.334L25.9466 32.0847C25.6518 31.9036 25.3202 31.8131 24.9873 31.8131C24.6545 31.8131 24.3242 31.9024 24.0293 32.0835L21.9846 33.3328L21.2211 31.0594C21.0021 30.4072 20.4356 29.9312 19.754 29.8284L17.3851 29.4711L18.2612 27.2405C18.5133 26.5994 18.3848 25.8701 17.9296 25.3537L16.3426 23.5563L18.4497 22.4122Z" fill="#0F0063"/>
<path id="Vector_3" d="M24.986 30.745C27.9386 30.745 30.3393 28.3431 30.3393 25.3918C30.3393 22.4405 27.9386 20.0386 24.986 20.0386C22.0335 20.0386 19.6328 22.4405 19.6328 25.3918C19.6328 28.3431 22.036 30.745 24.986 30.745ZM24.986 23.7094C25.9135 23.7094 26.6685 24.4643 26.6685 25.3918C26.6685 26.3193 25.9135 27.0743 24.986 27.0743C24.0586 27.0743 23.3036 26.3193 23.3036 25.3918C23.3036 24.4643 24.061 23.7094 24.986 23.7094Z" fill="#0F0063"/>
<path id="Vector_4" d="M37.8805 25.9474C37.3923 26.2141 37.0435 26.6901 36.9505 27.2407C36.8526 27.7913 37.0129 28.3554 37.3837 28.7751L39.1383 30.761L38.1705 33.2278C37.9649 33.7478 38.0102 34.3327 38.2904 34.8172C38.5706 35.3018 39.0551 35.6309 39.607 35.7141L42.2304 36.1069L43.0722 38.6202C43.2508 39.15 43.6583 39.5684 44.1808 39.7605C44.7118 39.9514 45.2893 39.8939 45.7702 39.6015L48.0339 38.2188L50.2963 39.6015C50.5875 39.7801 50.9203 39.8719 51.2544 39.8719C51.4648 39.8719 51.6777 39.8352 51.8809 39.7605C52.407 39.5697 52.8181 39.15 52.9943 38.6202L53.8362 36.1069L56.4571 35.7141C57.0114 35.6309 57.4947 35.3005 57.7725 34.8172C58.0527 34.3327 58.0967 33.7478 57.8936 33.2278L56.9233 30.761L58.6804 28.7751C59.0487 28.3566 59.2102 27.7913 59.1135 27.2407C59.0157 26.6913 58.6767 26.2141 58.1799 25.9474L55.8563 24.6809L55.9261 22.0319C55.9444 21.4727 55.696 20.938 55.2739 20.5782C54.8407 20.2185 54.2791 20.0729 53.7273 20.1867L51.1296 20.7128L49.4728 18.6413C48.7827 17.7664 47.3034 17.7664 46.601 18.6413L44.9492 20.7128L42.3515 20.1867C41.8021 20.0741 41.2331 20.2197 40.8073 20.5782C40.3778 20.938 40.138 21.4727 40.1527 22.0319L40.22 24.6809L37.8805 25.9474ZM42.9498 27.3655C43.5543 27.0364 43.925 26.3952 43.9079 25.7088L43.87 24.2404L45.3089 24.5317C45.9856 24.6687 46.6806 24.4154 47.1113 23.877L48.0265 22.7293L48.9442 23.877C49.3737 24.4154 50.0675 24.6699 50.7454 24.5317L52.1868 24.2404L52.1537 25.7088C52.1317 26.3976 52.5049 27.0388 53.1069 27.3655L54.4027 28.0679L53.4299 29.1679C52.9735 29.6842 52.8438 30.4135 53.0983 31.0547L53.6343 32.4214L52.1806 32.6404C51.4979 32.7432 50.9314 33.2192 50.7136 33.8726L50.2474 35.2651L48.9956 34.4991C48.7032 34.3192 48.3667 34.2287 48.0388 34.2287C47.7072 34.2287 47.3731 34.318 47.0807 34.4991L45.8314 35.2651L45.3628 33.8726C45.1425 33.2192 44.5735 32.7432 43.8981 32.6404L42.4445 32.4214L42.9804 31.0547C43.2313 30.4135 43.104 29.6842 42.6476 29.1679L41.6773 28.0679L42.9498 27.3655Z" fill="#0F0063"/>
<path id="Vector_5" d="M48.0254 34.0953C50.5962 34.0953 52.6849 32.0054 52.6849 29.4358C52.6849 26.8663 50.5962 24.7764 48.0254 24.7764C45.4534 24.7764 43.3623 26.8663 43.3623 29.4358C43.366 32.0054 45.4547 34.0953 48.0254 34.0953ZM48.0254 28.4496C48.565 28.4496 49.0141 28.8925 49.0141 29.4383C49.0141 29.984 48.5724 30.4269 48.0254 30.4269C47.4785 30.4269 47.0331 29.984 47.0331 29.4383C47.0368 28.8901 47.4822 28.4496 48.0254 28.4496Z" fill="#0F0063"/>
</g>
</g>
</g>
</svg>
