<svg width="81" height="49" viewBox="0 0 81 49" fill="none" xmlns="http://www.w3.org/2000/svg">
<g id="SVGRepo_iconCarrier">
<g id="Group">
<path id="Vector" d="M23.0496 17.8195C23.0496 18.8045 23.1496 19.6045 23.3396 20.1945C23.5496 20.7795 23.8196 21.4195 24.1896 22.1145C24.3076 22.2981 24.3717 22.5112 24.3746 22.7295C24.3746 22.9945 24.2146 23.2645 23.8746 23.5295L22.1946 24.6495C21.9929 24.7951 21.7531 24.8785 21.5046 24.8895C21.2346 24.8895 20.9696 24.7595 20.7046 24.5195C20.3452 24.1328 20.0237 23.7126 19.7446 23.2645C19.4488 22.7515 19.1752 22.226 18.9246 21.6895C16.8446 24.1445 14.2396 25.3745 11.0996 25.3745C8.86457 25.3745 7.07957 24.7295 5.77957 23.4495C4.47457 22.1695 3.80957 20.4595 3.80957 18.3245C3.80957 16.0545 4.60957 14.2145 6.22957 12.8245C7.85457 11.4345 10.0096 10.7445 12.7496 10.7445C13.6496 10.7445 14.5846 10.8245 15.5696 10.9545C16.5546 11.0895 17.5696 11.3045 18.6296 11.5445V9.59452C18.6296 7.56452 18.2046 6.14952 17.3796 5.32452C16.5296 4.49452 15.0896 4.09452 13.0396 4.09452C12.1096 4.09452 11.1546 4.20452 10.1696 4.44452C9.19093 4.67743 8.23016 4.97987 7.29457 5.34952C6.99251 5.48629 6.68185 5.6032 6.36457 5.69952C6.22709 5.74495 6.08416 5.77185 5.93957 5.77952C5.56457 5.77952 5.37957 5.50952 5.37957 4.94952V3.63952C5.37957 3.21452 5.42957 2.88952 5.56457 2.70952C5.76606 2.4642 6.02318 2.2705 6.31457 2.14452C7.23957 1.66452 8.35957 1.26452 9.66457 0.944521C10.9646 0.594521 12.3496 0.439522 13.8146 0.439522C16.9796 0.439522 19.2946 1.15952 20.7846 2.59952C22.2496 4.03952 22.9946 6.22952 22.9946 9.16952V17.8195H23.0446H23.0496ZM12.2446 21.8745C13.1196 21.8745 14.0246 21.7145 14.9846 21.3945C15.9446 21.0745 16.7946 20.4845 17.5096 19.6845C17.9383 19.1933 18.248 18.6099 18.4146 17.9795C18.5746 17.3345 18.6846 16.5645 18.6846 15.6545V14.5345C17.877 14.3387 17.059 14.1884 16.2346 14.0845C15.4055 13.9773 14.5705 13.9222 13.7346 13.9195C11.9496 13.9195 10.6496 14.2695 9.76957 14.9895C8.88957 15.7095 8.46957 16.7245 8.46957 18.0595C8.46957 19.3095 8.78457 20.2445 9.44957 20.8895C10.0896 21.5545 11.0196 21.8745 12.2446 21.8745ZM33.6096 24.7595C33.1296 24.7595 32.8096 24.6795 32.5996 24.4895C32.3846 24.3295 32.1996 23.9595 32.0396 23.4495L25.7896 2.81452C25.668 2.46847 25.5875 2.10935 25.5496 1.74452C25.5496 1.31952 25.7596 1.07952 26.1846 1.07952H28.7946C29.2946 1.07952 29.6446 1.15952 29.8296 1.34452C30.0446 1.50452 30.2046 1.87952 30.3646 2.38452L34.8346 20.0595L38.9846 2.38452C39.1146 1.85452 39.2746 1.50452 39.4896 1.34452C39.809 1.14901 40.1808 1.0565 40.5546 1.07952H42.6846C43.1846 1.07952 43.5346 1.15952 43.7446 1.34452C43.9596 1.50452 44.1446 1.87952 44.2546 2.38452L48.4546 20.2745L53.0546 2.38452C53.1401 1.99747 53.3244 1.63917 53.5896 1.34452C53.8995 1.1485 54.2636 1.05572 54.6296 1.07952H57.1046C57.5296 1.07952 57.7696 1.29452 57.7696 1.74452C57.7696 1.87952 57.7396 2.01452 57.7196 2.17452C57.6764 2.40145 57.6128 2.62402 57.5296 2.83952L51.1146 23.4745C50.9596 24.0095 50.7696 24.3595 50.5596 24.5195C50.2576 24.7127 49.9024 24.8054 49.5446 24.7845H47.2596C46.7546 24.7845 46.4096 24.7045 46.1946 24.5195C45.9796 24.3295 45.7946 23.9845 45.6896 23.4495L41.5646 6.23452L37.4646 23.4295C37.3346 23.9645 37.1746 24.3095 36.9646 24.4945C36.7496 24.6845 36.3746 24.7645 35.8996 24.7645H33.6096V24.7595ZM67.7996 25.4795C66.4188 25.4814 65.0426 25.3203 63.6996 24.9995C62.3696 24.6795 61.3346 24.3295 60.6396 23.9295C60.2146 23.6895 59.9246 23.4245 59.8146 23.1795C59.7132 22.9442 59.6605 22.6908 59.6596 22.4345V21.0745C59.6596 20.5145 59.8696 20.2445 60.2696 20.2445C60.4329 20.2449 60.595 20.2719 60.7496 20.3245C60.9096 20.3795 61.1496 20.4845 61.4146 20.5945C62.3146 20.9945 63.3046 21.3145 64.3396 21.5295C65.4046 21.7395 66.4396 21.8495 67.5046 21.8495C69.1846 21.8495 70.4846 21.5545 71.3896 20.9695C71.8243 20.7063 72.1815 20.3326 72.4248 19.8864C72.6681 19.4402 72.7888 18.9375 72.7746 18.4295C72.7835 18.0865 72.7246 17.7451 72.601 17.4251C72.4774 17.105 72.2917 16.8125 72.0546 16.5645C71.5796 16.0545 70.6746 15.5995 69.3696 15.1745L65.5096 13.9745C63.5696 13.3595 62.1296 12.4495 61.2546 11.2495C60.398 10.1407 59.9306 8.78063 59.9246 7.37952C59.9246 6.25952 60.1646 5.26952 60.6396 4.41452C61.1196 3.56452 61.7596 2.81452 62.5596 2.22452C63.3596 1.61452 64.2596 1.15952 65.3246 0.839522C66.3896 0.519522 67.5046 0.384521 68.6746 0.384521C69.2646 0.384521 69.8746 0.409523 70.4596 0.489523C71.0696 0.569523 71.6296 0.679523 72.1896 0.789523C72.7196 0.919523 73.2296 1.04952 73.7046 1.21452C74.1846 1.37452 74.5546 1.53452 74.8246 1.69452C75.1384 1.85233 75.4121 2.07979 75.6246 2.35952C75.7957 2.61985 75.8781 2.92853 75.8596 3.23952V4.49452C75.8596 5.05452 75.6496 5.34952 75.2496 5.34952C74.8954 5.30908 74.5524 5.20041 74.2396 5.02952C72.6317 4.3168 70.8881 3.96194 69.1296 3.98952C67.6146 3.98952 66.4146 4.22952 65.5896 4.73952C64.7646 5.23952 64.3396 6.01952 64.3396 7.11452C64.3396 7.85952 64.6046 8.49952 65.1396 9.00952C65.6696 9.51452 66.6546 10.0195 68.0646 10.4745L71.8446 11.6745C73.7596 12.2895 75.1446 13.1445 75.9696 14.2395C76.7946 15.3345 77.1896 16.5895 77.1896 17.9795C77.1896 19.1295 76.9546 20.1645 76.4996 21.0745C76.0286 21.9877 75.367 22.7891 74.5596 23.4245C73.7346 24.0895 72.7496 24.5745 71.6046 24.9195C70.4046 25.2945 69.1546 25.4795 67.7996 25.4795Z" fill="#0F0063"/>
<path id="Vector_2" fill-rule="evenodd" clip-rule="evenodd" d="M72.8247 38.4495C64.0747 44.9345 51.3547 48.3795 40.4197 48.3795C25.0947 48.3795 11.2847 42.6945 0.854651 33.2445C0.0296514 32.4945 0.774651 31.4795 1.75465 32.0695C13.0397 38.6345 26.9546 42.6145 41.3546 42.6145C51.0597 42.6145 61.7297 40.5845 71.5497 36.4195C73.0146 35.7545 74.2647 37.3795 72.8247 38.4495Z" fill="#0F0063"/>
<path id="Vector_3" fill-rule="evenodd" clip-rule="evenodd" d="M76.4699 34.2844C75.3549 32.8494 69.0749 33.5944 66.2299 33.9394C65.3799 34.0494 65.2449 33.2994 66.0149 32.7394C71.0149 29.2144 79.2399 30.2294 80.1949 31.4044C81.1549 32.6044 79.9299 40.8544 75.2449 44.8044C74.5299 45.4194 73.8399 45.1044 74.1599 44.3044C75.2199 41.6544 77.5899 35.7044 76.4699 34.2894V34.2844Z" fill="#0F0063"/>
</g>
</g>
</svg>
