<svg width="73" height="73" viewBox="0 0 73 73" fill="none" xmlns="http://www.w3.org/2000/svg">
<g id="SVGRepo_iconCarrier">
<path id="Vector" fill-rule="evenodd" clip-rule="evenodd" d="M41.1871 9.23477C38.5838 6.63127 34.3624 6.63127 31.7591 9.23477L29.5205 11.4733L34.7464 16.6991C35.2971 16.5519 35.8758 16.4733 36.4731 16.4733C40.1551 16.4733 43.1398 19.4581 43.1398 23.14C43.1398 23.7372 43.0611 24.3161 42.9141 24.8668L49.7464 31.699C50.2971 31.552 50.8758 31.4733 51.4731 31.4733C55.1551 31.4733 58.1398 34.458 58.1398 38.14C58.1398 41.822 55.1551 44.8067 51.4731 44.8067C47.7911 44.8067 44.8064 41.822 44.8064 38.14C44.8064 37.5427 44.8851 36.964 45.0321 36.4133L39.8064 31.1873V47.3653C41.7991 48.518 43.1398 50.6723 43.1398 53.14C43.1398 56.822 40.1551 59.8067 36.4731 59.8067C32.7911 59.8067 29.8064 56.822 29.8064 53.14C29.8064 50.6723 31.1471 48.518 33.1398 47.3653V28.9148C31.1471 27.7621 29.8064 25.6076 29.8064 23.14C29.8064 22.5428 29.8851 21.9639 30.0321 21.4132L24.8064 16.1874L9.23453 31.7593C6.63103 34.3627 6.63103 38.584 9.23453 41.1873L31.7591 63.712C34.3624 66.3153 38.5838 66.3153 41.1871 63.712L63.7118 41.1873C66.3151 38.584 66.3151 34.3627 63.7118 31.7593L41.1871 9.23477ZM27.045 4.52071C32.2521 -0.686276 40.6941 -0.686263 45.9011 4.52074L68.4258 27.0452C73.6328 32.2523 73.6328 40.6943 68.4258 45.9013L45.9011 68.426C40.6941 73.633 32.2521 73.633 27.045 68.426L4.52046 45.9013C-0.686521 40.6943 -0.686507 32.2523 4.5205 27.0452L27.045 4.52071Z" fill="#0F0063"/>
</g>
</svg>
