<svg width="53" height="52" viewBox="0 0 53 52" fill="none" xmlns="http://www.w3.org/2000/svg">
<g id="SVGRepo_iconCarrier">
<path id="Vector" d="M29.8121 0.212818C15.5672 -1.60719 2.53957 8.44671 0.712844 22.6915C-1.10738 36.9347 8.94774 49.9607 23.1943 51.7872C37.4391 53.6072 50.4668 43.5533 52.2854 29.3085C54.1137 15.0654 44.0602 2.03932 29.8121 0.212818ZM35.1622 16.4369C34.6796 16.4369 34.2212 16.6319 33.8832 16.978L24.2344 26.6175L23.5664 25.9561L22.1769 24.5602C31.6827 15.0816 33.4021 14.9874 35.1606 16.4352L35.1622 16.4369ZM24.6326 26.9636L34.2472 17.342C34.7803 16.783 35.6693 16.7911 36.204 17.3501C36.7289 17.9172 36.6769 18.8061 36.0854 19.2952L25.9035 28.2328L24.6326 26.9636ZM25.3444 28.4716L22.957 28.9868C22.9066 28.9949 22.84 28.9689 22.814 28.9104C22.788 28.8584 22.7961 28.7999 22.84 28.756L24.236 27.3601L25.3444 28.4716ZM19.2661 27.4739L21.8145 24.934L23.7192 26.8385L19.427 27.7599C19.3507 27.7778 19.2759 27.7453 19.2401 27.6754C19.1995 27.6088 19.2158 27.5243 19.2661 27.4739ZM11.3693 40.599C11.2767 40.5909 11.2068 40.5064 11.2149 40.4219C11.223 40.3813 11.2409 40.3455 11.2669 40.3195H11.275L13.3228 38.272L15.9735 40.9224L11.3693 40.599ZM16.6236 37.8739C16.422 37.9844 16.3197 38.2135 16.37 38.4329L16.8105 40.3049C16.8803 40.5763 16.5488 40.7599 16.3538 40.5584H16.3457L13.6884 37.8999L21.8405 29.757L25.7848 28.9039L27.6717 30.8003C24.9543 33.1858 21.2375 35.5648 16.6252 37.8739H16.6236ZM28.0617 30.4525L26.2415 28.6325L36.4234 19.695C36.516 19.6105 36.6005 19.5179 36.6769 19.4236C36.3649 22.3356 32.284 26.4485 28.0617 30.4525ZM35.9927 16.4531H35.9846C32.4368 12.8895 37.4489 7.41321 41.3087 10.6291L37.8227 14.1261C37.7203 14.2252 37.7203 14.3975 37.8227 14.4966L40.5221 17.199C39.0075 17.9514 37.1872 17.6475 35.9927 16.4531ZM41.5704 16.4531C41.3933 16.6302 41.1982 16.7911 40.987 16.926L38.372 14.3113L41.689 10.985C43.1273 12.5515 43.0688 14.9549 41.5704 16.4531ZM41.3575 13.1105C41.2486 13.1868 41.2064 13.3201 41.2405 13.4485C41.4014 13.7686 41.3575 14.1505 41.13 14.4218C41.0195 14.5583 41.0455 14.7452 41.1804 14.8525C41.2324 14.8866 41.2909 14.9126 41.3575 14.9126C41.4501 14.9126 41.5379 14.8785 41.5867 14.8102C41.9686 14.3536 42.0433 13.7101 41.7817 13.1771C41.6793 13.0422 41.494 13.0081 41.3575 13.1105Z" fill="#0F0063"/>
</g>
</svg>
