<svg width="76" height="54" viewBox="0 0 76 54" fill="none" xmlns="http://www.w3.org/2000/svg">
<g id="SVGRepo_iconCarrier">
<path id="Vector" d="M31.7472 6.49869C34.1321 3.99119 37.4971 2.42869 41.2246 2.42869C41.2271 2.42869 41.2321 2.42869 41.2346 2.42869C46.1621 2.49369 50.4371 5.21869 52.6971 9.23119L52.7321 9.29869C54.6046 8.41369 56.7996 7.89619 59.1146 7.89619C59.1721 7.89619 59.2271 7.89619 59.2821 7.89619H59.2746C68.1721 8.00869 75.3396 15.2487 75.3396 24.1587C75.3396 33.0887 68.1421 40.3387 59.2296 40.4237H59.2221C58.0896 40.4087 56.9921 40.2912 55.9296 40.0812L56.0446 40.1012C54.0196 43.7487 50.1896 46.1762 45.7946 46.1762C45.7846 46.1762 45.7721 46.1762 45.7621 46.1762C43.8921 46.1587 42.1296 45.7287 40.5496 44.9762L40.6246 45.0087C38.5246 49.8662 33.7747 53.2037 28.2446 53.2037C22.4846 53.2037 17.5721 49.5837 15.6546 44.4937L15.6246 44.4012C14.9271 44.5537 14.1271 44.6412 13.3071 44.6412C13.2196 44.6412 13.1296 44.6412 13.0421 44.6387H13.0546C6.15465 44.6037 0.577148 39.0037 0.577148 32.1012C0.577148 32.0737 0.577148 32.0437 0.577148 32.0162V32.0212C0.577148 32.0187 0.577148 32.0187 0.577148 32.0162C0.577148 27.3812 3.06715 23.3262 6.78215 21.1162L6.83965 21.0837C6.07215 19.3987 5.62465 17.4312 5.62465 15.3587C5.62465 15.3487 5.62465 15.3387 5.62465 15.3312C5.63215 7.33369 12.1146 0.853691 20.1121 0.846191C20.1271 0.846191 20.1471 0.846191 20.1646 0.846191C24.8321 0.846191 28.9921 3.02619 31.6772 6.42369L31.6996 6.45369L31.7472 6.49869Z" fill="#0F0063"/>
</g>
</svg>
