<svg width="40" height="62" viewBox="0 0 40 62" fill="none" xmlns="http://www.w3.org/2000/svg">
<g id="SVGRepo_iconCarrier">
<path id="Vector" fill-rule="evenodd" clip-rule="evenodd" d="M8.61163 22.4529C3.8557 22.4529 0.000534058 26.3077 0.000534058 31.0634C0.000534058 35.8194 3.85587 39.6747 8.61163 39.6747H17.2227V31.237C17.222 31.1794 17.2217 31.1214 17.2217 31.0634C17.2217 31.0057 17.222 30.9477 17.2227 30.89V22.4529H8.61163ZM17.2227 17.4529H8.61163C3.85587 17.4529 0.000534058 13.5976 0.000534058 8.84181C0.000534058 4.08605 3.85587 0.230713 8.61163 0.230713H17.2227V17.4529ZM22.2227 0.230713V17.4528L30.8317 17.4524C35.5873 17.4524 39.444 13.5974 39.444 8.84181C39.444 4.08605 35.5887 0.230713 30.8327 0.230713H22.2227ZM30.832 22.4524C26.1227 22.4528 22.2963 26.2337 22.2227 30.9254V31.2014C22.2963 35.8937 26.123 39.6747 30.8327 39.6747C35.5887 39.6747 39.444 35.8194 39.444 31.0634C39.444 26.3077 35.5877 22.4524 30.832 22.4524ZM8.61163 44.6747C3.856 44.6747 0 48.5307 0 53.2867C0 58.0427 3.8553 61.898 8.6111 61.898C13.367 61.898 17.2223 58.0427 17.2223 53.2867L17.2227 44.6747H8.61163Z" fill="#0F0063"/>
</g>
</svg>
