<svg width="56" height="73" viewBox="0 0 56 73" fill="none" xmlns="http://www.w3.org/2000/svg">
<g id="SVGRepo_iconCarrier">
<g id="Layer_25">
<g id="Group">
<path id="Vector" d="M27.8076 72.5768C14.5629 72.5768 0.307617 69.4468 0.307617 62.5768C0.307617 61.1963 1.42712 60.0768 2.80762 60.0768C4.18087 60.0768 5.29412 61.1841 5.30762 62.5536C5.72512 63.9488 13.2129 67.5768 27.8076 67.5768C42.4464 67.5768 49.9354 63.9281 50.3114 62.5403C50.3114 61.1598 51.4284 60.0586 52.8101 60.0586C54.1906 60.0586 55.3076 61.1963 55.3076 62.5768C55.3076 69.4468 41.0524 72.5768 27.8076 72.5768Z" fill="#0F0063"/>
</g>
<g id="Group_2">
<path id="Vector_2" d="M27.8076 55.0768C14.5629 55.0768 0.307617 51.9468 0.307617 45.0768C0.307617 43.6963 1.42712 42.5768 2.80762 42.5768C4.18087 42.5768 5.29412 43.6841 5.30762 45.0536C5.72512 46.4488 13.2129 50.0768 27.8076 50.0768C42.4464 50.0768 49.9354 46.4281 50.3114 45.0403C50.3114 43.6598 51.4284 42.5586 52.8101 42.5586C54.1906 42.5586 55.3076 43.6963 55.3076 45.0768C55.3076 51.9468 41.0524 55.0768 27.8076 55.0768Z" fill="#0F0063"/>
</g>
<g id="Group_3">
<path id="Vector_3" d="M27.8076 37.5768C14.5629 37.5768 0.307617 34.4468 0.307617 27.5768C0.307617 26.1963 1.42712 25.0768 2.80762 25.0768C4.18087 25.0768 5.29412 26.1841 5.30762 27.5536C5.72512 28.9488 13.2129 32.5768 27.8076 32.5768C42.4464 32.5768 49.9354 28.9281 50.3114 27.5403C50.3114 26.1598 51.4284 25.0586 52.8101 25.0586C54.1906 25.0586 55.3076 26.1963 55.3076 27.5768C55.3076 34.4468 41.0524 37.5768 27.8076 37.5768Z" fill="#0F0063"/>
</g>
<g id="Group_4">
<path id="Vector_4" d="M27.8076 20.0769C14.5629 20.0769 0.307617 16.9469 0.307617 10.0769C0.307617 8.69637 1.42712 7.57687 2.80762 7.57687C4.17962 7.57687 5.29412 8.68287 5.30762 10.0524C5.73237 11.4489 13.2276 15.0769 27.8076 15.0769C42.4329 15.0769 49.9304 11.4269 50.3114 10.0391C50.3114 8.65862 51.4296 7.55737 52.8101 7.55737C54.1906 7.55737 55.3076 8.69637 55.3076 10.0769C55.3076 16.9469 41.0524 20.0769 27.8076 20.0769Z" fill="#0F0063"/>
</g>
<g id="Group_5">
<path id="Vector_5" d="M2.80512 12.5964C1.42462 12.5964 0.307617 11.4574 0.307617 10.0769C0.307617 3.2069 14.5629 0.0769043 27.8076 0.0769043C41.0524 0.0769043 55.3076 3.2069 55.3076 10.0769C55.3076 11.4574 54.1881 12.5769 52.8076 12.5769C51.4356 12.5769 50.3211 11.4709 50.3076 10.1014C49.8829 8.7049 42.3876 5.0769 27.8076 5.0769C13.1824 5.0769 5.68487 8.7269 5.30387 10.1147C5.30387 11.4954 4.18587 12.5964 2.80512 12.5964Z" fill="#0F0063"/>
</g>
<g id="Group_6">
<path id="Vector_6" d="M52.8076 65.0769C51.4271 65.0769 50.3076 63.9574 50.3076 62.5769V10.0769C50.3076 8.6964 51.4271 7.5769 52.8076 7.5769C54.1881 7.5769 55.3076 8.6964 55.3076 10.0769V62.5769C55.3076 63.9574 54.1881 65.0769 52.8076 65.0769Z" fill="#0F0063"/>
</g>
<g id="Group_7">
<path id="Vector_7" d="M2.80762 65.0769C1.42712 65.0769 0.307617 63.9574 0.307617 62.5769V10.0769C0.307617 8.6964 1.42712 7.5769 2.80762 7.5769C4.18812 7.5769 5.30762 8.6964 5.30762 10.0769V62.5769C5.30762 63.9574 4.18812 65.0769 2.80762 65.0769Z" fill="#0F0063"/>
</g>
</g>
</g>
</svg>
