<svg width="478" height="443" viewBox="0 0 478 443" fill="none" xmlns="http://www.w3.org/2000/svg">
<g id="OBJECTS">
<g id="Group">
<path id="Vector" d="M322.632 127.339H19.9939C12.3609 127.339 6.17285 133.527 6.17285 141.16V375.007C6.17285 382.64 12.3609 388.828 19.9939 388.828H322.632C330.265 388.828 336.453 382.64 336.453 375.007V141.16C336.453 133.527 330.265 127.339 322.632 127.339Z" fill="#F2F5F4"/>
<g id="Group_2">
<path id="Vector_2" d="M337.914 110.701H35.2761C27.6431 110.701 21.4551 116.889 21.4551 124.522V358.369C21.4551 366.002 27.6431 372.19 35.2761 372.19H337.914C345.547 372.19 351.735 366.002 351.735 358.369V124.521C351.735 116.888 345.547 110.701 337.914 110.701Z" fill="white" stroke="#F2F5F4" stroke-miterlimit="10"/>
<path id="Vector_3" d="M337.914 116.535H35.2761C27.6431 116.535 21.4551 122.723 21.4551 130.356V141.088H351.734V130.356C351.735 122.723 345.547 116.535 337.914 116.535Z" fill="#F2F5F4"/>
<path id="Vector_4" d="M337.914 110.701H35.2761C27.6431 110.701 21.4551 116.889 21.4551 124.522V135.254H351.734V124.522C351.735 116.888 345.547 110.701 337.914 110.701Z" fill="white"/>
<path id="Vector_5" d="M38.4348 127.152C40.7406 127.152 42.6098 125.283 42.6098 122.977C42.6098 120.671 40.7406 118.802 38.4348 118.802C36.129 118.802 34.2598 120.671 34.2598 122.977C34.2598 125.283 36.129 127.152 38.4348 127.152Z" fill="#D57548"/>
<path id="Vector_6" d="M59.2504 122.977C59.2504 125.283 57.3814 127.153 55.0754 127.153C52.7694 127.153 50.9004 125.283 50.9004 122.977C50.9004 120.671 52.7694 118.802 55.0754 118.802C57.3804 118.801 59.2504 120.671 59.2504 122.977Z" fill="#FFB72F"/>
<path id="Vector_7" d="M75.8891 122.977C75.8891 125.283 74.0201 127.153 71.7141 127.153C69.4081 127.153 67.5391 125.283 67.5391 122.977C67.5391 120.671 69.4081 118.802 71.7141 118.802C74.0201 118.802 75.8891 120.671 75.8891 122.977Z" fill="#AABC95"/>
</g>
<g id="Group_3">
<path id="Vector_8" d="M251.125 156.376H314.802" stroke="#F2F5F4" stroke-width="5" stroke-miterlimit="10" stroke-linecap="round" stroke-linejoin="round"/>
<path id="Vector_9" d="M251.125 168.728H314.802" stroke="#F2F5F4" stroke-width="5" stroke-miterlimit="10" stroke-linecap="round" stroke-linejoin="round"/>
<path id="Vector_10" d="M251.125 181.08H314.802" stroke="#F2F5F4" stroke-width="5" stroke-miterlimit="10" stroke-linecap="round" stroke-linejoin="round"/>
<path id="Vector_11" d="M251.125 193.432H314.802" stroke="#F2F5F4" stroke-width="5" stroke-miterlimit="10" stroke-linecap="round" stroke-linejoin="round"/>
<path id="Vector_12" d="M251.125 205.784H314.802" stroke="#F2F5F4" stroke-width="5" stroke-miterlimit="10" stroke-linecap="round" stroke-linejoin="round"/>
<path id="Vector_13" d="M46.1338 230.488H314.802" stroke="#F2F5F4" stroke-width="5" stroke-miterlimit="10" stroke-linecap="round" stroke-linejoin="round"/>
<path id="Vector_14" d="M46.1338 242.84H314.802" stroke="#F2F5F4" stroke-width="5" stroke-miterlimit="10" stroke-linecap="round" stroke-linejoin="round"/>
<path id="Vector_15" d="M46.1338 255.192H314.802" stroke="#F2F5F4" stroke-width="5" stroke-miterlimit="10" stroke-linecap="round" stroke-linejoin="round"/>
<path id="Vector_16" d="M46.1338 267.544H314.802" stroke="#F2F5F4" stroke-width="5" stroke-miterlimit="10" stroke-linecap="round" stroke-linejoin="round"/>
<path id="Vector_17" d="M46.1338 279.896H314.802" stroke="#F2F5F4" stroke-width="5" stroke-miterlimit="10" stroke-linecap="round" stroke-linejoin="round"/>
<path id="Vector_18" d="M159.945 299.828H256" stroke="#F2F5F4" stroke-width="5" stroke-miterlimit="10" stroke-linecap="round" stroke-linejoin="round"/>
<path id="Vector_19" d="M159.945 312.18H256" stroke="#F2F5F4" stroke-width="5" stroke-miterlimit="10" stroke-linecap="round" stroke-linejoin="round"/>
<path id="Vector_20" d="M159.945 324.532H256" stroke="#F2F5F4" stroke-width="5" stroke-miterlimit="10" stroke-linecap="round" stroke-linejoin="round"/>
<path id="Vector_21" d="M159.945 336.884H227.092" stroke="#F2F5F4" stroke-width="5" stroke-miterlimit="10" stroke-linecap="round" stroke-linejoin="round"/>
<path id="Vector_22" d="M159.945 349.236H227.092" stroke="#F2F5F4" stroke-width="5" stroke-miterlimit="10" stroke-linecap="round" stroke-linejoin="round"/>
<g id="Group_4">
<path id="Vector_23" d="M240.305 190.476C244.543 172.249 233.204 154.038 214.977 149.799C196.75 145.561 178.539 156.9 174.3 175.127C170.062 193.354 181.401 211.565 199.628 215.804C217.855 220.042 236.066 208.703 240.305 190.476Z" stroke="#F2F5F4" stroke-width="5" stroke-miterlimit="10" stroke-linecap="round" stroke-linejoin="round"/>
<path id="Vector_24" d="M207.299 148.907V182.789L232.177 205.784" stroke="#F2F5F4" stroke-width="5" stroke-miterlimit="10" stroke-linecap="round" stroke-linejoin="round"/>
</g>
<g id="Group_5">
<path id="Vector_25" d="M111.796 333.388C116.034 315.162 104.695 296.95 86.4683 292.712C68.2417 288.473 50.0302 299.813 45.7917 318.039C41.5532 336.266 52.8927 354.477 71.1193 358.716C89.3458 362.954 107.557 351.615 111.796 333.388Z" stroke="#F2F5F4" stroke-width="5" stroke-miterlimit="10" stroke-linecap="round" stroke-linejoin="round"/>
<path id="Vector_26" d="M78.7969 291.817V325.7L103.675 348.694" stroke="#F2F5F4" stroke-width="5" stroke-miterlimit="10" stroke-linecap="round" stroke-linejoin="round"/>
</g>
<path id="Vector_27" d="M326.81 296.237H265.737V350.433H326.81V296.237Z" stroke="#F2F5F4" stroke-width="5" stroke-miterlimit="10" stroke-linecap="round" stroke-linejoin="round"/>
<path id="Vector_28" d="M44.9316 155.691L100.592 209.888H44.9316V155.691Z" stroke="#F2F5F4" stroke-width="5" stroke-miterlimit="10" stroke-linecap="round" stroke-linejoin="round"/>
</g>
</g>
<g id="Group_6">
<g id="Group_7">
<g id="Group_8">
<path id="Vector_29" d="M442.317 104.326H311.796C304.163 104.326 297.975 110.514 297.975 118.147V195.499C297.975 203.132 304.163 209.32 311.796 209.32H442.318C449.951 209.32 456.139 203.132 456.139 195.499V118.147C456.138 110.513 449.951 104.326 442.317 104.326Z" fill="#F2F5F4"/>
<g id="Group_9">
<path id="Vector_30" d="M454.608 93.673H324.087C316.454 93.673 310.266 99.861 310.266 107.494V184.846C310.266 192.479 316.454 198.667 324.087 198.667H454.609C462.242 198.667 468.43 192.479 468.43 184.846V107.494C468.429 99.86 462.241 93.673 454.608 93.673Z" fill="white" stroke="#F1F1F3" stroke-miterlimit="10"/>
<path id="Vector_31" d="M454.608 99.507H324.087C316.454 99.507 310.266 105.695 310.266 113.328V124.06H468.429V113.328C468.429 105.695 462.241 99.507 454.608 99.507Z" fill="#F2F5F4"/>
<path id="Vector_32" d="M454.608 93.673H324.087C316.454 93.673 310.266 99.861 310.266 107.494V118.226H468.429V107.494C468.429 99.86 462.241 93.673 454.608 93.673Z" fill="white" stroke="#F1F1F3" stroke-miterlimit="10"/>
<g id="Group_10">
<path id="Vector_33" d="M379.143 105.949H400.361" stroke="#E3E9E7" stroke-width="5" stroke-miterlimit="10" stroke-linecap="round" stroke-linejoin="round"/>
<path id="Vector_34" d="M410.322 105.949H453.425" stroke="#E3E9E7" stroke-width="5" stroke-miterlimit="10" stroke-linecap="round" stroke-linejoin="round"/>
</g>
<path id="Vector_35" d="M331.421 105.949C331.421 108.255 329.552 110.124 327.246 110.124C324.94 110.124 323.07 108.255 323.07 105.949C323.07 103.643 324.94 101.774 327.246 101.774C329.552 101.774 331.421 103.643 331.421 105.949Z" fill="#D57548"/>
<path id="Vector_36" d="M348.061 105.949C348.061 108.255 346.191 110.124 343.885 110.124C341.579 110.124 339.71 108.255 339.71 105.949C339.71 103.643 341.579 101.774 343.885 101.774C346.191 101.774 348.061 103.643 348.061 105.949Z" fill="#FFB72F"/>
<path id="Vector_37" d="M364.7 105.949C364.7 108.255 362.831 110.124 360.525 110.124C358.219 110.124 356.35 108.255 356.35 105.949C356.35 103.643 358.219 101.774 360.525 101.774C362.83 101.774 364.7 103.643 364.7 105.949Z" fill="#AABC95"/>
</g>
</g>
</g>
<g id="Group_11">
<path id="Vector_38" d="M333.09 173.072C363.393 139.912 393.258 173.072 393.258 173.072C424.574 138.669 453.426 173.072 453.426 173.072" stroke="#EAA105" stroke-miterlimit="10"/>
<g id="Group_12">
<path id="Vector_39" d="M333.09 173.072H453.426" stroke="#450000" stroke-miterlimit="10"/>
<path id="Vector_40" d="M453.426 166.684V176.753" stroke="#450000" stroke-miterlimit="10"/>
<path id="Vector_41" d="M333.09 166.684V176.753" stroke="#450000" stroke-miterlimit="10"/>
</g>
<path id="Vector_42" d="M454.72 156.739H452.129C451.222 156.739 450.486 157.475 450.486 158.382V160.973C450.486 161.88 451.221 162.616 452.129 162.616H454.72C455.627 162.616 456.363 161.881 456.363 160.973V158.382C456.363 157.474 455.628 156.739 454.72 156.739Z" stroke="#450000" stroke-miterlimit="10"/>
<path id="Vector_43" d="M334.384 156.739H331.793C330.886 156.739 330.15 157.475 330.15 158.382V160.973C330.15 161.88 330.885 162.616 331.793 162.616H334.384C335.291 162.616 336.027 161.881 336.027 160.973V158.382C336.027 157.474 335.292 156.739 334.384 156.739Z" stroke="#450000" stroke-miterlimit="10"/>
<path id="Vector_44" d="M394.552 177.383H391.961C391.054 177.383 390.318 178.118 390.318 179.026V181.617C390.318 182.524 391.054 183.26 391.961 183.26H394.552C395.459 183.26 396.195 182.525 396.195 181.617V179.026C396.195 178.119 395.46 177.383 394.552 177.383Z" stroke="#450000" stroke-miterlimit="10"/>
<path id="Vector_45" d="M393.257 189.125C398.119 189.125 402.06 185.184 402.06 180.322C402.06 175.46 398.119 171.519 393.257 171.519C388.395 171.519 384.454 175.46 384.454 180.322C384.454 185.184 388.395 189.125 393.257 189.125Z" stroke="#C43F00" stroke-miterlimit="10"/>
<g id="Group_13">
<g id="Group_14">
<path id="Vector_46" d="M335.357 147.452L334.14 145.57L332.958 147.441C332.741 147.785 332.362 147.994 331.955 147.994H331.432C330.466 147.994 329.905 146.902 330.468 146.117L332.402 143.418L330.553 140.788C330 140.002 330.563 138.92 331.523 138.92H332.045C332.439 138.92 332.807 139.116 333.028 139.442L334.217 141.202L335.369 139.454C335.589 139.121 335.961 138.921 336.359 138.921H336.7C337.666 138.921 338.227 140.015 337.663 140.8L335.863 143.303L337.872 146.121C338.432 146.906 337.87 147.996 336.906 147.996H336.353C335.951 147.994 335.576 147.79 335.357 147.452Z" fill="#AABC95"/>
</g>
<g id="Group_15">
<path id="Vector_47" d="M357.322 144.701V146.807C357.322 147.462 356.791 147.993 356.136 147.993H355.449C354.794 147.993 354.263 147.462 354.263 146.807V144.662L351.909 140.713C351.438 139.922 352.008 138.92 352.928 138.92H353.391C353.81 138.92 354.199 139.142 354.412 139.503L355.922 142.057L357.444 139.5C357.658 139.141 358.045 138.92 358.463 138.92H358.664C359.583 138.92 360.153 139.92 359.685 140.71L357.322 144.701Z" fill="#AABC95"/>
</g>
<g id="Group_16">
<path id="Vector_48" d="M378.438 146.808C378.438 147.463 377.907 147.994 377.252 147.994H371.543C370.748 147.994 370.103 147.349 370.103 146.554C370.103 146.27 370.205 145.996 370.39 145.781L374.251 141.292H371.419C370.764 141.292 370.233 140.761 370.233 140.106C370.233 139.451 370.764 138.92 371.419 138.92H376.791C377.586 138.92 378.231 139.565 378.231 140.36C378.231 140.644 378.129 140.918 377.944 141.133L374.083 145.622H377.252C377.907 145.622 378.438 146.153 378.438 146.808Z" fill="#AABC95"/>
</g>
<g id="Group_17">
<g id="Group_18">
<path id="Vector_49" d="M348.571 142.834H343.43C342.924 142.834 342.513 142.424 342.513 141.917V141.189C342.513 140.683 342.923 140.272 343.43 140.272H348.571C349.077 140.272 349.488 140.682 349.488 141.189V141.917C349.487 142.423 349.077 142.834 348.571 142.834Z" fill="#AABC95"/>
</g>
<g id="Group_19">
<path id="Vector_50" d="M348.571 146.962H343.43C342.924 146.962 342.513 146.552 342.513 146.045V145.317C342.513 144.811 342.923 144.4 343.43 144.4H348.571C349.077 144.4 349.488 144.81 349.488 145.317V146.045C349.487 146.552 349.077 146.962 348.571 146.962Z" fill="#AABC95"/>
</g>
</g>
<g id="Group_20">
<g id="Group_21">
<path id="Vector_51" d="M366.184 146.367L362.549 142.732C362.191 142.374 362.191 141.794 362.549 141.436L363.064 140.921C363.422 140.563 364.002 140.563 364.36 140.921L367.995 144.556C368.353 144.914 368.353 145.494 367.995 145.852L367.48 146.367C367.122 146.725 366.542 146.725 366.184 146.367Z" fill="#AABC95"/>
</g>
<g id="Group_22">
<path id="Vector_52" d="M362.549 144.556L366.184 140.921C366.542 140.563 367.122 140.563 367.48 140.921L367.995 141.436C368.353 141.794 368.353 142.374 367.995 142.732L364.36 146.367C364.002 146.725 363.422 146.725 363.064 146.367L362.549 145.852C362.191 145.494 362.191 144.914 362.549 144.556Z" fill="#AABC95"/>
</g>
</g>
</g>
<g id="Group_23">
<path id="Vector_53" d="M389.348 139.213H453.426" stroke="#E3E9E7" stroke-width="5" stroke-miterlimit="10" stroke-linecap="round" stroke-linejoin="round"/>
<path id="Vector_54" d="M389.348 149.042H421.387" stroke="#E3E9E7" stroke-width="5" stroke-miterlimit="10" stroke-linecap="round" stroke-linejoin="round"/>
</g>
</g>
</g>
<g id="Group_24">
<path id="Vector_55" d="M210.426 339.422H96.9036C71.6726 336.858 76.6266 309.076 105.045 295.866C105.726 295.531 106.431 295.219 107.147 294.919L199.514 291.362C201.107 292.24 202.782 293.233 204.468 294.341C204.56 294.399 204.641 294.457 204.734 294.514C221.985 305.889 241.28 328.071 210.426 339.422Z" fill="#C43F00"/>
<path id="Vector_56" d="M90.2686 372.189H222.133C213.642 327.652 196.983 303.937 196.983 303.937L116.449 299.141C97.3366 317.978 91.8106 351.38 90.2686 372.189Z" fill="black"/>
<path id="Vector_57" d="M260.935 274.007C257.315 302.808 204.063 305.598 213.153 265.133L260.935 274.007Z" fill="#B22900"/>
<path id="Vector_58" d="M256.727 261.914L223.373 292.704C212.488 281.448 172.117 222.061 164.549 194.298C161.312 182.413 167.738 170.001 179.347 165.858C184.165 164.143 189.233 164.09 193.87 165.442C198.919 166.916 203.446 170.029 206.611 174.552L256.727 261.914Z" fill="#B22900"/>
<g id="Group_25">
<path id="Vector_59" d="M301.71 199.505L293.534 205.311C291.796 206.546 289.386 206.137 288.151 204.399L283.26 197.512C282.026 195.774 282.434 193.364 284.172 192.129L292.348 186.323C294.086 185.089 296.496 185.497 297.731 187.235L302.622 194.122C303.857 195.86 303.449 198.27 301.71 199.505Z" fill="#450000"/>
<path id="Vector_60" d="M319.351 192.737C304.755 201.952 291.926 254.688 261.707 277.194C260.009 278.453 258.231 279.457 256.418 280.231C240.795 286.767 222.134 275.254 222.134 257.009L244.524 236.559L294.951 190.497L319.351 192.737Z" fill="#EFBFA9"/>
<path id="Vector_61" d="M256.419 280.231C240.796 286.767 222.135 275.254 222.135 257.009L244.525 236.559C229.98 263.853 237.885 284.016 256.396 280.219C256.407 280.219 256.407 280.219 256.419 280.231Z" fill="#ECB298"/>
<g id="Group_26">
<path id="Vector_62" d="M294.952 190.492L289.399 204.097C313.588 216.06 330.857 204.818 341.552 203.217L327.403 174.544L294.952 190.492Z" fill="#EFBFA9"/>
<path id="Vector_63" d="M336.12 187.46C335.585 187.799 335.099 188.242 334.712 188.787C334.607 188.937 334.514 189.079 334.429 189.234C333.503 190.822 333.53 192.756 334.402 194.286C334.728 194.879 335.181 195.408 335.738 195.839L339.25 198.561L344.217 202.394C344.931 202.941 345.736 203.264 346.557 203.376C347.713 203.542 348.89 203.296 349.888 202.662C350.423 202.323 350.902 201.868 351.289 201.323C352.704 199.324 352.421 196.62 350.706 194.941L350.698 194.929C350.606 194.837 350.503 194.753 350.399 194.669L342.125 187.834C342.048 187.766 341.96 187.705 341.872 187.645C340.128 186.366 337.843 186.366 336.12 187.46Z" fill="#EFBFA9"/>
<path id="Vector_64" d="M369.291 174.621C369.704 172.161 367.912 169.879 365.424 169.698L343.986 168.14L322.938 174.213L326.498 192.298L349.693 178.639L365.251 178.149C367.266 178.086 368.956 176.61 369.291 174.621Z" fill="#EFBFA9"/>
<path id="Vector_65" d="M322.938 174.213L327.249 172.969L343.556 175.834L346.311 180.631L325.489 192.348L322.938 174.213Z" fill="#E89076"/>
<path id="Vector_66" d="M347.105 210.079C346.066 211.505 344.309 212.331 342.429 212.091L331.789 210.657C329.056 210.284 327.091 207.8 327.373 205.051C327.458 204.265 327.73 203.539 328.119 202.898C328.188 202.768 328.261 202.668 328.334 202.567C328.395 202.483 328.468 202.382 328.546 202.311C329.669 200.946 331.469 200.203 333.333 200.534L343.907 202.305C345.406 202.575 346.664 203.491 347.366 204.748C347.468 204.925 347.558 205.119 347.648 205.313C347.965 206.006 348.105 206.801 348.025 207.616C347.935 208.552 347.606 209.391 347.105 210.079Z" fill="#EFBFA9"/>
<path id="Vector_67" d="M347.366 204.749C346.627 205.34 345.706 205.723 344.678 205.795L333.99 206.612C331.319 206.823 328.089 205.103 328.118 201.497C329.241 200.132 331.468 200.204 333.333 200.535L343.907 202.306C345.406 202.576 346.664 203.492 347.366 204.749Z" fill="#E89076"/>
<path id="Vector_68" d="M343.842 199.657C343.113 200.841 341.889 201.721 340.405 201.953L333.084 202.959C330.352 203.398 327.774 201.567 327.268 198.866C327.057 197.664 327.252 196.516 327.787 195.529C327.824 195.43 327.889 195.323 327.943 195.235C328.737 193.945 330.058 193.027 331.669 192.825L339.036 192.14C340.298 191.991 341.526 192.332 342.49 193.023C343.5 193.718 344.225 194.798 344.484 196.079C344.744 197.36 344.484 198.614 343.842 199.657Z" fill="#E89076"/>
<path id="Vector_69" d="M329.856 196.422C329.795 196.51 329.723 196.607 329.67 196.707C329.593 196.822 329.536 196.942 329.471 197.05L329.479 197.062C329.011 197.926 328.797 198.929 328.906 199.994C329.192 202.73 331.627 204.752 334.388 204.533L345.082 203.73C345.602 203.683 346.097 203.569 346.558 203.376C347.421 203.028 348.164 202.44 348.696 201.702C349.417 200.711 349.773 199.485 349.614 198.185C349.513 197.449 349.274 196.783 348.909 196.182C348.622 195.73 348.264 195.324 347.85 194.987C346.949 194.225 345.752 193.784 344.486 193.838L334.401 194.288L333.752 194.316C332.135 194.391 330.75 195.204 329.856 196.422Z" fill="#EFBFA9"/>
<path id="Vector_70" d="M334.493 194.228L333.845 194.256C332.227 194.333 330.842 195.145 329.948 196.363C329.887 196.451 329.815 196.548 329.762 196.648C329.685 196.763 329.627 196.883 329.562 196.991L329.571 197.003C330.644 198.956 332.944 200.031 335.217 199.488L339.342 198.503L348.286 196.36C348.533 196.303 348.785 196.227 349.002 196.122C349.707 195.841 350.302 195.413 350.799 194.881L350.792 194.869C350.7 194.777 350.597 194.693 350.493 194.609L342.219 187.774C342.142 187.706 342.054 187.645 341.965 187.585L334.522 189.176C333.595 190.764 333.622 192.697 334.493 194.228Z" fill="#E89076"/>
<path id="Vector_71" d="M335.535 179.979C334.786 180.454 334.158 181.12 333.726 181.961C332.46 184.432 333.396 187.456 335.811 188.79L338.843 190.467L345.212 193.96C346.165 194.489 347.227 194.665 348.226 194.531C348.946 194.457 349.635 194.203 350.253 193.811C351.002 193.336 351.622 192.658 352.035 191.813C353.172 189.507 352.341 186.7 350.137 185.382L347.146 183.613L343.978 181.722L340.907 179.904C339.18 178.866 337.115 178.976 335.535 179.979Z" fill="#EFBFA9"/>
<path id="Vector_72" d="M344.334 191.385C343.795 192.667 342.72 193.724 341.29 194.18L334.209 196.295C331.577 197.147 328.749 195.732 327.834 193.141C327.442 191.985 327.458 190.821 327.835 189.764C327.856 189.66 327.904 189.545 327.945 189.45C328.532 188.053 329.697 186.944 331.258 186.497L338.434 184.692C339.658 184.351 340.924 184.501 341.982 185.036C343.087 185.568 343.968 186.524 344.421 187.751C344.874 188.978 344.809 190.257 344.334 191.385Z" fill="#E89076"/>
<path id="Vector_73" d="M349.518 192.593C348.881 193.829 347.727 194.799 346.265 195.143L335.81 197.578C333.119 198.223 330.41 196.593 329.699 193.939C329.398 192.756 329.505 191.597 329.963 190.572C329.992 190.47 330.049 190.36 330.097 190.267C330.791 188.92 332.038 187.905 333.63 187.581L344.155 185.463C345.402 185.218 346.652 185.466 347.666 186.081C348.726 186.697 349.531 187.719 349.887 188.977C350.243 190.235 350.079 191.505 349.518 192.593Z" fill="#EFBFA9"/>
<g id="Group_27">
<g id="Group_28">
<path id="Vector_74" d="M300.971 193.063L324.727 179.356L341.144 182.623L335.363 190.84L328.591 191.509C328.591 191.509 318.435 211.517 300.971 193.063Z" fill="#E89076"/>
<path id="Vector_75" d="M341.143 182.623L345.221 191.435C346.107 193.35 345.293 195.622 343.392 196.538C341.703 197.352 339.674 196.836 338.579 195.314L335.361 190.84L341.143 182.623Z" fill="#E89076"/>
</g>
<g id="Group_29">
<path id="Vector_76" d="M294.952 190.492L322.938 174.214L342.33 178.003L335.539 187.726L327.547 188.544C327.548 188.542 315.643 212.202 294.952 190.492Z" fill="#EFBFA9"/>
<path id="Vector_77" d="M343.977 181.722L337.645 187.926L338.842 190.467L340.423 193.798C340.505 193.98 340.599 194.153 340.697 194.308C341.761 195.984 343.793 196.794 345.75 196.253C346.791 195.976 347.645 195.35 348.225 194.532C349.002 193.472 349.31 192.092 348.962 190.729L347.146 183.613L343.977 181.722Z" fill="#E89076"/>
<path id="Vector_78" d="M342.33 178.002L347.18 188.387C348.234 190.644 347.282 193.329 345.042 194.418C343.052 195.386 340.654 194.785 339.356 192.993L335.539 187.726L342.33 178.002Z" fill="#EFBFA9"/>
</g>
</g>
</g>
<path id="Vector_79" d="M294.437 189.899L308.312 210.677L303.835 217.66L286.913 195.911L294.437 189.899Z" fill="#450000"/>
</g>
<path id="Vector_80" d="M213.15 328.14L125.922 328.29L94.2363 328.348C94.2363 328.348 100.01 314.353 105.044 295.865C109.27 280.334 112.977 261.65 112.307 245.438C111.914 235.75 110.644 225.565 110.656 215.126C110.668 208.498 105.123 162.659 110.656 158.441C123.407 148.719 160.067 147.17 157.861 149.249L186.579 165.577C188.184 171.085 203.738 192.644 206.244 205.138C206.452 206.073 206.625 207.055 206.787 208.013C207.284 211.281 207.607 214.618 207.572 218.036C207.584 218.983 207.56 219.987 207.433 220.992C207.375 222.435 207.214 223.937 206.971 225.391C205.574 234.028 201.555 242.608 193.137 250.137L193.264 250.714L193.287 250.841L198.864 272.527L204.464 294.34L204.614 294.917L213.15 328.14Z" fill="#C43F00"/>
<path id="Vector_81" d="M204.733 294.515L204.617 294.919L129.086 317.563L125.922 328.29L123.74 335.669L117.909 339.422H96.9036C71.6726 336.858 76.6266 309.076 105.045 295.866C109.271 280.335 112.978 261.651 112.308 245.439C111.915 235.751 110.645 225.566 110.657 215.127L139.428 185.37L138.709 255.561L188.266 264.064L198.867 272.528L204.467 294.341C204.56 294.399 204.641 294.457 204.733 294.515Z" fill="#B22900"/>
<g id="Group_30">
<g id="Clip path group">
<mask id="mask0_111_4544" style="mask-type:luminance" maskUnits="userSpaceOnUse" x="110" y="148" width="98" height="170">
<g id="SVGID_00000116230230206192268910000006812562505516936112_">
<path id="Vector_82" d="M205.84 317.561L113.209 315.898C113.209 315.898 113.777 280.951 112.303 245.438C111.671 229.602 108.664 212.431 112.808 195.002C123.761 149.174 160.064 147.167 157.859 149.246L186.585 165.582C188.186 171.085 203.734 192.645 206.249 205.14C206.453 206.073 206.63 207.054 206.784 208.011C207.284 211.282 207.607 214.625 207.577 218.034C207.58 218.987 207.556 219.989 207.433 220.989C207.374 222.442 207.213 223.943 206.979 225.391C205.573 234.033 201.561 242.615 193.135 250.14L193.272 250.72L193.294 250.846L205.84 317.561Z" fill="white"/>
</g>
</mask>
<g mask="url(#mask0_111_4544)">
<g id="Group_31">
<path id="Vector_83" d="M159.135 226.54L142.779 252.086L126.423 226.54L142.779 200.995L159.135 226.54Z" stroke="#EAA105" stroke-miterlimit="10"/>
<path id="Vector_84" d="M191.67 226.54L175.314 252.086L158.958 226.54L175.314 200.995L191.67 226.54Z" stroke="#EAA105" stroke-miterlimit="10"/>
<path id="Vector_85" d="M224.204 226.54L207.848 252.086L191.492 226.54L207.848 200.995L224.204 226.54Z" stroke="#EAA105" stroke-miterlimit="10"/>
</g>
</g>
</g>
</g>
<g id="Group_32">
<path id="Vector_86" d="M208.279 97.152C218.839 97.152 227.399 88.5917 227.399 78.032C227.399 67.4723 218.839 58.912 208.279 58.912C197.719 58.912 189.159 67.4723 189.159 78.032C189.159 88.5917 197.719 97.152 208.279 97.152Z" fill="#450000"/>
<path id="Vector_87" d="M188.807 75.525C199.367 75.525 207.927 66.9647 207.927 56.405C207.927 45.8453 199.367 37.285 188.807 37.285C178.248 37.285 169.688 45.8453 169.688 56.405C169.688 66.9647 178.248 75.525 188.807 75.525Z" fill="#450000"/>
<path id="Vector_88" d="M163.808 82.4819C174.368 82.4819 182.928 73.9216 182.928 63.3619C182.928 52.8023 174.368 44.2419 163.808 44.2419C153.249 44.2419 144.688 52.8023 144.688 63.3619C144.688 73.9216 153.249 82.4819 163.808 82.4819Z" fill="#450000"/>
<path id="Vector_89" d="M139.821 75.037C132.1 94.815 134.832 107.406 147.304 115.627L159.119 102.735L152.053 71.722L139.821 75.037Z" fill="#450000"/>
<path id="Vector_90" d="M146.504 102.735L150.995 150.899L186.865 175.141L187.375 115.765L146.504 102.735Z" fill="#EFBFA9"/>
<path id="Vector_91" d="M140.643 116.198L149.144 131.046L154.463 119.729L140.643 116.198Z" fill="#450000"/>
<path id="Vector_92" d="M187.039 154.859C187.039 154.859 164.914 150.868 164.272 125.894L187.375 133.417L187.039 154.859Z" fill="#E89076"/>
<path id="Vector_93" d="M201.83 67.674C212.528 80.7909 213.933 98.0699 213.933 98.0699L202.332 99.9029L193.517 72.1159L201.83 67.674Z" fill="#450000"/>
<path id="Vector_94" d="M150.135 83.038L153.586 96.701L155.167 102.928L159.4 119.646C161.685 128.671 168.481 135.87 177.36 138.671L191.164 143.025C203.13 146.8 215.434 138.493 216.548 125.995C217.365 116.825 217.359 106.125 213.869 94.758C209.808 81.554 199.22 71.238 186.621 67.119L186.57 67.104L184.359 66.443L184.121 66.383C183.017 66.095 181.88 65.858 180.745 65.672C178.05 65.194 175.261 64.989 172.447 65.071L163.517 65.331C154.419 65.597 147.906 74.215 150.135 83.038Z" fill="#EFBFA9"/>
<path id="Vector_95" d="M212.989 115.736C219.412 115.736 224.618 109.964 224.618 102.844C224.618 95.7239 219.412 89.952 212.989 89.952C206.567 89.952 201.36 95.7239 201.36 102.844C201.36 109.964 206.567 115.736 212.989 115.736Z" stroke="white" stroke-miterlimit="10"/>
<g id="Group_33">
<path id="Vector_96" d="M208.614 105.557C208.929 108.831 207.975 111.601 206.482 111.745C204.989 111.889 203.523 109.351 203.208 106.077C202.892 102.803 203.847 100.033 205.34 99.889C206.833 99.746 208.298 102.283 208.614 105.557Z" fill="black"/>
<path id="Vector_97" d="M199.153 100.688C202.149 107.894 207.098 109.379 210.535 109.429C212.742 109.461 214.556 111.168 214.733 113.368C214.966 116.271 213.468 119.038 210.91 120.429L201.86 125.352C196.785 127.049 191.351 124.009 190.142 118.796L186.045 101.126L199.153 100.688Z" fill="#EFBFA9"/>
<g id="Group_34">
<path id="Vector_98" d="M205.201 124.191L204.65 123.176L210.633 119.922C212.988 118.642 214.371 116.087 214.156 113.414C214.002 111.499 212.441 110.034 210.526 110.006C206.797 109.952 201.704 108.33 198.619 100.91L199.686 100.467C202.53 107.309 207.16 108.803 210.543 108.852C213.057 108.889 215.105 110.811 215.308 113.323C215.559 116.451 213.94 119.44 211.185 120.938L205.201 124.191Z" fill="#E89076"/>
</g>
<path id="Vector_99" d="M188.748 108.517C189.063 111.79 188.109 114.561 186.616 114.705C185.123 114.849 183.657 112.311 183.342 109.037C183.026 105.763 183.981 102.993 185.474 102.849C186.967 102.706 188.432 105.243 188.748 108.517Z" fill="black"/>
<path id="Vector_100" d="M180.321 95.512C172.878 98.616 170.833 94.796 176.172 91.561C181.914 88.082 189.581 91.65 180.321 95.512Z" fill="#450000"/>
<path id="Vector_101" d="M201.768 92.025C195.962 91.083 197.574 87.429 202.43 87.372C207.654 87.312 208.992 93.198 201.768 92.025Z" fill="#450000"/>
<path id="Vector_102" d="M201.887 126.615L188.492 125.581C188.492 125.581 190 133.318 193.887 134.156C198.112 135.066 201.887 126.615 201.887 126.615Z" fill="white"/>
</g>
<path id="Vector_103" d="M183.561 121.669C189.983 121.669 195.19 115.897 195.19 108.777C195.19 101.657 189.983 95.8849 183.561 95.8849C177.138 95.8849 171.932 101.657 171.932 108.777C171.932 115.897 177.138 121.669 183.561 121.669Z" stroke="white" stroke-miterlimit="10"/>
<path id="Vector_104" d="M171.949 106.368L158.938 102.684" stroke="white" stroke-miterlimit="10"/>
<path id="Vector_105" d="M169.453 65.187C176.481 81.789 163.25 104.499 135.506 102.844C123.824 79.244 124.323 58.139 169.453 65.187Z" fill="#450000"/>
<path id="Vector_106" d="M159.918 104.691C132.057 66.413 117.586 127.027 158.535 123.848L159.918 104.691Z" fill="#EFBFA9"/>
<path id="Vector_107" d="M159.623 80.176L160.142 112.329L157.448 114.128L147.303 83.215L159.623 80.176Z" fill="#450000"/>
<path id="Vector_108" d="M161.157 68.6589C183.431 77.3829 203.724 70.1719 203.724 70.1719C203.724 70.1719 196.328 52.3639 161.157 68.6589Z" fill="#450000"/>
<path id="Vector_109" d="M133.004 72.308C133.004 60.989 120.505 66.415 129.086 73.744C114.033 71.711 125.428 90.378 132.359 83.85" fill="#450000"/>
</g>
<path id="Vector_110" d="M188.244 175.774C193.077 149.509 168.365 143.943 149.696 136.271L139.429 149.479L188.244 175.774Z" fill="white"/>
<g id="Group_35">
<path id="Vector_111" d="M100.325 251.043C120.045 247.23 138.191 252.756 128.488 272.24L98.4795 274.006L100.325 251.043Z" fill="#C43F00"/>
<path id="Vector_112" d="M95.9204 307.464C42.6674 321.232 51.2764 264.119 82.9774 255.561L95.9204 307.464Z" fill="#C43F00"/>
</g>
<path id="Vector_113" d="M98.3107 293.043L66.6057 297.709C60.9347 252.786 74.2537 203.792 104.078 164.27C111.042 155.041 123.938 152.728 133.674 158.963C142.069 164.34 145.827 174.669 142.851 184.183L98.3107 293.043Z" fill="#C43F00"/>
<g id="Group_36">
<g id="Group_37">
<path id="Vector_114" d="M255.821 228.235L253.347 225.107L253.338 225.123C253.052 224.786 252.656 224.532 252.15 224.465L204.62 218.188C203.231 218.005 201.846 218.553 200.96 219.639L149.902 282.158C149.008 283.253 149.571 284.907 150.948 285.228L183.691 292.862C185.033 293.175 186.442 292.783 187.429 291.821L252.712 228.235H255.821Z" fill="#E5EBEA"/>
<path id="Vector_115" d="M152.323 285.22L203.381 222.7C204.267 221.615 205.652 221.066 207.041 221.249L254.571 227.526C256.153 227.735 256.797 229.676 255.654 230.789L189.851 294.882C188.864 295.843 187.455 296.236 186.113 295.923L153.37 288.289C151.993 287.969 151.429 286.315 152.323 285.22Z" fill="white"/>
<path id="Vector_116" d="M212.453 258.691C216.799 254.733 218.61 249.644 216.497 247.322C214.383 245.001 209.146 246.328 204.8 250.285C200.453 254.243 198.643 259.332 200.756 261.654C202.869 263.975 208.106 262.648 212.453 258.691Z" fill="#E5EBEA"/>
<path id="Vector_117" d="M208.739 227.905C208.096 228.976 206.822 229.829 205.895 229.809C204.968 229.789 204.737 228.904 205.381 227.833C206.024 226.762 207.298 225.909 208.225 225.929C209.152 225.949 209.383 226.834 208.739 227.905Z" fill="#E5EBEA"/>
</g>
<g id="Group_38">
<path id="Vector_118" d="M188.088 287.594L231.328 258.083L175.787 262.267L171.079 280.864L188.088 287.594Z" fill="#EFBFA9"/>
<path id="Vector_119" d="M180.163 264.195L172.344 263.091C170.034 262.765 168.653 260.346 169.546 258.191L169.822 257.526C171.512 253.447 176.345 251.705 180.248 253.768C182.866 255.152 184.424 257.948 184.223 260.902C184.082 262.971 182.215 264.485 180.163 264.195Z" fill="#EFBFA9"/>
<path id="Vector_120" d="M197.335 263.853L231.324 258.09L231.729 257.089C233.316 253.154 236.548 250.122 240.572 248.799C241.217 248.579 241.631 247.971 241.616 247.322C241.614 247.22 241.594 247.117 241.575 247.015C240.966 244.309 238.548 242.483 235.881 242.543C235.437 242.553 234.994 242.631 234.535 242.744L232.515 243.44L232.311 243.513C228.832 244.72 226.177 247.551 225.197 251.096L198.215 263.456L197.335 263.853Z" fill="#EFBFA9"/>
<path id="Vector_121" d="M209.958 265.281L225.455 259.933C227.643 253.304 231.362 250.753 235.386 249.431C236.031 249.211 236.445 248.603 236.43 247.953C236.428 247.85 236.408 247.748 236.389 247.646C235.932 245.57 234.391 244.014 232.514 243.441L232.31 243.514C228.831 244.721 226.176 247.552 225.196 251.097L222.262 258.288L209.958 265.281Z" fill="#E89076"/>
<path id="Vector_122" d="M222.263 258.288L222.665 257.291C224.248 253.363 227.481 250.331 231.503 249.002C232.247 248.756 232.683 247.987 232.512 247.222C231.803 244.058 228.608 242.116 225.473 242.943L223.25 243.718C219.776 244.928 217.114 247.764 216.126 251.308L188.267 264.06L222.263 258.288Z" fill="#EFBFA9"/>
</g>
<path id="Vector_123" d="M108.956 265.279L177.463 272.216L188.089 287.594C188.089 287.594 141.251 311.097 97.3462 308.177C78.3592 306.914 71.7082 282.35 87.4902 271.717L89.9702 270.046C95.5472 266.288 102.264 264.602 108.956 265.279Z" fill="#EFBFA9"/>
</g>
<path id="Vector_124" d="M92.9355 345.102L171.527 356L175.824 328.354L98.9305 328.345L92.9355 345.102Z" fill="white"/>
<path id="Vector_125" d="M181.915 328.354L186.897 356L215.372 345.102L209.379 328.354H181.915Z" fill="white"/>
</g>
<g id="Group_39">
<g id="Group_40">
<g id="Group_41">
<path id="Vector_126" d="M244.201 401.331V442.287H452.439C457.512 442.287 461.831 438.836 463.448 434.008C463.899 432.689 464.142 431.263 464.142 429.771V413.847C464.142 412.269 463.866 410.763 463.367 409.372C461.689 404.674 457.425 401.331 452.439 401.331H244.201Z" fill="#B22900"/>
<path id="Vector_127" d="M345.615 409.372V434.007H463.447C463.898 432.688 464.141 431.262 464.141 429.77V413.846C464.141 412.268 463.865 410.762 463.366 409.371H345.615V409.372Z" fill="#C43F00"/>
<path id="Vector_128" d="M382.512 430.775C387.529 430.775 391.597 426.707 391.597 421.69C391.597 416.672 387.529 412.605 382.512 412.605C377.494 412.605 373.427 416.672 373.427 421.69C373.427 426.707 377.494 430.775 382.512 430.775Z" fill="#FFB72F"/>
<path id="Vector_129" d="M341.639 401.331H247.59V442.29H341.639C351.043 442.29 358.667 434.666 358.667 425.262V418.359C358.667 408.954 351.043 401.331 341.639 401.331Z" fill="#C43F00"/>
<path id="Vector_130" d="M241.901 401.331H259.852V407.467H241.901C240.316 407.467 239.032 406.093 239.032 404.399C239.033 402.704 240.317 401.331 241.901 401.331Z" fill="#C43F00"/>
<path id="Vector_131" d="M241.584 436.149H259.853V442.285H241.584C240.175 442.285 239.033 441.143 239.033 439.734V438.7C239.033 437.292 240.175 436.149 241.584 436.149Z" fill="#C43F00"/>
<g id="Group_42">
<path id="Vector_132" d="M339.38 407.471H244.201V436.15H339.38C345.965 436.15 351.303 430.812 351.303 424.227V419.394C351.303 412.809 345.965 407.471 339.38 407.471Z" fill="#E9EEEC"/>
<path id="Vector_133" d="M336.949 411.239H244.201V436.149H340.121C343.695 436.149 346.592 433.252 346.592 429.678V420.882C346.592 415.556 342.275 411.239 336.949 411.239Z" fill="white"/>
<g id="Group_43">
<g id="Clip path group_2">
<mask id="mask1_111_4544" style="mask-type:luminance" maskUnits="userSpaceOnUse" x="244" y="411" width="103" height="26">
<g id="SVGID_00000056425386576359722650000007853577225252171178_">
<path id="Vector_134" d="M340.343 411.239H244.201V436.149H342.2C344.626 436.149 346.592 434.182 346.592 431.756V417.488C346.592 414.037 343.794 411.239 340.343 411.239Z" fill="white"/>
</g>
</mask>
<g mask="url(#mask1_111_4544)">
<g id="Group_44">
<path id="Vector_135" d="M347.433 416.395H244.201" stroke="#F1F4F6" stroke-miterlimit="10"/>
<path id="Vector_136" d="M350.95 421.466H244.201" stroke="#F1F4F6" stroke-miterlimit="10"/>
<path id="Vector_137" d="M350.95 426.537H244.201" stroke="#F1F4F6" stroke-miterlimit="10"/>
<path id="Vector_138" d="M350.95 431.608H244.201" stroke="#F1F4F6" stroke-miterlimit="10"/>
</g>
</g>
</g>
</g>
</g>
</g>
<path id="Vector_139" d="M445.238 434.007H444.144H433.642C432.014 438.839 427.703 442.282 422.63 442.282H433.132H434.226H444.728C449.801 442.282 454.111 438.839 455.74 434.007H445.238Z" fill="#EAA105"/>
<path id="Vector_140" d="M444.729 401.329H434.227H433.133H422.631C427.62 401.329 431.868 404.669 433.559 409.369H444.061H445.155H455.657C453.966 404.669 449.718 401.329 444.729 401.329Z" fill="#EAA105"/>
<path id="Vector_141" d="M455.658 409.37H445.156H444.062H433.56C434.061 410.759 434.332 412.269 434.332 413.845V429.767C434.332 431.259 434.092 432.685 433.643 434.008H444.145H445.239H455.741C456.19 432.685 456.43 431.259 456.43 429.767V413.845C456.43 412.269 456.159 410.758 455.658 409.37Z" fill="#FFB72F"/>
<g id="Group_45">
<path id="Vector_142" d="M321.585 416.332V434.008L327.437 430.431L333.289 434.008V416.332" fill="#DEE5E3"/>
<path id="Vector_143" d="M317.196 430.431L323.832 426.854L328.9 430.431L333.289 416.332H321.585L317.196 430.431Z" fill="#EAA105"/>
</g>
</g>
<g id="Group_46">
<g id="Group_47">
<path id="Vector_144" d="M442.682 371.748V401.429H265.122C260.796 401.429 257.114 398.928 255.735 395.429C255.35 394.473 255.143 393.44 255.143 392.359V380.819C255.143 379.675 255.378 378.584 255.804 377.576C257.235 374.171 260.871 371.748 265.122 371.748H442.682Z" fill="#EAA105"/>
<path id="Vector_145" d="M356.209 377.575V395.429H255.736C255.351 394.473 255.144 393.44 255.144 392.359V380.819C255.144 379.675 255.379 378.584 255.805 377.576L356.209 377.575Z" fill="#FFB72F"/>
<path id="Vector_146" d="M329.979 389.447H267.495C266.143 389.447 265.046 388.351 265.046 386.998V386.005C265.046 384.653 266.142 383.556 267.495 383.556H329.979C331.331 383.556 332.428 384.652 332.428 386.005V386.998C332.428 388.351 331.331 389.447 329.979 389.447Z" fill="#C43F00"/>
<path id="Vector_147" d="M357.418 371.747H439.79V401.431H357.418C350.602 401.431 345.077 395.906 345.077 389.091V384.088C345.078 377.272 350.603 371.747 357.418 371.747Z" fill="#FFB72F"/>
<path id="Vector_148" d="M444.642 371.747H429.336V376.194H444.642C445.993 376.194 447.088 375.198 447.088 373.97C447.088 372.743 445.993 371.747 444.642 371.747Z" fill="#FFB72F"/>
<path id="Vector_149" d="M445.24 396.981H429.336V401.428H445.24C446.261 401.428 447.089 400.6 447.089 399.579V398.83C447.088 397.809 446.261 396.981 445.24 396.981Z" fill="#FFB72F"/>
<g id="Group_48">
<path id="Vector_150" d="M442.679 376.201V396.983H361.753C359.975 396.983 358.304 396.531 356.84 395.745C353.578 393.996 351.357 390.547 351.357 386.587C351.357 383.718 352.526 381.124 354.403 379.247C356.28 377.36 358.884 376.201 361.753 376.201H442.679Z" fill="#E9EEEC"/>
<path id="Vector_151" d="M442.679 378.932V396.982H361.753C359.975 396.982 358.304 396.53 356.84 395.744C355.936 394.909 355.376 393.71 355.376 392.383V390.88C355.376 384.277 360.721 378.932 367.324 378.932H442.679Z" fill="white"/>
<g id="Group_49">
<g id="Clip path group_3">
<mask id="mask2_111_4544" style="mask-type:luminance" maskUnits="userSpaceOnUse" x="355" y="378" width="88" height="19">
<g id="SVGID_00000092442787972010545020000017194434180998465686_">
<path id="Vector_152" d="M366.401 378.928H442.68V396.981H359.356C357.156 396.981 355.373 395.198 355.373 392.998V389.956C355.374 383.866 360.311 378.928 366.401 378.928Z" fill="white"/>
</g>
</mask>
<g mask="url(#mask2_111_4544)">
<g id="Group_50">
<path id="Vector_153" d="M354.657 382.665H442.68" stroke="#F1F4F6" stroke-miterlimit="10"/>
<path id="Vector_154" d="M351.658 386.34H442.68" stroke="#F1F4F6" stroke-miterlimit="10"/>
<path id="Vector_155" d="M351.658 390.015H442.68" stroke="#F1F4F6" stroke-miterlimit="10"/>
<path id="Vector_156" d="M351.658 393.69H442.68" stroke="#F1F4F6" stroke-miterlimit="10"/>
</g>
</g>
</g>
</g>
</g>
</g>
</g>
<g id="Group_51">
<g id="Group_52">
<path id="Vector_157" d="M453.164 331.021V371.749H257.805C251.104 371.749 245.149 368.507 241.445 363.515C238.929 360.125 237.436 355.92 237.436 351.38C237.436 346.831 238.929 342.635 241.445 339.245C242.044 338.449 242.693 337.692 243.4 336.985C247.085 333.3 252.184 331.021 257.805 331.021H453.164Z" fill="#450000"/>
<path id="Vector_158" d="M363.198 339.245V363.515H241.445C238.929 360.125 237.436 355.92 237.436 351.38C237.436 346.831 238.929 342.635 241.445 339.245H363.198Z" fill="#5E2222"/>
<path id="Vector_159" d="M348.35 331.017H449.553V371.748H348.35C338.998 371.748 331.417 364.167 331.417 354.815V347.95C331.417 338.598 338.998 331.017 348.35 331.017Z" fill="#5E2222"/>
<path id="Vector_160" d="M455.604 331.017H436.512V337.119H455.604C457.289 337.119 458.655 335.753 458.655 334.068C458.655 332.383 457.289 331.017 455.604 331.017Z" fill="#5E2222"/>
<path id="Vector_161" d="M456.118 365.642H436.512V371.744H456.118C457.519 371.744 458.655 370.608 458.655 369.207V368.179C458.655 366.777 457.519 365.642 456.118 365.642Z" fill="#5E2222"/>
<g id="Group_53">
<path id="Vector_162" d="M453.154 337.123V365.638H353.509C346.041 365.638 339.92 359.9 339.301 352.589C339.272 352.196 339.252 351.793 339.252 351.38C339.252 347.45 340.844 343.883 343.428 341.299C346.002 338.725 349.569 337.123 353.51 337.123H453.154Z" fill="#F2F5F4"/>
<path id="Vector_163" d="M453.154 341.741V365.638H353.509C346.041 365.638 339.92 359.9 339.301 352.589C339.566 349.73 340.834 347.165 342.75 345.239C344.912 343.077 347.899 341.741 351.2 341.741H453.154Z" fill="white"/>
<g id="Group_54">
<g id="Clip path group_4">
<mask id="mask3_111_4544" style="mask-type:luminance" maskUnits="userSpaceOnUse" x="339" y="337" width="115" height="29">
<g id="SVGID_00000105427537659478488290000014151865032150783361_">
<path id="Vector_164" d="M351.104 337.123H453.156V365.642H354.185C345.935 365.642 339.247 358.954 339.247 350.704V348.979C339.248 342.431 344.556 337.123 351.104 337.123Z" fill="white"/>
</g>
</mask>
<g mask="url(#mask3_111_4544)">
<g id="Group_55">
<path id="Vector_165" d="M343.364 344.091H453.157" stroke="#F1F4F6" stroke-miterlimit="10"/>
<path id="Vector_166" d="M339.623 349.769H453.157" stroke="#F1F4F6" stroke-miterlimit="10"/>
<path id="Vector_167" d="M339.623 355.447H453.157" stroke="#F1F4F6" stroke-miterlimit="10"/>
<path id="Vector_168" d="M339.623 361.126H453.157" stroke="#F1F4F6" stroke-miterlimit="10"/>
</g>
</g>
</g>
</g>
<path id="Vector_169" d="M371.732 344.091V363.512L365.301 359.582L358.871 363.512V344.091" fill="#DEE5E3"/>
<path id="Vector_170" d="M376.555 359.582L369.262 355.652L363.694 359.582L358.871 344.091H371.732L376.555 359.582Z" fill="#C43F00"/>
</g>
</g>
<path id="Vector_171" d="M289.483 371.749H267.07C260.369 371.749 254.414 368.507 250.71 363.515C248.195 360.125 246.701 355.92 246.701 351.38C246.701 346.831 248.195 342.635 250.71 339.245C251.309 338.449 251.958 337.692 252.665 336.985C256.35 333.3 261.449 331.021 267.07 331.021H289.483C283.863 331.021 278.763 333.301 275.078 336.985C274.37 337.692 273.722 338.449 273.123 339.245C270.608 342.635 269.114 346.831 269.114 351.38C269.114 355.92 270.608 360.125 273.123 363.515C276.827 368.507 282.782 371.749 289.483 371.749Z" fill="#B22900"/>
<path id="Vector_172" d="M304.498 371.749H294.829C288.128 371.749 282.173 368.507 278.469 363.515C275.954 360.125 274.46 355.92 274.46 351.38C274.46 346.831 275.953 342.635 278.469 339.245C279.068 338.449 279.717 337.692 280.424 336.985C284.109 333.3 289.208 331.021 294.829 331.021H304.498C298.878 331.021 293.778 333.301 290.093 336.985C289.386 337.692 288.737 338.449 288.138 339.245C285.623 342.635 284.129 346.831 284.129 351.38C284.129 355.92 285.622 360.125 288.138 363.515C291.842 368.507 297.797 371.749 304.498 371.749Z" fill="#B22900"/>
<path id="Vector_173" d="M269.114 351.38C269.114 355.92 270.608 360.125 273.123 363.515H250.71C248.195 360.125 246.701 355.92 246.701 351.38C246.701 346.831 248.195 342.635 250.71 339.245H273.123C270.608 342.635 269.114 346.831 269.114 351.38Z" fill="#C43F00"/>
<path id="Vector_174" d="M284.129 351.38C284.129 355.92 285.622 360.125 288.138 363.515H278.469C275.954 360.125 274.46 355.92 274.46 351.38C274.46 346.831 275.953 342.635 278.469 339.245H288.138C285.623 342.635 284.129 346.831 284.129 351.38Z" fill="#C43F00"/>
<path id="Vector_175" d="M344.823 371.749H335.154C328.453 371.749 322.498 368.507 318.794 363.515C316.279 360.125 314.785 355.92 314.785 351.38C314.785 346.831 316.278 342.635 318.794 339.245C319.393 338.449 320.042 337.692 320.749 336.985C324.434 333.3 329.533 331.021 335.154 331.021H344.823C339.203 331.021 334.103 333.301 330.418 336.985C329.711 337.692 329.062 338.449 328.463 339.245C325.948 342.635 324.454 346.831 324.454 351.38C324.454 355.92 325.947 360.125 328.463 363.515C332.167 368.507 338.122 371.749 344.823 371.749Z" fill="#B22900"/>
<path id="Vector_176" d="M324.454 351.38C324.454 355.92 325.947 360.125 328.463 363.515H318.794C316.279 360.125 314.785 355.92 314.785 351.38C314.785 346.831 316.278 342.635 318.794 339.245H328.463C325.947 342.635 324.454 346.831 324.454 351.38Z" fill="#C43F00"/>
</g>
</g>
<path id="Vector_177" d="M313.452 238.984H395.695C400.846 238.984 405.021 234.809 405.021 229.658C405.021 224.507 400.846 220.332 395.695 220.332H313.452C308.301 220.332 304.126 224.507 304.126 229.658C304.126 234.808 308.301 238.984 313.452 238.984Z" fill="#F2F5F4"/>
<g id="Group_56">
<path id="Vector_178" d="M314.462 327.682H396.082C401.79 327.682 406.418 323.054 406.418 317.346V256.992C406.418 251.284 401.79 246.656 396.082 246.656H314.462C308.754 246.656 304.126 251.284 304.126 256.992V317.346C304.126 323.054 308.754 327.682 314.462 327.682Z" fill="#F2F5F4"/>
<g id="Group_57">
<path id="Vector_179" d="M329.431 322.008H411.051C416.76 322.008 421.387 317.38 421.387 311.672V251.318C421.387 245.609 416.759 240.982 411.051 240.982H329.431C323.723 240.982 319.095 245.61 319.095 251.318V311.672C319.095 317.381 323.722 322.008 329.431 322.008Z" fill="white" stroke="#F1F1F3" stroke-miterlimit="10"/>
<g id="Group_58">
<path id="Vector_180" d="M328.421 233.31H410.664C415.815 233.31 419.99 229.135 419.99 223.984C419.99 218.834 415.815 214.658 410.664 214.658H328.421C323.27 214.658 319.095 218.833 319.095 223.984C319.095 229.135 323.27 233.31 328.421 233.31Z" fill="white" stroke="#F1F1F3" stroke-miterlimit="10"/>
<path id="Vector_181" d="M334.868 223.984C334.868 226.29 332.999 228.16 330.693 228.16C328.387 228.16 326.517 226.291 326.517 223.984C326.517 221.678 328.387 219.809 330.693 219.809C332.999 219.809 334.868 221.678 334.868 223.984Z" fill="#D57548"/>
<path id="Vector_182" d="M351.507 223.984C351.507 226.29 349.637 228.16 347.331 228.16C345.025 228.16 343.156 226.291 343.156 223.984C343.156 221.678 345.025 219.809 347.331 219.809C349.637 219.809 351.507 221.678 351.507 223.984Z" fill="#FFB72F"/>
<path id="Vector_183" d="M368.147 223.984C368.147 226.29 366.278 228.16 363.972 228.16C361.666 228.16 359.796 226.291 359.796 223.984C359.796 221.678 361.665 219.809 363.972 219.809C366.279 219.809 368.147 221.678 368.147 223.984Z" fill="#AABC95"/>
</g>
<g id="Group_59">
<path id="Vector_184" d="M331.396 257.331H407.687" stroke="#E3E9E7" stroke-width="5" stroke-miterlimit="10" stroke-linecap="round" stroke-linejoin="round"/>
<path id="Vector_185" d="M331.396 266.588H374.178" stroke="#E3E9E7" stroke-width="5" stroke-miterlimit="10" stroke-linecap="round" stroke-linejoin="round"/>
</g>
</g>
<g id="Group_60">
<path id="Vector_186" d="M345.721 299.245H333.729V311.238H345.721V299.245Z" stroke="#FFB72F" stroke-width="3" stroke-miterlimit="10"/>
<path id="Vector_187" d="M333.729 311.238V276.068L406.165 311.238H333.729Z" stroke="#6B70DA" stroke-width="3" stroke-miterlimit="10" stroke-linejoin="round"/>
</g>
</g>
<g id="Group_61">
<g id="Group_62">
<g id="Group_63">
<g id="Group_64">
<path id="Vector_188" d="M293.813 127.669C293.135 127.657 292.467 127.664 291.808 127.691" stroke="#6B70DA" stroke-miterlimit="10"/>
<path id="Vector_189" d="M289.733 127.842C264.36 130.507 254.137 162.339 265.866 179.831" stroke="#6B70DA" stroke-miterlimit="10" stroke-dasharray="4.15 2.08"/>
<path id="Vector_190" d="M266.453 180.668C266.846 181.205 267.26 181.727 267.697 182.233" stroke="#6B70DA" stroke-miterlimit="10"/>
</g>
</g>
<path id="Vector_191" d="M262.499 181.201C263.057 178.395 265.783 176.572 268.589 177.13C271.395 177.687 273.217 180.413 272.66 183.219C272.103 186.025 269.376 187.849 266.57 187.291H266.569C263.764 186.733 261.942 184.007 262.499 181.201Z" fill="#EAA105" stroke="#6B70DA"/>
</g>
<g id="Group_65">
<g id="Group_66">
<g id="Group_67">
<path id="Vector_192" d="M429.43 262.908C430.092 263.053 430.749 263.177 431.4 263.28" stroke="#6B70DA" stroke-miterlimit="10"/>
<path id="Vector_193" d="M433.464 263.54C458.866 265.91 475.142 236.705 467.076 217.251" stroke="#6B70DA" stroke-miterlimit="10" stroke-dasharray="4.15 2.08"/>
<path id="Vector_194" d="M466.666 216.315C466.386 215.711 466.082 215.118 465.753 214.536" stroke="#6B70DA" stroke-miterlimit="10"/>
</g>
</g>
<path id="Vector_195" d="M461.08 212.593C462.178 209.952 465.21 208.701 467.852 209.797C470.493 210.895 471.745 213.927 470.647 216.569C469.549 219.211 466.519 220.463 463.877 219.365C461.235 218.267 459.983 215.235 461.08 212.593Z" fill="#AABC95" stroke="#6B70DA"/>
</g>
<g id="Group_68">
<g id="Group_69">
<g id="Group_70">
<path id="Vector_196" d="M373.367 81.506C373.577 80.862 373.766 80.221 373.933 79.583" stroke="#6B70DA" stroke-miterlimit="10"/>
<path id="Vector_197" d="M374.398 77.554C379.29 52.515 351.856 33.407 331.693 39.491" stroke="#6B70DA" stroke-miterlimit="10" stroke-dasharray="4.15 2.08"/>
<path id="Vector_198" d="M330.721 39.807C330.092 40.025 329.471 40.268 328.86 40.538" stroke="#6B70DA" stroke-miterlimit="10"/>
</g>
</g>
<path id="Vector_199" d="M333.918 43.124C332.431 45.886 328.987 46.92 326.224 45.434C323.462 43.947 322.428 40.503 323.914 37.74C325.401 34.978 328.845 33.944 331.608 35.43C334.371 36.917 335.405 40.362 333.918 43.124Z" fill="#6B70DA"/>
</g>
</g>
<g id="Group_71">
<g id="Group_72">
<path id="Vector_200" d="M70.7607 84.556H92.5747" stroke="#D7E0DD" stroke-width="5" stroke-miterlimit="10" stroke-linecap="round" stroke-linejoin="round"/>
<path id="Vector_201" d="M70.7607 95.738H82.9327" stroke="#D7E0DD" stroke-width="5" stroke-miterlimit="10" stroke-linecap="round" stroke-linejoin="round"/>
</g>
<g id="Group_73">
<path id="Vector_202" d="M265.395 77.978H340.437" stroke="#D7E0DD" stroke-width="5" stroke-miterlimit="10" stroke-linecap="round" stroke-linejoin="round"/>
<path id="Vector_203" d="M265.395 88.7599H292.538" stroke="#D7E0DD" stroke-width="5" stroke-miterlimit="10" stroke-linecap="round" stroke-linejoin="round"/>
</g>
<g id="Group_74">
<path id="Vector_204" d="M445.396 289.156H468.146" stroke="#D7E0DD" stroke-width="5" stroke-miterlimit="10" stroke-linecap="round" stroke-linejoin="round"/>
<path id="Vector_205" d="M434.769 289.156H437.783" stroke="#D7E0DD" stroke-width="5" stroke-miterlimit="10" stroke-linecap="round" stroke-linejoin="round"/>
<path id="Vector_206" d="M456.363 298.15H468.146" stroke="#D7E0DD" stroke-width="5" stroke-miterlimit="10" stroke-linecap="round" stroke-linejoin="round"/>
</g>
</g>
<g id="Group_75">
<path id="Vector_207" d="M269.555 1.38599H281.015C296.893 1.38599 309.766 14.2581 309.766 30.137C309.766 46.0158 296.894 58.8879 281.015 58.8879H228.659L240.687 44.552L240.804 44.4133V30.137C240.804 14.5063 253.277 1.78952 268.812 1.39575L269.555 1.38599Z" fill="#D7E0DD" stroke="#6B70DA"/>
<g id="Group_76">
<path id="Vector_208" d="M257.647 32.005C260.242 32.0051 262.347 34.1094 262.347 36.7042C262.347 39.2989 260.242 41.4033 257.647 41.4034C255.053 41.4034 252.949 39.3 252.949 36.7042C252.949 34.1083 255.053 32.005 257.647 32.005Z" fill="#F2F5F4" stroke="#6B70DA"/>
<path id="Vector_209" d="M275.318 32.005C277.914 32.0051 280.018 34.1094 280.018 36.7042C280.017 39.299 277.914 41.4033 275.318 41.4034C272.723 41.4034 270.619 39.3 270.619 36.7042C270.619 34.1084 272.723 32.005 275.318 32.005Z" fill="#F2F5F4" stroke="#6B70DA"/>
<path id="Vector_210" d="M292.988 32.005C295.584 32.0051 297.688 34.1094 297.688 36.7042C297.687 39.2989 295.583 41.4033 292.988 41.4034C290.393 41.4034 288.289 39.2999 288.289 36.7042C288.289 34.1084 290.392 32.005 292.988 32.005Z" fill="#F2F5F4" stroke="#6B70DA"/>
</g>
</g>
<g id="Group_77">
<g id="Group_78">
<path id="Vector_211" d="M221.554 399.705C226.007 399.705 229.617 403.316 229.617 407.769C229.617 412.223 226.007 415.833 221.554 415.833C217.1 415.833 213.489 412.223 213.489 407.769C213.489 403.316 217.1 399.705 221.554 399.705Z" fill="#D7E0DD" stroke="#6B70DA"/>
<path id="Vector_212" d="M420.918 62.29C423.73 62.29 426.009 64.5692 426.009 67.3808C426.009 70.1925 423.73 72.4716 420.918 72.4716C418.106 72.4715 415.827 70.1924 415.827 67.3808C415.827 64.5693 418.106 62.2901 420.918 62.29Z" fill="#D7E0DD" stroke="#6B70DA"/>
<path id="Vector_213" d="M29.2803 72.222C33.3257 72.2221 36.6055 75.5018 36.6055 79.5472C36.6054 83.5925 33.3256 86.8723 29.2803 86.8724C25.2349 86.8724 21.9552 83.5926 21.9551 79.5472C21.9551 75.5017 25.2348 72.222 29.2803 72.222Z" fill="#D7E0DD" stroke="#6B70DA"/>
<path id="Vector_214" d="M75.6592 398.173C78.0888 398.173 80.0576 400.143 80.0576 402.572C80.0574 405.002 78.0887 406.971 75.6592 406.971C73.2295 406.971 71.26 405.001 71.2598 402.572C71.2598 400.143 73.2293 398.173 75.6592 398.173Z" fill="#D7E0DD" stroke="#6B70DA"/>
</g>
<g id="Group_79">
<path id="Vector_215" d="M157.81 387.002C159.382 387.002 160.658 388.277 160.658 389.85C160.658 391.423 159.382 392.698 157.81 392.698C156.237 392.698 154.962 391.422 154.962 389.85C154.962 388.277 156.237 387.002 157.81 387.002Z" fill="#AABC95" stroke="#6B70DA"/>
<path id="Vector_216" d="M210.125 16.757C211.7 16.7573 212.978 18.0351 212.979 19.6105C212.979 21.1862 211.701 22.4648 210.125 22.465C208.549 22.465 207.271 21.1864 207.271 19.6105C207.271 18.0349 208.549 16.757 210.125 16.757Z" fill="#AABC95" stroke="#6B70DA"/>
<path id="Vector_217" d="M392.712 46.613C394.295 46.6132 395.577 47.8964 395.577 49.4783C395.577 51.0596 394.294 52.3424 392.712 52.3435C391.129 52.3435 389.847 51.061 389.847 49.4783C389.847 47.8955 391.13 46.613 392.712 46.613Z" fill="#AABC95" stroke="#6B70DA"/>
<path id="Vector_218" d="M5.92188 215.036C8.52071 215.036 10.6279 217.143 10.6279 219.742C10.6279 222.341 8.52069 224.448 5.92188 224.448C3.32303 224.448 1.21585 222.341 1.21582 219.742C1.21582 217.143 3.32302 215.036 5.92188 215.036Z" fill="#AABC95" stroke="#6B70DA"/>
<path id="Vector_219" d="M474.444 310.096C475.769 310.095 476.842 311.169 476.842 312.495C476.842 313.819 475.768 314.892 474.444 314.892C473.12 314.892 472.046 313.818 472.046 312.495C472.046 311.17 473.12 310.096 474.444 310.096Z" fill="#AABC95" stroke="#6B70DA"/>
</g>
<g id="Group_80">
<path id="Vector_220" d="M97.834 5.48199C103.785 5.4822 108.608 10.3066 108.608 16.2574C108.608 22.2079 103.785 27.0316 97.834 27.0318C91.8832 27.0318 87.0588 22.2081 87.0586 16.2574C87.0586 10.3065 91.8831 5.48199 97.834 5.48199Z" fill="#D7E0DD" stroke="#6B70DA"/>
<path id="Vector_221" d="M77.6417 45.6259C79.016 39.8359 84.8239 36.2564 90.614 37.6304C96.4039 39.0046 99.9835 44.8118 98.6097 50.6017C97.2357 56.3918 91.4282 59.9722 85.6382 58.5984C79.848 57.2243 76.2677 51.4161 77.6417 45.6259Z" fill="#D7E0DD" stroke="#6B70DA"/>
<path id="Vector_222" d="M122.209 26.6213C126.417 22.4137 133.239 22.4142 137.447 26.622C141.655 30.8297 141.655 37.6513 137.447 41.8591C133.239 46.0669 126.417 46.0674 122.209 41.8598C118.001 37.652 118.001 30.8291 122.209 26.6213Z" fill="#D7E0DD" stroke="#6B70DA"/>
<path id="Vector_223" d="M88.1221 48.114L97.8331 16.257" stroke="#6B70DA" stroke-width="5" stroke-miterlimit="10" stroke-linecap="round" stroke-linejoin="round"/>
<path id="Vector_224" d="M129.829 34.24L99.3975 16.257" stroke="#6B70DA" stroke-width="5" stroke-miterlimit="10" stroke-linecap="round" stroke-linejoin="round"/>
<path id="Vector_225" d="M88.1221 48.114L129.829 34.24" stroke="#6B70DA" stroke-width="5" stroke-miterlimit="10" stroke-linecap="round" stroke-linejoin="round"/>
</g>
</g>
</g>
</svg>
