<svg width="133" height="133" viewBox="0 0 133 133" fill="none" xmlns="http://www.w3.org/2000/svg">
<g id="Property 1=TechTrain">
<g id="Group">
<path id="Vector" opacity="0.3" d="M127.533 89.2028C114.511 120.389 79.3784 134.11 51.711 132.143C44.1566 131.606 28.9571 130.525 16.9768 119.515C-6.03048 98.3723 -3.01799 53.6125 18.4891 27.0422C21.2588 23.6205 40.4383 0.688541 70.7208 0.657868C92.8919 0.635399 108.589 12.9054 110.499 14.4346C112.91 16.3663 118.234 20.9611 123.066 28.2905C134.422 45.5119 135.67 69.7146 127.533 89.2028Z" fill="url(#paint0_linear_126_55945)"/>
<g id="Group_2">
<path id="Vector_2" d="M4.3128 38.3697H49.444C51.2736 38.3697 52.8029 36.9778 52.9746 35.1563L55.819 4.97924C56.0126 2.92521 54.4187 1.14019 52.356 1.10088L4.3803 0.187546C2.39573 0.149765 0.766602 1.74817 0.766602 3.73307V34.8235C0.766602 36.782 2.35427 38.3697 4.3128 38.3697Z" fill="url(#paint1_linear_126_55945)"/>
<path id="Vector_3" opacity="0.87" d="M52.9344 7.66892L50.9171 33.7633C50.8295 34.8968 49.8902 35.7755 48.7534 35.7874L5.43741 36.2412C4.2172 36.2539 3.22119 35.2683 3.22119 34.0481V5.95483C3.22119 4.7143 4.24926 3.72063 5.48912 3.7629L50.8224 5.30792C52.0701 5.35047 53.0306 6.42428 52.9344 7.66892Z" fill="white"/>
<path id="Vector_4" d="M29.8092 7.43017L5.38272 6.69954C5.13237 6.69205 4.92529 6.89298 4.92529 7.14348V7.53679C4.92529 7.7797 5.12045 7.97757 5.36331 7.98091L29.7898 8.31822C30.0374 8.32166 30.24 8.12183 30.24 7.8741C30.2401 7.63396 30.0492 7.43733 29.8092 7.43017Z" fill="url(#paint2_linear_126_55945)"/>
<path id="Vector_5" d="M30.24 9.92203V10.0896C30.24 10.3349 30.0412 10.5337 29.7959 10.5337H5.36941C5.12412 10.5337 4.92529 10.3349 4.92529 10.0896V9.92203C4.92529 9.67673 5.12417 9.47791 5.36941 9.47791H29.7959C30.0412 9.47791 30.24 9.67673 30.24 9.92203Z" fill="url(#paint3_linear_126_55945)"/>
<path id="Vector_6" d="M22.8262 12.112V12.1856C22.8262 12.4309 22.6273 12.6297 22.3821 12.6297H5.36941C5.12412 12.6297 4.92529 12.4309 4.92529 12.1856V11.8398C4.92529 11.5917 5.12851 11.3917 5.37657 11.3957L22.3892 11.6679C22.6316 11.6718 22.8262 11.8695 22.8262 12.112Z" fill="url(#paint4_linear_126_55945)"/>
<path id="Vector_7" d="M11.4013 25.6016C11.3371 25.6016 11.2729 25.5791 11.2216 25.5342L7.1793 22.0013C7.06577 21.9019 7.05413 21.7294 7.15345 21.6159C7.25267 21.5022 7.42526 21.4909 7.53889 21.5899L11.4078 24.9715L18.6766 19.0663C18.773 18.9879 18.9102 18.9847 19.0102 19.0579L26.1511 24.2879L36.1675 12.2717C36.2147 12.215 36.2826 12.18 36.356 12.1743C36.4278 12.1682 36.502 12.1926 36.5574 12.2411C36.5574 12.2411 45.1731 19.7957 46.2421 20.7309C46.3558 20.8301 46.3672 21.0027 46.268 21.1162C46.1685 21.2296 45.996 21.2412 45.8825 21.142C44.9129 20.2938 37.7348 14.0001 36.4078 12.8364L26.4065 24.8347C26.3141 24.9455 26.1517 24.9654 26.0353 24.8802L18.8574 19.6232L11.5735 25.5405C11.5233 25.5814 11.4623 25.6016 11.4013 25.6016Z" fill="url(#paint5_linear_126_55945)"/>
<path id="Vector_8" d="M36.2265 31.967C36.126 31.967 36.0444 31.8855 36.0444 31.7849V31.2386C36.0444 31.138 36.126 31.0566 36.2265 31.0566C36.3271 31.0566 36.4086 31.138 36.4086 31.2386V31.7849C36.4086 31.8855 36.3271 31.967 36.2265 31.967ZM36.2265 30.1461C36.126 30.1461 36.0444 30.0647 36.0444 29.964V29.4178C36.0444 29.3171 36.126 29.2357 36.2265 29.2357C36.3271 29.2357 36.4086 29.3171 36.4086 29.4178V29.964C36.4086 30.0647 36.3271 30.1461 36.2265 30.1461ZM36.2265 28.3253C36.126 28.3253 36.0444 28.2439 36.0444 28.1432V27.5969C36.0444 27.4963 36.126 27.4149 36.2265 27.4149C36.3271 27.4149 36.4086 27.4963 36.4086 27.5969V28.1432C36.4086 28.2439 36.3271 28.3253 36.2265 28.3253ZM36.2265 26.5044C36.126 26.5044 36.0444 26.423 36.0444 26.3223V25.7761C36.0444 25.6754 36.126 25.594 36.2265 25.594C36.3271 25.594 36.4086 25.6754 36.4086 25.7761V26.3223C36.4086 26.423 36.3271 26.5044 36.2265 26.5044ZM36.2265 24.6835C36.126 24.6835 36.0444 24.6021 36.0444 24.5015V23.9552C36.0444 23.8545 36.126 23.7731 36.2265 23.7731C36.3271 23.7731 36.4086 23.8545 36.4086 23.9552V24.5015C36.4086 24.6021 36.3271 24.6835 36.2265 24.6835ZM36.2265 22.8627C36.126 22.8627 36.0444 22.7813 36.0444 22.6806V22.1344C36.0444 22.0337 36.126 21.9523 36.2265 21.9523C36.3271 21.9523 36.4086 22.0337 36.4086 22.1344V22.6806C36.4086 22.7813 36.3271 22.8627 36.2265 22.8627ZM36.2265 21.0418C36.126 21.0418 36.0444 20.9604 36.0444 20.8598V20.3135C36.0444 20.2128 36.126 20.1314 36.2265 20.1314C36.3271 20.1314 36.4086 20.2128 36.4086 20.3135V20.8598C36.4086 20.9604 36.3271 21.0418 36.2265 21.0418ZM36.2265 19.221C36.126 19.221 36.0444 19.1396 36.0444 19.0389V18.4927C36.0444 18.392 36.126 18.3106 36.2265 18.3106C36.3271 18.3106 36.4086 18.392 36.4086 18.4927V19.0389C36.4086 19.1396 36.3271 19.221 36.2265 19.221ZM36.2265 17.4001C36.126 17.4001 36.0444 17.3187 36.0444 17.2181V16.6718C36.0444 16.5712 36.126 16.4897 36.2265 16.4897C36.3271 16.4897 36.4086 16.5712 36.4086 16.6718V17.2181C36.4086 17.3187 36.3271 17.4001 36.2265 17.4001ZM36.2265 15.5792C36.126 15.5792 36.0444 15.4978 36.0444 15.3972V14.8509C36.0444 14.7503 36.126 14.6688 36.2265 14.6688C36.3271 14.6688 36.4086 14.7503 36.4086 14.8509V15.3972C36.4086 15.4978 36.3271 15.5792 36.2265 15.5792Z" fill="url(#paint6_linear_126_55945)"/>
<path id="Vector_9" d="M26.1967 31.5195C26.0962 31.5195 26.0146 31.4381 26.0146 31.3374V30.7912C26.0146 30.6905 26.0962 30.6091 26.1967 30.6091C26.2973 30.6091 26.3788 30.6905 26.3788 30.7912V31.3374C26.3789 31.4381 26.2973 31.5195 26.1967 31.5195ZM26.1967 29.6987C26.0962 29.6987 26.0146 29.6172 26.0146 29.5166V28.9703C26.0146 28.8697 26.0962 28.7882 26.1967 28.7882C26.2973 28.7882 26.3788 28.8697 26.3788 28.9703V29.5166C26.3789 29.6172 26.2973 29.6987 26.1967 29.6987ZM26.1967 27.8778C26.0962 27.8778 26.0146 27.7964 26.0146 27.6957V27.1495C26.0146 27.0488 26.0962 26.9674 26.1967 26.9674C26.2973 26.9674 26.3788 27.0488 26.3788 27.1495V27.6957C26.3789 27.7963 26.2973 27.8778 26.1967 27.8778ZM26.1967 26.0569C26.0962 26.0569 26.0146 25.9755 26.0146 25.8748V25.3286C26.0146 25.2279 26.0962 25.1465 26.1967 25.1465C26.2973 25.1465 26.3788 25.2279 26.3788 25.3286V25.8748C26.3789 25.9755 26.2973 26.0569 26.1967 26.0569Z" fill="url(#paint7_linear_126_55945)"/>
<path id="Vector_10" d="M18.5879 32.107C18.5861 32.107 18.5841 32.107 18.5822 32.107C18.4817 32.1038 18.4027 32.0197 18.4059 31.9192L18.4228 31.3732C18.4258 31.2727 18.5035 31.1946 18.6105 31.1968C18.711 31.2 18.79 31.2841 18.7869 31.3845L18.7699 31.9306C18.7668 32.0291 18.6859 32.107 18.5879 32.107ZM18.6444 30.287C18.6426 30.287 18.6406 30.287 18.6386 30.287C18.5382 30.2838 18.4592 30.1997 18.4623 30.0993L18.4793 29.5532C18.4823 29.4529 18.5606 29.3784 18.667 29.3768C18.7675 29.38 18.8464 29.4641 18.8433 29.5645L18.8264 30.1106C18.8233 30.2092 18.7424 30.287 18.6444 30.287ZM18.7009 28.4671C18.699 28.4671 18.697 28.4671 18.6951 28.4671C18.5946 28.4639 18.5157 28.3798 18.5188 28.2793L18.5357 27.7332C18.5388 27.6328 18.6177 27.5526 18.7234 27.5568C18.8239 27.56 18.9028 27.6441 18.8997 27.7446L18.8827 28.2907C18.8797 28.3892 18.7988 28.4671 18.7009 28.4671ZM18.7574 26.6471C18.7555 26.6471 18.7536 26.6471 18.7517 26.6471C18.6511 26.6439 18.5722 26.56 18.5753 26.4593L18.5922 25.9133C18.5952 25.8128 18.6795 25.7363 18.7798 25.7369C18.8804 25.74 18.9593 25.824 18.9562 25.9246L18.9393 26.4707C18.9363 26.5692 18.8554 26.6471 18.7574 26.6471ZM18.8139 24.8271C18.812 24.8271 18.81 24.8271 18.8081 24.8271C18.7076 24.8239 18.6287 24.7398 18.6318 24.6394L18.6488 24.0933C18.6518 23.9929 18.7318 23.9107 18.8364 23.9169C18.9369 23.9201 19.0158 24.0042 19.0127 24.1047L18.9958 24.6507C18.9927 24.7492 18.9118 24.8271 18.8139 24.8271ZM18.8703 23.0072C18.8684 23.0072 18.8665 23.0072 18.8645 23.0072C18.7641 23.004 18.6851 22.9199 18.6882 22.8194L18.7052 22.2733C18.7083 22.1729 18.7889 22.0944 18.8929 22.0969C18.9933 22.1001 19.0723 22.1842 19.0692 22.2847L19.0522 22.8307C19.0492 22.9293 18.9683 23.0072 18.8703 23.0072ZM18.9268 21.1872C18.9249 21.1872 18.923 21.1872 18.921 21.1872C18.8205 21.184 18.7416 21.0999 18.7447 20.9995L18.7617 20.4534C18.7648 20.3531 18.8411 20.2782 18.9493 20.277C19.0498 20.2802 19.1288 20.3643 19.1256 20.4647L19.1087 21.0108C19.1057 21.1093 19.0248 21.1872 18.9268 21.1872Z" fill="url(#paint8_linear_126_55945)"/>
<path id="Vector_11" d="M11.3061 31.9944C11.2055 31.9944 11.124 31.913 11.124 31.8123V31.2661C11.124 31.1654 11.2055 31.084 11.3061 31.084C11.4067 31.084 11.4882 31.1654 11.4882 31.2661V31.8123C11.4882 31.913 11.4067 31.9944 11.3061 31.9944ZM11.3061 30.1736C11.2055 30.1736 11.124 30.0921 11.124 29.9915V29.4452C11.124 29.3446 11.2055 29.2632 11.3061 29.2632C11.4067 29.2632 11.4882 29.3446 11.4882 29.4452V29.9915C11.4882 30.0921 11.4067 30.1736 11.3061 30.1736ZM11.3061 28.3527C11.2055 28.3527 11.124 28.2713 11.124 28.1706V27.6244C11.124 27.5237 11.2055 27.4423 11.3061 27.4423C11.4067 27.4423 11.4882 27.5237 11.4882 27.6244V28.1706C11.4882 28.2713 11.4067 28.3527 11.3061 28.3527ZM11.3061 26.5319C11.2055 26.5319 11.124 26.4505 11.124 26.3498V25.8035C11.124 25.7029 11.2055 25.6215 11.3061 25.6215C11.4067 25.6215 11.4882 25.7029 11.4882 25.8035V26.3498C11.4882 26.4504 11.4067 26.5319 11.3061 26.5319Z" fill="url(#paint9_linear_126_55945)"/>
<g id="Group_3">
<path id="Vector_12" d="M46.9203 34.1779C46.9127 34.1779 46.9049 34.1775 46.8971 34.177C46.7467 34.1642 46.6352 34.032 46.648 33.8816L48.6958 9.69584C48.7084 9.54557 48.8398 9.43533 48.991 9.44673C49.1413 9.45952 49.2528 9.59166 49.2401 9.74207L47.1923 33.9278C47.1801 34.0703 47.0608 34.1779 46.9203 34.1779Z" fill="url(#paint10_linear_126_55945)"/>
<g id="Group_4">
<path id="Vector_13" d="M47.9536 10.725L48.9545 9.87971L49.7991 10.8812L49.8655 10.0976L49.0208 9.0968L48.02 9.94144L47.9536 10.725Z" fill="url(#paint11_linear_126_55945)"/>
</g>
</g>
<g id="Group_5">
<path id="Vector_14" d="M48.4701 33.0405H6.37276C6.22187 33.0405 6.09961 32.9182 6.09961 32.7674C6.09961 32.6166 6.22187 32.4943 6.37276 32.4943H48.4701C48.621 32.4943 48.7433 32.6166 48.7433 32.7674C48.7433 32.9182 48.621 33.0405 48.4701 33.0405Z" fill="url(#paint12_linear_126_55945)"/>
<g id="Group_6">
<path id="Vector_15" d="M7.46042 31.8412L6.53382 32.7673L7.46042 33.6933H6.67412L5.74805 32.7673L6.67412 31.8412H7.46042Z" fill="url(#paint13_linear_126_55945)"/>
</g>
</g>
</g>
<g id="Group_7">
<path id="Vector_16" d="M66.2243 122.332C66.2243 122.332 66.6084 124.506 66.7967 126.658C66.8703 127.499 66.2218 128.23 65.3781 128.265C62.5119 128.384 56.3809 128.617 54.1809 128.518C53.8502 128.504 53.6339 128.165 53.7563 127.857C53.8589 127.6 54.0567 127.391 54.3088 127.275L64.436 122.621L66.2243 122.332Z" fill="url(#paint14_linear_126_55945)"/>
<path id="Vector_17" d="M66.5397 121.054L66.2311 123.655C66.2311 123.655 64.4571 124.481 63.2456 123.551L63.9802 120.653L66.5397 121.054Z" fill="url(#paint15_linear_126_55945)"/>
<path id="Vector_18" d="M66.3074 72.1598C66.4408 72.8389 67.0229 106.052 63.4727 120.935C63.4148 121.178 63.5379 121.429 63.769 121.523C64.3135 121.746 65.381 122.068 66.6604 122.111C67.0565 122.124 67.4117 121.866 67.5235 121.486C68.5383 118.033 73.4011 100.731 74.0355 84.2032C74.7443 65.7349 74.0355 83.5744 74.0355 83.5744L73.6198 72.1584L66.3074 72.1598Z" fill="url(#paint16_linear_126_55945)"/>
<path id="Vector_19" d="M77.8741 123.466C77.8741 123.466 78.4854 124.564 79.0773 127.48C79.1842 128.007 78.8161 128.511 78.2812 128.564C77.3347 128.657 75.8778 128.777 74.7107 128.769C74.1727 128.765 73.7528 128.296 73.8177 127.762C73.9469 126.698 74.3496 124.951 75.5938 123.59L77.8741 123.466Z" fill="url(#paint17_linear_126_55945)"/>
<path id="Vector_20" d="M78.4111 120.121L77.69 124.054C77.69 124.054 76.9772 124.584 75.5669 124.2L75.911 119.968L78.4111 120.121Z" fill="url(#paint18_linear_126_55945)"/>
<path id="Vector_21" d="M80.3586 73.1791C83.2622 90.7024 79.7288 116.489 78.5371 121.537C78.4642 121.846 78.2148 122.082 77.9016 122.134C77.3696 122.222 76.4939 122.294 75.6305 122.044C75.333 121.957 75.124 121.689 75.1119 121.379C74.952 117.299 75.2398 92.2488 72.5343 82.3489C72.3972 81.8472 72.0908 81.4097 71.6669 81.1083L66.4158 77.3752L66.0132 71.3409L80.3586 73.1791Z" fill="url(#paint19_linear_126_55945)"/>
<g id="Group_8">
<path id="Vector_22" d="M61.857 39.9756C70.5585 39.8319 80.1595 42.2604 80.1595 42.2604C82.7533 57.3947 80.6131 74.8511 80.6131 74.8511C73.8767 76.6177 66.2775 73.771 66.2775 73.771C65.1579 67.4452 59.934 49.6424 59.934 49.6424C55.6825 49.1148 52.1801 47.8881 49.2959 46.2664C51.4959 43.7162 52.5331 40.4713 52.9835 38.5532C56.06 39.5093 59.1731 40.02 61.857 39.9756Z" fill="url(#paint20_linear_126_55945)"/>
<path id="Vector_23" d="M36.1543 27.1588C37.0091 26.1264 38.091 26.6148 38.091 26.6148C39.3715 32.0238 46.0856 36.4095 52.9834 38.5532C52.533 40.4713 51.4958 43.7162 49.2958 46.2663C37.8482 39.8298 36.1543 27.1588 36.1543 27.1588Z" fill="url(#paint21_linear_126_55945)"/>
</g>
<g id="Group_9">
<path id="Vector_24" d="M36.3619 27.4214C36.2725 27.7058 37.3082 28.1387 37.918 26.9758C37.9394 26.4185 38.2783 24.0307 37.9453 23.5767C36.1716 21.1585 32.7326 18.1271 32.7326 18.1271C32.1514 18.7005 32.6303 19.2639 32.6303 19.2639L34.2985 21.0018C33.9496 21.6324 33.524 22.1646 33.3245 22.9274C33.1734 23.5049 33.2658 24.1222 33.5575 24.6479C33.8504 25.1755 34.2499 25.8613 34.6276 26.398C35.3425 27.4138 36.3619 27.4214 36.3619 27.4214Z" fill="url(#paint22_linear_126_55945)"/>
<path id="Vector_25" d="M35.0286 22.1294L36.5489 23.4182L37.0262 24.7012L35.6707 26.205C35.6707 26.205 35.215 23.659 34.8762 23.108C34.5376 22.557 34.7132 22.2905 35.0286 22.1294Z" fill="url(#paint23_linear_126_55945)"/>
</g>
<path id="Vector_26" d="M76.8228 50.6861L80.1603 42.2605C80.1603 42.2605 88.2879 47.7829 89.6246 54.7847C88.0889 54.8978 85.2944 55.2973 82.559 56.6784C81.958 53.3722 76.8228 50.6861 76.8228 50.6861Z" fill="url(#paint24_linear_126_55945)"/>
<path id="Vector_27" d="M69.7199 58.6143C69.7199 58.6143 78.8451 63.7715 81.9242 59.3679C82.5635 58.4535 82.7163 57.5448 82.5588 56.6784C85.2942 55.2972 88.0887 54.8978 89.6244 54.7847C90.0274 56.8955 89.8144 59.1405 88.574 61.4095C83.1805 71.2755 68.5122 60.8642 68.5122 60.8642L69.7199 58.6143Z" fill="url(#paint25_linear_126_55945)"/>
<g id="Group_10">
<path id="Vector_28" d="M70.8164 65.1386L65.836 47.7465C65.7796 47.549 65.6111 47.405 65.4071 47.3812C64.5048 47.2761 61.8902 46.9804 58.8713 46.7251C55.235 46.4175 51.0122 46.1683 48.4888 46.3803C48.13 46.4104 47.9132 46.7899 48.0727 47.1126C49.5077 50.0157 55.4103 61.825 58.3661 65.6935C58.4641 65.8217 58.6155 65.8966 58.7768 65.8951L70.3318 65.7876C70.6681 65.7845 70.9089 65.4619 70.8164 65.1386Z" fill="url(#paint26_linear_126_55945)"/>
<path id="Vector_29" d="M58.3547 45.2172L54.744 44.6156C54.5516 44.5836 54.3942 44.7673 54.4553 44.9525L54.8127 46.0356C54.8439 46.1299 54.926 46.1981 55.0245 46.2112L58.4991 46.6754C58.6788 46.6993 58.8271 46.536 58.7858 46.3594L58.5645 45.4138C58.5406 45.312 58.4579 45.2345 58.3547 45.2172Z" fill="url(#paint27_linear_126_55945)"/>
<path id="Vector_30" d="M61.0588 48.2742L60.7613 46.7248C60.7315 46.5694 60.6032 46.452 60.4458 46.436L53.1529 45.696C52.9074 45.6711 52.7108 45.896 52.7684 46.1359L53.2321 48.0666C53.2693 48.2211 53.4037 48.3327 53.5624 48.3406L60.6891 48.6994C60.921 48.7111 61.1026 48.5023 61.0588 48.2742Z" fill="url(#paint28_linear_126_55945)"/>
<path id="Vector_31" d="M69.6126 60.9366C69.6126 60.9366 70.3063 58.0839 70.0265 57.0719C69.7466 56.0598 69.2044 54.7585 67.3972 55.0477C65.5899 55.3368 63.458 56.0982 63.458 56.0982C63.458 56.0982 63.5657 57.4164 64.9393 56.9911L64.0875 57.6502C64.0875 57.6502 64.2092 58.7057 65.3694 58.1418L64.5772 59.0159C64.5772 59.0159 65.0755 59.8828 65.9291 59.3268C66.7827 58.7707 67.1919 61.2802 69.6126 60.9366Z" fill="url(#paint29_linear_126_55945)"/>
</g>
<path id="Vector_32" d="M70.6712 32.9115L73.4398 40.9184C73.4857 41.051 73.4312 41.1979 73.3084 41.2658C72.5536 41.6831 69.8346 42.8892 66.5578 40.8117C66.2165 40.5952 65.9841 40.2423 65.9322 39.8414L65.0356 32.9115H70.6712Z" fill="url(#paint30_linear_126_55945)"/>
<g id="Group_11">
<path id="Vector_33" d="M64.6475 25.4968C64.6475 25.4968 61.6072 31.2199 61.9969 33.5317C62.3866 35.8435 66.1546 35.6775 69.4449 33.7999L71.7441 27.6204L64.6475 25.4968Z" fill="url(#paint31_linear_126_55945)"/>
<path id="Vector_34" d="M69.2993 30.7653C69.1656 30.7061 69.1163 30.5424 69.1964 30.4201C69.44 30.048 69.8966 29.2888 70.0422 28.6242C70.0422 28.6242 70.5888 28.2741 68.6512 27.8104C66.7135 27.3466 63.824 26.6267 63.2167 24.9774C62.6245 23.3694 64.1804 19.3255 66.6626 22.5476C66.757 22.6702 66.942 22.6729 67.0363 22.5502C67.4433 22.0206 68.5131 20.9213 69.9984 21.5877C71.3883 22.2114 71.5448 23.2299 71.5257 23.7433C71.5202 23.8943 71.6552 24.0117 71.8036 23.9834C72.5063 23.8494 74.1927 23.7343 74.9798 25.4641C75.6282 26.8891 75.2067 27.6957 74.823 28.0902C74.6986 28.218 74.7531 28.4285 74.9237 28.4806C75.3855 28.622 75.9819 29.0136 75.9222 30.0957C75.8397 31.5916 74.1672 31.4598 73.691 31.3916C73.6129 31.3804 73.5343 31.4072 73.4815 31.4656C73.0732 31.9175 71.2336 33.836 69.2427 34.0672C69.0703 34.0872 68.9367 33.917 68.9931 33.7529L69.8548 31.2482C69.8948 31.1319 69.8391 31.0043 69.7267 30.9545L69.2993 30.7653Z" fill="url(#paint32_linear_126_55945)"/>
<path id="Vector_35" d="M68.953 31.1208C68.953 31.1208 71.1177 29.6356 71.2759 30.8864C71.4341 32.1371 69.3266 32.698 68.2827 32.2317L68.953 31.1208Z" fill="url(#paint33_linear_126_55945)"/>
</g>
</g>
<g id="Group_12">
<path id="Vector_36" d="M25.4215 81.4382C22.3249 81.6249 22.2222 78.0272 22.4125 76.016C22.4654 75.4576 21.889 75.0565 21.383 75.2988L16.7835 77.5014C16.7835 77.5014 16.5672 82.8057 21.868 84.6883C23.2091 85.1645 24.4349 85.1856 25.5186 84.9526C25.0566 83.605 25.1505 82.3957 25.4215 81.4382Z" fill="url(#paint34_linear_126_55945)"/>
<path id="Vector_37" d="M33.5438 79.4183C31.9784 78.3294 30.205 79.4183 30.205 79.4183C28.1119 80.7871 26.5635 81.3693 25.4212 81.4382C25.1501 82.3957 25.0562 83.605 25.5183 84.9526C27.8631 84.4486 29.5406 82.7516 30.2696 81.881C30.532 81.5675 30.9967 81.513 31.3176 81.7663C31.6435 82.0236 31.9601 82.3761 31.9027 82.747C31.7895 83.4785 32.6383 83.7111 32.7024 83.4458C32.7664 83.1805 32.412 81.6078 32.412 81.6078C32.412 81.6078 34.1097 83.3149 34.7724 83.9709C35.4351 84.6269 36.2684 83.9709 36.2684 83.9709C36.2684 83.9709 35.1091 80.5071 33.5438 79.4183Z" fill="url(#paint35_linear_126_55945)"/>
<path id="Vector_38" d="M27.8525 85.7175L29.1154 85.5473L32.933 85.1603C33.3926 85.1137 33.8518 85.2525 34.2085 85.5459L37.1419 87.9577L28.3382 86.8226L27.8525 85.7175Z" fill="url(#paint36_linear_126_55945)"/>
<g id="Group_13">
<path id="Vector_39" d="M32.5986 128.588C29.478 128.588 28.0973 128.32 27.48 128.076C27.6 128.588 28.0564 128.993 28.6332 128.993H39.6727C40.0445 128.993 40.2792 128.637 40.1903 128.315C38.9319 128.416 36.2591 128.588 32.5986 128.588Z" fill="url(#paint37_linear_126_55945)"/>
<path id="Vector_40" d="M40.1906 128.315C40.1728 128.25 40.1464 128.186 40.1002 128.127C39.2593 127.053 37.57 125.367 35.2721 125.4C31.9058 125.447 30.7321 125.812 28.1161 125.42L27.499 127.466C27.4361 127.674 27.435 127.882 27.4803 128.076C28.0976 128.32 29.4783 128.588 32.5989 128.588C36.2595 128.588 38.9323 128.416 40.1906 128.315Z" fill="url(#paint38_linear_126_55945)"/>
</g>
<path id="Vector_41" d="M28.8737 123.216L28.1162 125.792C28.1162 125.792 29.7945 126.556 31.2705 125.943L31.5603 123.711L28.8737 123.216Z" fill="url(#paint39_linear_126_55945)"/>
<g id="Group_14">
<path id="Vector_42" d="M51.7551 126.965C49.3225 128.92 48.0793 129.577 47.4458 129.774C47.8588 130.097 48.4668 130.125 48.9164 129.763L57.5222 122.849C57.812 122.616 57.7731 122.193 57.503 121.998C56.5852 122.865 54.6087 124.672 51.7551 126.965Z" fill="url(#paint40_linear_126_55945)"/>
<path id="Vector_43" d="M57.5028 121.998C57.4483 121.959 57.388 121.926 57.3152 121.909C55.9904 121.603 53.6224 121.353 51.8512 122.817C49.2566 124.962 48.5693 125.981 46.2856 127.315L47.0797 129.289C47.1607 129.49 47.2896 129.652 47.4455 129.774C48.079 129.577 49.3222 128.92 51.7548 126.965C54.6084 124.672 56.5849 122.865 57.5028 121.998Z" fill="url(#paint41_linear_126_55945)"/>
</g>
<path id="Vector_44" d="M12.6685 93.8621C12.6685 93.8621 31.3513 95.3875 35.184 97.1918C39.0167 98.996 32.0564 124.283 32.0564 124.283C32.0564 124.283 31.013 124.785 28.6913 124.063C28.6913 124.063 31.0721 105.403 29.3005 101.356L9.07178 98.0475L12.6685 93.8621Z" fill="url(#paint42_linear_126_55945)"/>
<path id="Vector_45" d="M44.4297 123.763C44.6031 123.921 46.286 127.316 46.286 127.316C46.286 127.316 48.1594 126.91 48.5415 125.725L46.8557 122.661L44.4297 123.763Z" fill="url(#paint43_linear_126_55945)"/>
<path id="Vector_46" d="M1.41676 93.7059C1.41676 93.7059 0.807918 95.1709 0.832772 97.1177C0.867166 99.8101 3.03167 101.995 5.72087 102.129L27.8071 103.136C28.2735 103.158 28.6681 103.48 28.785 103.932C29.304 105.94 31.8409 112.105 44.2415 124.406C44.5713 124.733 45.0853 124.789 45.4783 124.541L47.2435 123.426C47.4288 123.309 47.488 123.066 47.3772 122.876L34.5175 100.917C33.842 99.8019 32.7563 98.9967 31.4936 98.6738L12.2309 91.2662L1.41676 93.7059Z" fill="url(#paint44_linear_126_55945)"/>
<path id="Vector_47" d="M17.1387 56.9247C17.1387 56.9247 15.5139 61.4477 13.479 63.8529L18.8636 65.7519C18.8636 65.7519 19.2223 61.1972 21.533 59.485L17.1387 56.9247Z" fill="url(#paint45_linear_126_55945)"/>
<path id="Vector_48" d="M1.11731 94.6355C1.11731 94.6355 7.23964 95.0596 12.6032 92.6654C12.6032 92.6654 13.9113 83.9711 16.3601 80.625C16.3601 80.625 15.4071 93.5693 30.7181 87.1129C30.297 86.8986 30.2958 86.7696 30.1779 86.3626C30.1277 86.1894 30.2137 85.3521 30.0338 85.3642C28.0483 85.4978 19.6052 87 22.3955 75.7014C23.4966 71.2428 20.5413 65.8274 17.8654 64.6536C16.1967 63.9217 15.1841 63.4002 14.6582 63.1114C14.3708 62.9535 14.0175 62.992 13.7703 63.2076C11.486 65.1997 0.892098 75.48 1.11731 94.6355Z" fill="url(#paint46_linear_126_55945)"/>
<g id="Group_15">
<path id="Vector_49" d="M21.207 51.3699C21.207 51.3699 23.0897 55.4136 23.2633 57.5566C23.4368 59.6995 23.9343 61.0803 21.4638 61.5749C18.9935 62.0695 16.8721 60.886 15.6859 58.7769C15.6859 58.7769 13.8287 55.5277 14.1928 54.1687C14.5568 52.8099 21.207 51.3699 21.207 51.3699Z" fill="url(#paint47_linear_126_55945)"/>
<path id="Vector_50" d="M16.4955 57.2187L16.8092 57.2108C16.8092 57.2108 15.45 54.5923 16.5739 54.098C17.6978 53.6037 22.1731 52.5731 23.1035 50.9525C24.0004 49.3902 23.1159 47.4236 21.8535 46.8988C21.7736 46.8656 21.6814 46.9051 21.643 46.9826L21.5445 47.1809C21.477 47.3167 21.2786 47.3013 21.2328 47.1568C21.1893 47.0197 21.0024 46.9943 20.9295 47.1182C20.6444 47.603 19.8595 48.3994 17.7119 48.852C14.6645 49.494 12.6717 50.784 12.6752 52.9011C12.6754 53.0352 12.534 53.1127 12.4177 53.0458C12.1883 52.9137 11.825 52.8582 11.3518 53.2769C10.5289 54.0049 10.919 55.8298 12.7998 57.2918C12.8892 57.3613 12.8919 57.498 12.7986 57.5621C12.47 57.788 11.9851 58.318 13.2929 58.9754C14.6307 59.6478 15.41 59.5512 15.7029 59.4684C15.7818 59.446 15.8333 59.3724 15.8261 59.2908L15.6631 57.4187C15.6547 57.3218 15.7297 57.238 15.8268 57.2355L16.4955 57.2187Z" fill="url(#paint48_linear_126_55945)"/>
<path id="Vector_51" d="M16.5822 57.609C16.5822 57.609 15.8375 55.0144 14.6849 55.7761C13.5325 56.5379 15.3663 58.6872 16.3101 58.7612L16.5822 57.609Z" fill="url(#paint49_linear_126_55945)"/>
</g>
</g>
<g id="Group_16">
<g id="Group_17">
<g id="Group_18" opacity="0.3">
<path id="Vector_52" d="M96.375 17.6344C96.1771 17.6344 96.0072 17.4848 95.9861 17.2837C95.94 16.8438 95.9124 16.3954 95.9039 15.9509C95.8998 15.7346 96.0717 15.556 96.2879 15.5518C96.2904 15.5518 96.293 15.5518 96.2955 15.5518C96.5082 15.5518 96.6827 15.7222 96.6868 15.9359C96.6948 16.3581 96.7211 16.7841 96.7649 17.202C96.7875 17.417 96.6314 17.6097 96.4162 17.6322C96.4024 17.6338 96.3887 17.6344 96.375 17.6344ZM96.4003 14.2234C96.385 14.2234 96.3695 14.2225 96.3539 14.2207C96.1392 14.1953 95.9856 14.0006 96.011 13.7859C96.0633 13.3448 96.1349 12.9016 96.2238 12.4686C96.2673 12.2567 96.4735 12.1208 96.6862 12.1637C96.898 12.2073 97.0344 12.4144 96.9909 12.6261C96.9063 13.0377 96.8383 13.4587 96.7887 13.8779C96.7652 14.0771 96.596 14.2234 96.4003 14.2234ZM97.1759 10.9028C97.1323 10.9028 97.088 10.8955 97.0446 10.88C96.8409 10.8074 96.7345 10.5835 96.8071 10.3798C96.9558 9.96222 97.1246 9.54591 97.3087 9.14243C97.3986 8.94575 97.6309 8.85931 97.8275 8.9488C98.0242 9.03858 98.1109 9.2709 98.0211 9.46758C97.8462 9.85069 97.686 10.2459 97.5447 10.6425C97.4877 10.8028 97.3369 10.9028 97.1759 10.9028ZM98.675 7.8384C98.603 7.8384 98.5301 7.81851 98.4649 7.77691C98.2825 7.66066 98.229 7.41857 98.3453 7.23624C98.5839 6.86229 98.8414 6.49416 99.1108 6.14206C99.2423 5.97062 99.4879 5.93789 99.6597 6.06912C99.8314 6.2005 99.864 6.44627 99.7327 6.61805C99.4768 6.9524 99.2321 7.30202 99.0055 7.65746C98.9308 7.77448 98.8043 7.8384 98.675 7.8384ZM100.82 5.18527C100.719 5.18527 100.618 5.14639 100.541 5.06887C100.389 4.91503 100.391 4.66711 100.544 4.51522C100.859 4.20429 101.192 3.90237 101.533 3.6182C101.699 3.47962 101.946 3.50195 102.084 3.6682C102.223 3.8343 102.2 4.08117 102.034 4.21975C101.71 4.48985 101.394 4.77678 101.095 5.07226C101.018 5.14763 100.919 5.18527 100.82 5.18527ZM103.498 3.07281C103.367 3.07281 103.239 3.00736 103.165 2.88805C103.051 2.70435 103.107 2.46301 103.291 2.34876C103.667 2.11478 104.058 1.89391 104.453 1.69265C104.646 1.59443 104.881 1.67109 104.98 1.86381C105.078 2.05634 105.001 2.29219 104.809 2.39041C104.433 2.58175 104.062 2.79141 103.704 3.0138C103.64 3.05382 103.568 3.07281 103.498 3.07281ZM117.845 2.14058C117.791 2.14058 117.736 2.12928 117.684 2.10543C117.301 1.9314 116.905 1.77169 116.507 1.63097C116.304 1.55879 116.197 1.33501 116.269 1.13132C116.341 0.927434 116.565 0.820672 116.769 0.892848C117.187 1.04106 117.604 1.20917 118.007 1.39235C118.204 1.48185 118.291 1.71402 118.202 1.91084C118.136 2.05524 117.994 2.14058 117.845 2.14058ZM106.575 1.60731C106.413 1.60731 106.261 1.50546 106.205 1.34331C106.135 1.13881 106.243 0.915985 106.448 0.845479C106.867 0.700937 107.297 0.572947 107.727 0.464946C107.937 0.413235 108.149 0.539412 108.202 0.749261C108.255 0.958966 108.127 1.17172 107.918 1.22448C107.509 1.32695 107.101 1.44855 106.703 1.58574C106.661 1.60025 106.617 1.60731 106.575 1.60731ZM114.601 1.08862C114.575 1.08862 114.549 1.08619 114.522 1.0808C114.11 0.996842 113.688 0.929723 113.269 0.880922C113.055 0.85583 112.901 0.661438 112.926 0.446724C112.951 0.232009 113.145 0.0770676 113.36 0.103066C113.801 0.154443 114.244 0.225141 114.678 0.313345C114.89 0.356469 115.027 0.563264 114.984 0.775116C114.946 0.960635 114.783 1.08862 114.601 1.08862ZM109.903 0.865943C109.705 0.865943 109.536 0.716821 109.514 0.515989C109.491 0.300941 109.647 0.108075 109.862 0.0849865C110.302 0.0380461 110.75 0.00942384 111.194 0.000264739C111.197 0.000121628 111.2 0.00012207 111.202 0.00012207C111.415 0.00012207 111.589 0.170043 111.594 0.383421C111.598 0.599709 111.427 0.778645 111.21 0.783082C110.789 0.791955 110.363 0.819145 109.945 0.863844C109.931 0.865179 109.917 0.865943 109.903 0.865943Z" fill="url(#paint50_linear_126_55945)"/>
<path id="Vector_53" d="M120.235 3.4999C120.158 3.4999 120.08 3.47729 120.012 3.42987C119.846 3.31457 119.675 3.20094 119.504 3.0917C119.322 2.97559 119.268 2.73349 119.384 2.55117C119.5 2.3687 119.742 2.31475 119.925 2.43129C120.105 2.54597 120.285 2.66561 120.459 2.78687C120.637 2.91028 120.68 3.15438 120.557 3.33179C120.481 3.44132 120.359 3.4999 120.235 3.4999Z" fill="url(#paint51_linear_126_55945)"/>
</g>
<g id="Group_19" opacity="0.3">
<path id="Vector_54" d="M126.595 13.6013C126.406 13.6013 126.24 13.4642 126.209 13.2717C126.177 13.0724 126.141 12.8704 126.1 12.6714C126.057 12.4594 126.194 12.2528 126.406 12.2098C126.619 12.1667 126.825 12.3039 126.868 12.5157C126.91 12.7252 126.949 12.938 126.982 13.1478C127.017 13.3613 126.871 13.5621 126.658 13.5964C126.637 13.5998 126.616 13.6013 126.595 13.6013Z" fill="url(#paint52_linear_126_55945)"/>
<path id="Vector_55" d="M111.555 31.275C111.375 31.275 111.194 31.272 111.013 31.2658C110.797 31.2585 110.627 31.0774 110.635 30.8613C110.642 30.6452 110.824 30.4751 111.039 30.4831C111.458 30.4972 111.877 30.4942 112.288 30.4741C112.504 30.4638 112.687 30.6299 112.698 30.8459C112.709 31.062 112.542 31.2457 112.326 31.2562C112.072 31.2687 111.812 31.275 111.555 31.275ZM108.956 31.0552C108.935 31.0552 108.912 31.0533 108.89 31.0495C108.459 30.976 108.027 30.8833 107.605 30.7741C107.396 30.7199 107.27 30.5063 107.324 30.297C107.378 30.0877 107.593 29.9613 107.801 30.0161C108.202 30.1198 108.613 30.2077 109.022 30.2778C109.235 30.3142 109.378 30.5165 109.342 30.7296C109.309 30.9205 109.144 31.0552 108.956 31.0552ZM114.372 31.0127C114.188 31.0127 114.023 30.8816 113.988 30.6936C113.948 30.481 114.088 30.2764 114.3 30.2363C114.707 30.1598 115.115 30.0649 115.515 29.9538C115.724 29.8963 115.939 30.0181 115.997 30.2264C116.055 30.4349 115.933 30.6507 115.725 30.7085C115.304 30.8254 114.873 30.9253 114.445 31.006C114.421 31.0105 114.396 31.0127 114.372 31.0127ZM105.729 30.1285C105.68 30.1285 105.629 30.1189 105.58 30.0988C105.177 29.9326 104.776 29.7471 104.388 29.5475C104.195 29.4485 104.12 29.2125 104.219 29.0202C104.318 28.8279 104.554 28.7522 104.746 28.8512C105.114 29.0407 105.495 29.2169 105.879 29.3748C106.079 29.4571 106.174 29.686 106.092 29.8859C106.029 30.037 105.883 30.1285 105.729 30.1285ZM117.58 30.0308C117.428 30.0308 117.284 29.9424 117.22 29.7945C117.134 29.596 117.226 29.3655 117.424 29.2797C117.804 29.1157 118.182 28.9331 118.548 28.737C118.738 28.6348 118.975 28.7065 119.078 28.8972C119.18 29.0877 119.108 29.3249 118.917 29.4271C118.532 29.6336 118.135 29.8258 117.735 29.9985C117.684 30.0204 117.632 30.0308 117.58 30.0308ZM120.494 28.3687C120.373 28.3687 120.254 28.3128 120.177 28.2074C120.05 28.0324 120.089 27.7875 120.264 27.6605C120.6 27.4166 120.929 27.1559 121.242 26.8855C121.406 26.744 121.653 26.7622 121.795 26.9261C121.936 27.09 121.918 27.3371 121.754 27.4785C121.424 27.7631 121.077 28.0375 120.724 28.294C120.655 28.3444 120.574 28.3687 120.494 28.3687ZM122.978 26.1108C122.885 26.1108 122.793 26.0786 122.719 26.0128C122.556 25.8698 122.541 25.6223 122.684 25.4602C122.959 25.149 123.223 24.8228 123.47 24.4906C123.599 24.3172 123.844 24.2809 124.018 24.4102C124.192 24.5393 124.228 24.7844 124.099 24.958C123.839 25.3075 123.56 25.6509 123.271 25.9783C123.194 26.066 123.086 26.1108 122.978 26.1108ZM124.909 23.3653C124.845 23.3653 124.78 23.3497 124.721 23.3168C124.531 23.2127 124.462 22.9747 124.566 22.7851C124.766 22.4216 124.952 22.0455 125.121 21.6671C125.208 21.4695 125.44 21.3805 125.637 21.4681C125.835 21.5559 125.924 21.7873 125.836 21.985C125.659 22.3835 125.463 22.7797 125.252 23.1623C125.181 23.292 125.047 23.3653 124.909 23.3653ZM126.191 20.2615C126.155 20.2615 126.119 20.2565 126.082 20.2461C125.875 20.1863 125.755 19.9692 125.814 19.7615C125.929 19.3639 126.028 18.9561 126.109 18.5493C126.151 18.3372 126.358 18.1996 126.569 18.2416C126.781 18.2836 126.919 18.4898 126.877 18.7019C126.792 19.1302 126.687 19.5595 126.567 19.9781C126.518 20.1498 126.361 20.2615 126.191 20.2615ZM126.759 16.9543C126.751 16.9543 126.743 16.9539 126.735 16.9535C126.519 16.9403 126.355 16.7547 126.368 16.5389C126.387 16.2342 126.396 15.9254 126.396 15.6207C126.396 15.5104 126.395 15.4003 126.392 15.2907C126.388 15.0744 126.559 14.8953 126.775 14.8907C126.994 14.8817 127.171 15.0574 127.175 15.2735C127.178 15.389 127.179 15.5046 127.179 15.6207C127.179 15.9411 127.169 16.2662 127.15 16.5866C127.137 16.7943 126.965 16.9543 126.759 16.9543Z" fill="url(#paint53_linear_126_55945)"/>
<path id="Vector_56" d="M102.779 28.5084C102.701 28.5084 102.622 28.4853 102.554 28.4373C102.38 28.3154 102.206 28.1875 102.036 28.0572C101.865 27.9257 101.832 27.6799 101.964 27.5083C102.095 27.3367 102.341 27.304 102.513 27.4357C102.674 27.5594 102.839 27.6809 103.004 27.7966C103.181 27.9209 103.224 28.1651 103.099 28.342C103.023 28.4505 102.902 28.5084 102.779 28.5084Z" fill="url(#paint54_linear_126_55945)"/>
</g>
<g id="Group_20">
<path id="Vector_57" d="M103.307 23.9668C103.356 24.0273 103.438 24.0498 103.512 24.0228L105.602 23.2541C106.426 23.8887 107.357 24.3966 108.37 24.7445L108.879 26.9112C108.897 26.9872 108.961 27.0435 109.039 27.0513L111.697 27.3206C111.775 27.3285 111.849 27.2862 111.882 27.2154L112.816 25.1949C113.877 25.057 114.891 24.7463 115.826 24.2897L117.72 25.4621C117.786 25.5031 117.871 25.4976 117.932 25.4482L120.001 23.7591C120.062 23.7098 120.084 23.6274 120.058 23.5542L119.289 21.4638C119.923 20.6397 120.431 19.7085 120.779 18.6961L122.946 18.1863C123.022 18.1684 123.078 18.1043 123.086 18.0266L123.355 15.3686C123.363 15.2909 123.321 15.2168 123.25 15.1841L121.23 14.2501C121.092 13.1885 120.781 12.1744 120.324 11.2398L121.497 9.346C121.538 9.27964 121.532 9.19449 121.483 9.134L119.794 7.06414C119.745 7.00361 119.662 6.98114 119.589 7.00809L117.499 7.77683C116.674 7.14214 115.743 6.63428 114.731 6.28638L114.221 4.11968C114.203 4.04369 114.139 3.9874 114.061 3.97953L111.403 3.71029C111.326 3.70242 111.252 3.74468 111.219 3.81557L110.285 5.83601C109.223 5.97383 108.209 6.28462 107.275 6.74119L105.381 5.56887C105.314 5.52775 105.229 5.53333 105.169 5.58266L103.099 7.27179C103.038 7.32117 103.016 7.40346 103.043 7.47673L103.812 9.5671C103.177 10.3912 102.669 11.3224 102.321 12.3347L100.154 12.8446C100.079 12.8624 100.022 12.9266 100.014 13.0043L99.7451 15.6623C99.7372 15.74 99.7795 15.8141 99.8504 15.8469L101.871 16.7808C102.009 17.8423 102.319 18.8565 102.776 19.7911L101.604 21.6849C101.563 21.7513 101.568 21.8364 101.617 21.897L103.307 23.9668Z" fill="url(#paint55_linear_126_55945)"/>
<path id="Vector_58" opacity="0.56" d="M111.549 18.201C110.24 18.201 109.09 17.2398 108.894 15.907C108.678 14.442 109.694 13.0746 111.159 12.8587C111.869 12.7539 112.577 12.9321 113.152 13.3599C113.728 13.7876 114.103 14.4141 114.207 15.1238C114.423 16.5889 113.407 17.9562 111.942 18.1722C111.81 18.1916 111.678 18.201 111.549 18.201ZM111.555 13.456C111.454 13.456 111.352 13.4634 111.25 13.4784C110.127 13.6439 109.348 14.6925 109.513 15.8155C109.679 16.9387 110.727 17.7183 111.851 17.5524C112.974 17.3869 113.753 16.3383 113.588 15.2152C113.507 14.671 113.22 14.1908 112.779 13.8627C112.42 13.5961 111.994 13.456 111.555 13.456Z" fill="white"/>
<path id="Vector_59" opacity="0.56" d="M111.604 22.0798C111.379 22.0798 111.153 22.0685 110.927 22.0456C110.855 22.0384 110.784 22.03 110.713 22.0205C110.362 21.9735 110.016 21.8987 109.679 21.7973C109.675 21.7959 109.67 21.7945 109.665 21.7932C109.652 21.7893 109.639 21.7852 109.626 21.7811C109.601 21.7733 109.576 21.7652 109.551 21.7571C109.484 21.7357 109.442 21.6744 109.442 21.6083C109.442 21.5922 109.445 21.5759 109.45 21.5598C109.477 21.4776 109.565 21.4328 109.647 21.4592C110.071 21.5964 110.512 21.6888 110.958 21.7339C113.176 21.9588 115.245 20.9971 116.533 19.3655C117.25 18.4581 117.725 17.3433 117.85 16.1099C117.872 15.8937 117.883 15.6779 117.883 15.4634C117.882 14.0202 117.39 12.6325 116.465 11.4994C115.403 10.1977 113.897 9.38749 112.226 9.21819C108.774 8.86886 105.684 11.3917 105.334 14.8421C105.313 15.0549 105.302 15.2679 105.302 15.4803C105.302 16.4009 105.504 17.3113 105.895 18.1453C105.906 18.1668 105.91 18.1895 105.91 18.2118C105.91 18.2705 105.877 18.327 105.82 18.3536C105.742 18.3901 105.649 18.357 105.612 18.2784C105.201 17.4028 104.989 16.447 104.989 15.4805C104.989 15.2576 105 15.0339 105.022 14.8106C105.389 11.188 108.636 8.53971 112.258 8.9065C114.012 9.08424 115.593 9.93475 116.708 11.3013C117.679 12.491 118.196 13.9477 118.196 15.4628C118.196 15.6879 118.185 15.9145 118.162 16.1414C117.984 17.8963 117.133 19.4769 115.767 20.592C114.577 21.563 113.12 22.0798 111.604 22.0798Z" fill="white"/>
</g>
</g>
<g id="Group_21">
<g id="Group_22" opacity="0.3">
<path id="Vector_60" d="M83.0137 27.9528C82.9091 27.9528 82.8127 27.8845 82.7818 27.779C82.724 27.582 82.6713 27.3806 82.6253 27.1803C82.5955 27.0502 82.6767 26.9205 82.8069 26.8905C82.9372 26.8601 83.0668 26.942 83.0967 27.0721C83.1405 27.2629 83.1907 27.4549 83.2459 27.6429C83.2835 27.7709 83.2101 27.9053 83.0819 27.9431C83.0592 27.9497 83.0363 27.9528 83.0137 27.9528Z" fill="url(#paint56_linear_126_55945)"/>
<path id="Vector_61" d="M82.6557 26.1273C82.5332 26.1273 82.4281 26.0345 82.4154 25.91C82.3795 25.5584 82.3613 25.2008 82.3613 24.8475C82.3613 24.7732 82.3622 24.6985 82.3637 24.6237C82.3667 24.49 82.4843 24.3892 82.6106 24.3868C82.7442 24.3896 82.8501 24.5002 82.8474 24.6336C82.8459 24.7051 82.845 24.7765 82.845 24.8475C82.845 25.1846 82.8624 25.5256 82.8965 25.8609C82.9101 25.9939 82.8134 26.1125 82.6805 26.1261C82.6721 26.1268 82.6639 26.1273 82.6557 26.1273ZM82.7089 23.6169C82.6974 23.6169 82.6857 23.6162 82.6741 23.6145C82.5419 23.5954 82.4501 23.4728 82.4691 23.3406C82.5301 22.9164 82.6179 22.4923 82.7302 22.0802C82.7653 21.9512 82.8989 21.8757 83.0271 21.9104C83.156 21.9456 83.2319 22.0783 83.1969 22.2072C83.0898 22.6005 83.0061 23.005 82.9478 23.4096C82.9305 23.53 82.8272 23.6169 82.7089 23.6169ZM83.3692 21.1944C83.3385 21.1944 83.3073 21.1884 83.2772 21.1762C83.1537 21.1254 83.0949 20.9839 83.1457 20.8604C83.3086 20.4648 83.498 20.0749 83.7089 19.702C83.7747 19.5856 83.9218 19.5448 84.0385 19.6106C84.1547 19.6763 84.1957 19.8239 84.13 19.9401C83.9289 20.2958 83.7482 20.6672 83.5929 21.0446C83.5544 21.1379 83.4642 21.1944 83.3692 21.1944ZM84.6049 19.0082C84.5548 19.0082 84.5044 18.9926 84.4611 18.9607C84.3538 18.8812 84.3313 18.7296 84.4109 18.6223C84.6663 18.278 84.9452 17.9466 85.2402 17.6373C85.3324 17.5407 85.4855 17.5374 85.582 17.6293C85.6787 17.7213 85.6824 17.8744 85.5902 17.9712C85.309 18.266 85.0429 18.5821 84.7994 18.9104C84.7519 18.9744 84.6789 19.0082 84.6049 19.0082ZM86.337 17.1902C86.2671 17.1902 86.1977 17.16 86.1498 17.1017C86.0652 16.9985 86.0803 16.8462 86.1835 16.7613C86.5146 16.49 86.8656 16.2364 87.2266 16.0078C87.3395 15.936 87.4889 15.9698 87.5603 16.0827C87.6318 16.1955 87.5982 16.345 87.4854 16.4164C87.1409 16.6346 86.8061 16.8764 86.4902 17.1355C86.4453 17.1722 86.391 17.1902 86.337 17.1902ZM88.4576 15.8479C88.3671 15.8479 88.2802 15.7966 88.2388 15.7092C88.1818 15.5886 88.2335 15.4445 88.3542 15.3874C88.7413 15.2046 89.1435 15.0443 89.5494 14.911C89.6768 14.8697 89.8129 14.9386 89.8546 15.0655C89.8963 15.1923 89.8271 15.329 89.7003 15.3706C89.3131 15.4977 88.9298 15.6504 88.5608 15.8247C88.5274 15.8405 88.4923 15.8479 88.4576 15.8479ZM90.8415 15.065C90.7281 15.065 90.6269 14.9849 90.6044 14.8697C90.5788 14.7386 90.6642 14.6115 90.7953 14.5858C91.214 14.5038 91.6434 14.4471 92.0715 14.4171C92.2052 14.4101 92.3204 14.5085 92.3296 14.6417C92.339 14.7749 92.2385 14.8904 92.1053 14.8999C91.6968 14.9282 91.2874 14.9823 90.8881 15.0605C90.8724 15.0635 90.8568 15.065 90.8415 15.065ZM94.5961 15.0342C94.5822 15.0342 94.5679 15.033 94.5536 15.0305C94.2065 14.9688 93.8498 14.9251 93.4936 14.9006C93.4396 14.8966 93.3867 14.8932 93.3337 14.8906C93.2003 14.8836 93.0978 14.77 93.1048 14.6366C93.1115 14.5029 93.2263 14.3966 93.3587 14.4075C93.4152 14.4106 93.4715 14.4139 93.5281 14.4181C93.9003 14.4439 94.2741 14.4897 94.6382 14.5544C94.7697 14.5778 94.8573 14.7032 94.8339 14.8347C94.8131 14.9519 94.7112 15.0342 94.5961 15.0342Z" fill="url(#paint57_linear_126_55945)"/>
</g>
<g id="Group_23" opacity="0.3">
<path id="Vector_62" d="M92.9488 35.2818C92.8168 35.2818 92.7088 35.1755 92.7071 35.0431C92.7053 34.9096 92.8121 34.7998 92.9457 34.7982C93.3477 34.793 93.7529 34.7632 94.1498 34.7096C94.2815 34.6931 94.4041 34.7845 94.4219 34.9169C94.4397 35.0494 94.3468 35.1711 94.2145 35.189C93.7982 35.245 93.3735 35.2764 92.952 35.2818C92.9511 35.2818 92.9499 35.2818 92.9488 35.2818ZM91.713 35.2235C91.7042 35.2235 91.6956 35.223 91.6867 35.2221C91.2681 35.1772 90.8479 35.1063 90.438 35.0116C90.3078 34.9814 90.2267 34.8518 90.2568 34.7216C90.2868 34.5913 90.4174 34.5107 90.5468 34.5403C90.9381 34.6307 91.339 34.6983 91.7384 34.7413C91.8711 34.7554 91.9672 34.8747 91.9529 35.0074C91.9397 35.1316 91.8348 35.2235 91.713 35.2235ZM95.3958 34.9512C95.2886 34.9512 95.1906 34.8794 95.162 34.7708C95.1281 34.6418 95.2052 34.5096 95.3344 34.4756C95.7235 34.3731 96.1095 34.2463 96.4819 34.0982C96.6065 34.0493 96.7467 34.1096 96.7959 34.2338C96.8453 34.3578 96.7846 34.4985 96.6605 34.5479C96.2701 34.703 95.8653 34.836 95.4575 34.9432C95.4368 34.9486 95.4161 34.9512 95.3958 34.9512ZM89.3061 34.6656C89.2786 34.6656 89.2506 34.6609 89.2232 34.651C88.8274 34.5067 88.4365 34.3364 88.0616 34.1449C87.9426 34.0842 87.8955 33.9385 87.9562 33.8195C88.0169 33.7009 88.1626 33.6537 88.2815 33.7141C88.6391 33.8967 89.0116 34.0589 89.389 34.1966C89.5144 34.2424 89.5791 34.3813 89.5333 34.5067C89.4975 34.6047 89.4048 34.6656 89.3061 34.6656ZM97.6901 34.0389C97.6045 34.0389 97.5215 33.9933 97.4777 33.913C97.4136 33.7956 97.4568 33.6487 97.5739 33.5847C97.9262 33.3925 98.2702 33.1766 98.5967 32.9428C98.7055 32.8649 98.8565 32.8902 98.9342 32.9988C99.0119 33.1074 98.9869 33.2586 98.8782 33.3363C98.5358 33.5812 98.1751 33.8076 97.8058 34.0093C97.769 34.0295 97.7292 34.0389 97.6901 34.0389ZM99.6987 32.6028C99.6331 32.6028 99.568 32.5763 99.5203 32.5244C99.4301 32.4259 99.4367 32.2729 99.5352 32.1827C99.8318 31.9108 100.114 31.6187 100.375 31.3145C100.462 31.2129 100.615 31.2014 100.716 31.2883C100.818 31.3752 100.829 31.5277 100.743 31.6291C100.469 31.9481 100.173 32.2544 99.862 32.5393C99.8156 32.5818 99.757 32.6028 99.6987 32.6028ZM101.306 30.7267C101.26 30.7267 101.213 30.7137 101.172 30.6861C101.061 30.6122 101.03 30.462 101.104 30.3508C101.328 30.0161 101.532 29.6647 101.712 29.3064C101.772 29.1874 101.917 29.139 102.036 29.199C102.156 29.259 102.204 29.4042 102.144 29.5237C101.955 29.8992 101.741 30.2679 101.507 30.619C101.46 30.6889 101.384 30.7267 101.306 30.7267Z" fill="url(#paint58_linear_126_55945)"/>
<path id="Vector_63" d="M87.0956 33.5365C87.0489 33.5365 87.0019 33.523 86.9603 33.4949C86.7888 33.3789 86.6201 33.2573 86.4585 33.1336C86.3526 33.0524 86.3324 32.9005 86.4136 32.7945C86.495 32.6889 86.6466 32.6686 86.7527 32.7496C86.9067 32.8677 87.0678 32.9837 87.2313 33.0944C87.3419 33.1693 87.3709 33.3197 87.296 33.4302C87.2493 33.4991 87.1732 33.5365 87.0956 33.5365Z" fill="url(#paint59_linear_126_55945)"/>
</g>
<g id="Group_24">
<path id="Vector_64" d="M87.2973 30.4125C87.3303 30.4529 87.3854 30.468 87.4344 30.45L88.8332 29.9356C89.3846 30.3602 90.0078 30.7001 90.6852 30.9329L91.0263 32.3827C91.0382 32.4336 91.0812 32.4712 91.1332 32.4765L92.9118 32.6567C92.9638 32.6619 93.0134 32.6336 93.0353 32.5862L93.6603 31.2343C94.3706 31.142 95.0492 30.9341 95.6746 30.6286L96.9419 31.413C96.9863 31.4405 97.0432 31.4368 97.0837 31.4038L98.4688 30.2736C98.5093 30.2405 98.5243 30.1854 98.5063 30.1364L97.9919 28.7376C98.4166 28.1862 98.7565 27.563 98.9893 26.8856L100.439 26.5445C100.49 26.5325 100.528 26.4896 100.533 26.4376L100.713 24.659C100.718 24.607 100.69 24.5574 100.643 24.5355L99.2906 23.9105C99.1984 23.2002 98.9905 22.5216 98.685 21.8962L99.4694 20.6289C99.4969 20.5845 99.4932 20.5276 99.4602 20.4871L98.3299 19.102C98.2969 19.0615 98.2418 19.0465 98.1928 19.0645L96.794 19.579C96.2426 19.1543 95.6194 18.8144 94.942 18.5816L94.6009 17.1318C94.5889 17.0809 94.546 17.0433 94.494 17.038L92.7154 16.8578C92.6634 16.8525 92.6139 16.8809 92.5919 16.9283L91.9669 18.2802C91.2566 18.3724 90.578 18.5804 89.9526 18.8859L88.6854 18.1015C88.6409 18.074 88.5839 18.0777 88.5435 18.1107L87.1584 19.241C87.118 19.2741 87.1028 19.3291 87.1209 19.3782L87.6353 20.777C87.2106 21.3284 86.8708 21.9516 86.638 22.6289L85.1881 22.9701C85.1373 22.9821 85.0996 23.025 85.0944 23.077L84.9142 24.8556C84.909 24.9076 84.9372 24.9571 84.9847 24.9791L86.3366 25.6041C86.4289 26.3144 86.6368 26.993 86.9423 27.6184L86.1579 28.8856C86.1304 28.93 86.1341 28.987 86.1671 29.0275L87.2973 30.4125Z" fill="url(#paint60_linear_126_55945)"/>
<path id="Vector_65" opacity="0.56" d="M92.8094 26.5866C92.4193 26.5866 92.0409 26.4621 91.7221 26.2253C91.3299 25.9339 91.0748 25.5071 91.0036 25.0237C90.8565 24.0261 91.5485 23.0947 92.5464 22.9473C93.5459 22.8018 94.4759 23.4926 94.6229 24.4904C94.6943 24.9738 94.573 25.4561 94.2816 25.8481C93.9901 26.2404 93.5634 26.4956 93.0799 26.5667C92.9895 26.58 92.899 26.5866 92.8094 26.5866ZM92.814 23.4114C92.7489 23.4114 92.6832 23.4161 92.6169 23.4258C91.8829 23.5342 91.3738 24.2193 91.482 24.9533C91.5345 25.3088 91.7221 25.6228 92.0105 25.837C92.2991 26.0515 92.6537 26.1403 93.0094 26.0883C93.3649 26.0359 93.6789 25.8481 93.8933 25.5598C94.1077 25.2712 94.1968 24.9165 94.1444 24.5608C94.0461 23.8931 93.4699 23.4114 92.814 23.4114Z" fill="white"/>
<path id="Vector_66" opacity="0.56" d="M92.8438 29.2866C92.6908 29.2866 92.5366 29.2788 92.3812 29.2632C92.0727 29.2321 91.767 29.1695 91.4719 29.0769C91.4587 29.0726 91.4454 29.0684 91.4322 29.0641C91.3299 29.031 91.2649 28.9364 91.2648 28.8343C91.2648 28.8095 91.2687 28.7843 91.2767 28.7595C91.3178 28.6324 91.4543 28.5635 91.5812 28.6041C91.8559 28.6931 92.1414 28.7528 92.4298 28.7819H92.4299C92.4457 28.7836 92.4616 28.7849 92.4773 28.7864C93.1605 28.849 93.8333 28.7389 94.4469 28.4744C94.78 28.3308 95.0958 28.1414 95.3862 27.9088C95.3885 27.9069 95.3909 27.905 95.3932 27.9031C95.4004 27.8972 95.4076 27.8915 95.4147 27.8856C96.2573 27.1978 96.7819 26.2233 96.8915 25.1412C96.9058 25.0011 96.9127 24.8615 96.9127 24.7226C96.9126 23.7884 96.5938 22.89 95.9952 22.1563C95.3074 21.3136 94.3328 20.7893 93.2508 20.6798C92.1694 20.5707 91.1087 20.8886 90.2659 21.5761C89.4234 22.2638 88.8988 23.2384 88.7892 24.3205C88.7752 24.4582 88.7683 24.5961 88.7683 24.7336C88.7684 25.3297 88.8989 25.9189 89.1525 26.4587C89.1681 26.492 89.1756 26.527 89.1755 26.5615C89.1755 26.6522 89.1241 26.7393 89.0365 26.7804C88.9155 26.8368 88.7716 26.7854 88.7147 26.6642C88.431 26.0601 88.2849 25.4007 88.2847 24.734C88.2847 24.5801 88.2924 24.4259 88.3079 24.2718C88.4306 23.061 89.0174 21.9707 89.9603 21.2013C90.903 20.4321 92.0883 20.075 93.2995 20.1985C94.5102 20.3211 95.6005 20.9077 96.3699 21.8507C97.0397 22.6714 97.3964 23.6765 97.3964 24.7217C97.3964 24.8769 97.3887 25.0332 97.3728 25.1898C97.1352 27.5338 95.1509 29.2866 92.8438 29.2866Z" fill="white"/>
</g>
</g>
<g id="Group_25">
<g id="Group_26" opacity="0.3">
<path id="Vector_67" d="M125.255 46.3294C125.258 46.434 125.193 46.5326 125.089 46.567C124.894 46.6313 124.694 46.6905 124.495 46.743C124.366 46.7771 124.234 46.7002 124.2 46.5711C124.165 46.4419 124.243 46.3096 124.372 46.2754C124.561 46.2254 124.751 46.1689 124.937 46.1076C125.064 46.0657 125.201 46.1347 125.243 46.2615C125.25 46.2841 125.254 46.3069 125.255 46.3294Z" fill="url(#paint61_linear_126_55945)"/>
<path id="Vector_68" d="M123.443 46.7473C123.447 46.8698 123.357 46.9779 123.233 46.9946C122.883 47.0421 122.526 47.072 122.173 47.0837C122.099 47.0861 122.024 47.0877 121.949 47.0887C121.816 47.0901 121.711 46.9759 121.705 46.8497C121.703 46.7161 121.81 46.6066 121.943 46.6049C122.015 46.6041 122.086 46.6026 122.157 46.6003C122.494 46.5892 122.834 46.5606 123.169 46.5155C123.301 46.4975 123.423 46.5902 123.441 46.7225C123.442 46.7309 123.442 46.7391 123.443 46.7473ZM120.932 46.7768C120.932 46.7883 120.932 46.8 120.931 46.8116C120.916 46.9444 120.796 47.0401 120.664 47.0255C120.238 46.9786 119.811 46.9047 119.395 46.8061C119.265 46.7752 119.185 46.6443 119.216 46.5149C119.247 46.3849 119.377 46.3046 119.507 46.3355C119.903 46.4296 120.311 46.4999 120.717 46.5448C120.838 46.5581 120.928 46.6586 120.932 46.7768ZM118.489 46.1967C118.49 46.2273 118.485 46.2587 118.474 46.2892C118.427 46.4143 118.288 46.4778 118.162 46.4311C117.762 46.2812 117.366 46.1048 116.986 45.9063C116.868 45.8444 116.822 45.6987 116.884 45.5799C116.946 45.4616 117.092 45.4158 117.21 45.4776C117.572 45.6669 117.95 45.8351 118.332 45.9779C118.426 46.0133 118.486 46.1016 118.489 46.1967ZM116.263 45.0335C116.265 45.0836 116.251 45.1345 116.221 45.1788C116.144 45.2887 115.994 45.3162 115.884 45.2402C115.531 44.9962 115.191 44.7284 114.872 44.4438C114.773 44.3548 114.764 44.2018 114.853 44.1024C114.942 44.0027 115.095 43.994 115.194 44.0829C115.498 44.3542 115.823 44.6098 116.159 44.8424C116.225 44.8878 116.261 44.9595 116.263 45.0335ZM114.389 43.3622C114.391 43.4321 114.364 43.5024 114.307 43.5522C114.206 43.6402 114.054 43.6301 113.966 43.5298C113.683 43.2078 113.418 42.8654 113.178 42.512C113.103 42.4016 113.131 42.2511 113.242 42.176C113.352 42.1009 113.503 42.1295 113.578 42.2399C113.807 42.577 114.06 42.9037 114.329 43.2108C114.368 43.2546 114.387 43.3083 114.389 43.3622ZM112.978 41.2869C112.981 41.3774 112.932 41.466 112.846 41.5102C112.728 41.5712 112.582 41.5242 112.521 41.4055C112.325 41.0246 112.152 40.628 112.005 40.2266C111.96 40.1006 112.024 39.9623 112.15 39.9164C112.275 39.8706 112.414 39.9353 112.46 40.0606C112.6 40.4434 112.765 40.8215 112.951 41.1845C112.968 41.2174 112.977 41.2524 112.978 41.2869ZM112.117 38.9302C112.12 39.0435 112.044 39.1472 111.929 39.1736C111.799 39.2035 111.669 39.1222 111.639 38.9921C111.544 38.5763 111.473 38.149 111.429 37.7221C111.417 37.5888 111.512 37.4703 111.645 37.4567C111.778 37.443 111.896 37.5396 111.91 37.6724C111.952 38.0797 112.019 38.4872 112.111 38.8837C112.114 38.8993 112.116 38.9148 112.117 38.9302ZM111.962 35.1786C111.963 35.1925 111.962 35.2068 111.96 35.2212C111.91 35.5702 111.878 35.928 111.865 36.2849C111.863 36.3389 111.861 36.392 111.861 36.445C111.858 36.5786 111.748 36.6847 111.614 36.6822C111.48 36.6799 111.37 36.5687 111.377 36.4359C111.378 36.3794 111.379 36.323 111.382 36.2663C111.395 35.8935 111.429 35.5183 111.481 35.1523C111.5 35.0201 111.623 34.9284 111.755 34.9475C111.873 34.9644 111.959 35.0635 111.962 35.1786Z" fill="url(#paint62_linear_126_55945)"/>
</g>
<g id="Group_27" opacity="0.3">
<path id="Vector_69" d="M132.253 36.1588C132.257 36.2907 132.154 36.402 132.022 36.4082C131.889 36.4144 131.775 36.3112 131.769 36.1777C131.751 35.7761 131.708 35.3721 131.641 34.9771C131.62 34.846 131.708 34.7205 131.839 34.6984C131.971 34.6762 132.096 34.765 132.118 34.8966C132.188 35.3109 132.233 35.7344 132.252 36.1554C132.253 36.1565 132.253 36.1577 132.253 36.1588ZM132.235 37.3959C132.235 37.4046 132.235 37.4132 132.234 37.4221C132.203 37.8419 132.146 38.2642 132.065 38.6771C132.039 38.8081 131.912 38.8935 131.781 38.8677C131.65 38.842 131.565 38.7141 131.591 38.5838C131.668 38.1898 131.722 37.7869 131.752 37.3863C131.762 37.2531 131.878 37.1531 132.011 37.1631C132.136 37.1723 132.231 37.2741 132.235 37.3959ZM131.842 33.724C131.845 33.8312 131.777 33.9314 131.669 33.9636C131.541 34.0017 131.406 33.929 131.368 33.801C131.253 33.4155 131.114 33.0339 130.953 32.6666C130.9 32.5437 130.956 32.4016 131.078 32.3483C131.201 32.2949 131.343 32.3509 131.397 32.4733C131.565 32.8584 131.711 33.2586 131.832 33.6627C131.838 33.6831 131.841 33.7037 131.842 33.724ZM131.757 39.8198C131.758 39.8473 131.754 39.8754 131.745 39.9031C131.614 40.3034 131.456 40.6997 131.277 41.0807C131.22 41.2016 131.076 41.2535 130.955 41.1968C130.835 41.14 130.783 40.996 130.839 40.8751C131.01 40.5118 131.16 40.134 131.285 39.7524C131.327 39.6255 131.464 39.5563 131.59 39.598C131.69 39.6305 131.753 39.7211 131.757 39.8198ZM130.854 31.4609C130.857 31.5465 130.814 31.631 130.735 31.6774C130.62 31.7454 130.472 31.707 130.404 31.592C130.2 31.2463 129.973 30.9095 129.729 30.5909C129.647 30.4847 129.668 30.333 129.774 30.2518C129.88 30.1705 130.032 30.1906 130.113 30.2966C130.369 30.6307 130.607 30.9838 130.821 31.3462C130.842 31.3824 130.853 31.4219 130.854 31.4609ZM129.353 29.5007C129.355 29.5662 129.331 29.6322 129.28 29.6816C129.185 29.775 129.032 29.7734 128.938 29.678C128.657 29.3905 128.356 29.1176 128.043 28.8669C127.939 28.7832 127.922 28.6309 128.005 28.5269C128.089 28.4227 128.241 28.406 128.345 28.4895C128.673 28.7523 128.989 29.0383 129.284 29.3396C129.328 29.3846 129.351 29.4424 129.353 29.5007ZM127.425 27.9565C127.426 28.0026 127.415 28.0495 127.389 28.0916C127.318 28.2052 127.169 28.2402 127.056 28.1699C126.714 27.958 126.356 27.7654 125.992 27.5974C125.871 27.5414 125.818 27.3977 125.874 27.2765C125.93 27.1553 126.073 27.1023 126.195 27.1583C126.576 27.3345 126.952 27.5365 127.311 27.7586C127.382 27.8029 127.422 27.8784 127.425 27.9565Z" fill="url(#paint63_linear_126_55945)"/>
<path id="Vector_70" d="M130.701 42.0657C130.703 42.1123 130.691 42.1599 130.664 42.2023C130.554 42.3775 130.438 42.5501 130.319 42.7156C130.242 42.8242 130.09 42.8494 129.982 42.7717C129.874 42.6938 129.848 42.543 129.926 42.4342C130.039 42.2764 130.149 42.1116 130.255 41.9445C130.326 41.8315 130.475 41.7976 130.588 41.8688C130.659 41.9133 130.698 41.9882 130.701 42.0657Z" fill="url(#paint64_linear_126_55945)"/>
</g>
<g id="Group_28">
<path id="Vector_71" d="M127.572 41.9675C127.612 41.9332 127.625 41.8776 127.605 41.8292L127.045 40.4481C127.451 39.883 127.77 39.249 127.981 38.5643L129.419 38.1755C129.469 38.162 129.505 38.1178 129.509 38.0657L129.63 36.2821C129.634 36.23 129.604 36.1813 129.556 36.161L128.184 35.5809C128.068 34.8739 127.838 34.2025 127.512 33.5876L128.255 32.2952C128.281 32.2499 128.275 32.193 128.241 32.1537L127.065 30.8066C127.031 30.7672 126.975 30.754 126.927 30.7736L125.546 31.3338C124.981 30.9275 124.347 30.6084 123.662 30.398L123.273 28.9602C123.26 28.9097 123.216 28.8735 123.164 28.87L121.38 28.7485C121.328 28.7449 121.279 28.7748 121.259 28.8229L120.679 30.1947C119.972 30.3103 119.301 30.5405 118.686 30.8664L117.393 30.1241C117.348 30.0981 117.291 30.1037 117.252 30.138L115.905 31.3133C115.865 31.3476 115.852 31.4032 115.872 31.4516L116.432 32.8327C116.025 33.3978 115.706 34.0318 115.496 34.7165L114.058 35.1052C114.008 35.1188 113.972 35.1629 113.968 35.2151L113.846 36.9986C113.843 37.0508 113.873 37.0994 113.921 37.1197L115.293 37.6998C115.408 38.4068 115.639 39.0782 115.964 39.6932L115.222 40.9855C115.196 41.0309 115.202 41.0877 115.236 41.127L116.411 42.4741C116.446 42.5135 116.501 42.5267 116.55 42.5071L117.931 41.947C118.496 42.3532 119.13 42.6724 119.815 42.8828L120.203 44.3206C120.217 44.371 120.261 44.4073 120.313 44.4107L122.097 44.5323C122.149 44.5358 122.197 44.506 122.218 44.4578L122.798 43.086C123.505 42.9704 124.176 42.7403 124.791 42.4144L126.084 43.1567C126.129 43.1827 126.186 43.1771 126.225 43.1427L127.572 41.9675Z" fill="url(#paint65_linear_126_55945)"/>
<path id="Vector_72" opacity="0.56" d="M123.567 36.5841C123.58 36.974 123.468 37.3562 123.242 37.6827C122.963 38.0842 122.545 38.3533 122.064 38.4404C121.072 38.6203 120.118 37.9593 119.938 36.9668C119.76 35.9727 120.42 35.0204 121.412 34.8406C121.893 34.7534 122.379 34.8588 122.78 35.1372C123.182 35.4155 123.451 35.8336 123.538 36.3145C123.554 36.4043 123.564 36.4945 123.567 36.5841ZM120.393 36.6841C120.395 36.7491 120.402 36.8147 120.414 36.8805C120.547 37.6106 121.248 38.0968 121.978 37.9645C122.332 37.9004 122.639 37.7025 122.844 37.4072C123.049 37.1117 123.126 36.7544 123.062 36.4006C122.998 36.047 122.8 35.7393 122.505 35.5346C122.209 35.3298 121.852 35.2524 121.498 35.3165C120.834 35.4368 120.372 36.0285 120.393 36.6841Z" fill="white"/>
<path id="Vector_73" opacity="0.56" d="M126.264 36.4604C126.269 36.6133 126.266 36.7677 126.256 36.9235C126.235 37.2329 126.182 37.5405 126.1 37.8385C126.096 37.8518 126.092 37.8652 126.088 37.8786C126.058 37.9819 125.966 38.05 125.864 38.0535C125.839 38.0543 125.814 38.0512 125.789 38.044C125.66 38.0071 125.587 37.873 125.623 37.7448C125.703 37.4674 125.754 37.18 125.773 36.8909V36.8907C125.774 36.8749 125.775 36.8589 125.776 36.8431C125.816 36.1583 125.684 35.4895 125.399 34.8849C125.245 34.5567 125.045 34.2473 124.803 33.9648C124.801 33.9625 124.799 33.9602 124.797 33.9578C124.791 33.9508 124.785 33.9438 124.779 33.937C124.064 33.1174 123.073 32.6253 121.987 32.5514C121.847 32.5417 121.707 32.5394 121.569 32.544C120.635 32.5748 119.747 32.9231 119.034 33.5455C118.214 34.2606 117.722 35.252 117.648 36.337C117.575 37.4214 117.928 38.4711 118.642 39.2908C119.357 40.1103 120.349 40.6024 121.434 40.6763C121.572 40.6858 121.71 40.6881 121.847 40.6836C122.443 40.6639 123.028 40.5141 123.559 40.2428C123.592 40.2261 123.627 40.2175 123.661 40.2165C123.752 40.2135 123.84 40.262 123.884 40.3482C123.945 40.4673 123.898 40.6128 123.779 40.6737C123.184 40.9771 122.53 41.1448 121.864 41.167C121.71 41.1721 121.556 41.1695 121.401 41.159C120.187 41.0762 119.078 40.5257 118.278 39.6087C117.478 38.6918 117.082 37.5188 117.166 36.3043C117.248 35.0902 117.799 33.9811 118.716 33.1812C119.514 32.4847 120.507 32.0952 121.552 32.0606C121.707 32.0555 121.863 32.0581 122.02 32.0688C124.371 32.2291 126.188 34.1545 126.264 36.4604Z" fill="white"/>
</g>
</g>
</g>
<g id="Group_29">
<path id="Vector_74" d="M119.001 108.144H117.01V129.675H119.001V108.144Z" fill="url(#paint66_linear_126_55945)"/>
<path id="Vector_75" d="M126.725 130.09H109.287V128.124C109.287 128.059 109.339 128.007 109.403 128.007H126.608C126.672 128.007 126.725 128.059 126.725 128.124V130.09Z" fill="url(#paint67_linear_126_55945)"/>
<path id="Vector_76" d="M129.313 106.61C129.313 107.787 128.349 108.751 127.171 108.751H109.529C108.351 108.751 107.388 107.787 107.388 106.61V104.674C107.388 103.496 108.351 102.532 109.529 102.532H127.171C128.349 102.532 129.313 103.496 129.313 104.674V106.61Z" fill="url(#paint68_linear_126_55945)"/>
</g>
<g id="Group_30">
<path id="Vector_77" d="M12.3948 107.46H10.4038V128.991H12.3948V107.46Z" fill="url(#paint69_linear_126_55945)"/>
<path id="Vector_78" d="M20.1176 129.406H2.67969V127.439C2.67969 127.375 2.73188 127.323 2.79628 127.323H20.001C20.0654 127.323 20.1176 127.375 20.1176 127.439V129.406Z" fill="url(#paint70_linear_126_55945)"/>
<path id="Vector_79" d="M22.7056 105.925C22.7056 107.103 21.7421 108.066 20.5645 108.066H2.92184C1.74423 108.066 0.780762 107.103 0.780762 105.925V103.989C0.780762 102.812 1.74423 101.848 2.92184 101.848H20.5645C21.7421 101.848 22.7056 102.812 22.7056 103.989V105.925Z" fill="url(#paint71_linear_126_55945)"/>
</g>
<path id="Vector_80" d="M108.611 52.5918C108.611 52.5918 110.083 49.6773 111.367 51.0785C112.651 52.4798 109.834 53.7484 108.745 54.1366L108.611 52.5918Z" fill="url(#paint72_linear_126_55945)"/>
<g id="Group_31">
<g id="Group_32">
<path id="Vector_81" d="M103.307 93.0005C103.307 93.0005 100.349 93.4591 97.0225 95.6827C96.499 96.0327 96.2119 96.6427 96.2907 97.2674C96.689 100.422 98.3267 110.634 103.727 120.608C104.012 121.134 104.093 121.746 103.968 122.331L103.03 126.697L101.29 128.328H105.771L108.755 120.253L107.479 119.85C106.49 119.537 105.811 118.627 105.793 117.59L105.643 108.927C105.771 105.068 103.277 102.406 103.277 102.406L110.434 102.057L103.307 93.0005Z" fill="url(#paint73_linear_126_55945)"/>
<path id="Vector_82" d="M99.5391 129.116C99.131 129.65 103.932 130.355 106.357 129.186C106.357 129.186 109.72 123.337 109.72 120.325C109.72 120.325 109.453 119.71 107.478 119.85C107.478 119.85 106.35 126.776 105.157 127.552C103.965 128.328 101.822 127.631 101.822 127.631C101.822 127.631 100.141 128.328 99.5391 129.116Z" fill="url(#paint74_linear_126_55945)"/>
<path id="Vector_83" d="M109.528 102.532C109.49 102.466 101.823 101.61 101.823 101.61C101.823 101.61 102.074 103.942 101.289 107.151C100.505 110.36 89.2473 124.265 89.2473 124.265L90.4277 128.007C86.778 129.278 83.1879 129.482 79.6553 128.655L86.9707 124.265C86.9707 124.265 93.8171 100.934 98.0107 96.7715L105.697 94.1124L109.528 102.532Z" fill="url(#paint75_linear_126_55945)"/>
<path id="Vector_84" d="M126.724 88.957C126.724 88.957 131.141 95.5278 131.504 98.525C131.866 101.522 130.294 102.74 125.658 102.941C121.023 103.142 108.649 103.139 108.649 103.139L99.1363 95.0091C98.6694 94.6101 98.8068 93.8558 99.385 93.6487C101.667 92.8313 106.298 91.1668 107.785 90.5898C109.786 89.8132 126.724 88.957 126.724 88.957Z" fill="url(#paint76_linear_126_55945)"/>
<path id="Vector_85" d="M89.9819 126.747C89.9819 126.747 91.2527 127.978 90.3943 129.347C90.3943 129.347 80.3271 131.132 77.5938 130.322C77.5938 130.322 78.1613 129.027 81.2391 127.552L81.012 127.727C80.7246 127.947 80.8932 128.407 81.2549 128.386C83.283 128.27 87.4802 127.899 89.9819 126.747Z" fill="url(#paint77_linear_126_55945)"/>
</g>
<path id="Vector_86" d="M120.684 75.802C123.512 78.8546 126.374 83.6561 126.374 83.6561L131.21 82.1504C126.904 70.1 115.943 62.9861 115.943 62.9861C115.943 62.9861 110.372 62.9474 110.095 63.8768C109.914 64.4831 107.93 68.3789 106.813 72.1402C106.202 74.1999 106.617 76.4294 107.939 78.123C110.047 80.8233 114.025 84.7071 115.085 85.7296L116.049 88.5399C116.751 90.5835 118.798 91.8475 120.939 91.5593L127.799 90.6358C127.063 88.6231 126.299 86.728 125.51 84.9369L120.684 75.802Z" fill="url(#paint78_linear_126_55945)"/>
<path id="Vector_87" d="M108.678 58.326C108.736 58.5192 110.933 63.6958 111.047 63.7958C111.161 63.8958 114.236 64.0612 115.683 63.0721L112.581 54.6847L108.678 58.326Z" fill="url(#paint79_linear_126_55945)"/>
<path id="Vector_88" d="M108.595 48.6835C108.595 48.6835 105.735 49.4985 103.38 53.2434C101.025 56.9882 102.165 59.0038 103.861 59.4785C105.557 59.9533 108.147 60.2473 111.212 58.0268C114.277 55.8062 112.295 47.7574 108.595 48.6835Z" fill="url(#paint80_linear_126_55945)"/>
<path id="Vector_89" d="M109.408 55.4877C109.408 55.4877 111.89 50.1442 106.997 49.6269L105.792 50.3658C105.792 50.3658 105.199 46.9192 108.284 45.729C111.369 44.5388 116.515 47.8714 117.404 51.9618C118.293 56.0522 113.719 59.2735 112.911 58.7178C112.595 58.4998 111.496 56.2783 111.496 56.2783C111.496 56.2783 111.625 56.6129 111.249 55.6186C110.874 54.6243 109.7 55.6742 109.7 55.6742L109.408 55.4877Z" fill="url(#paint81_linear_126_55945)"/>
<path id="Vector_90" d="M117.148 56.0752C116.515 55.43 116.924 54.3378 117.817 54.1971C120.701 53.7428 125.099 54.1951 126.955 60.366C129.046 67.3173 130.406 70.7922 131.797 71.4003C132.71 71.7996 132.771 73.0665 131.862 73.4763C131.19 73.7792 130.228 73.8878 128.849 73.5867C118.218 71.2649 120.864 59.8597 117.148 56.0752Z" fill="url(#paint82_linear_126_55945)"/>
</g>
<path id="Vector_91" d="M106.203 85.385L109.678 82.0353L114.486 84.0663C114.486 84.0663 119.271 84.8077 122.01 84.0663C124.749 83.3248 124.749 83.3248 124.749 83.3248L130.939 81.3979L131.911 84.1451C132.158 84.8426 131.91 85.617 131.306 86.0455C130.771 86.4261 130.143 86.8442 129.743 87.0192C128.928 87.3758 109.651 86.7726 109.651 86.7726L106.203 85.385Z" fill="url(#paint83_linear_126_55945)"/>
<g id="Group_33">
<path id="Vector_92" d="M119.152 88.453C119.137 88.4537 119.123 88.4541 119.109 88.454L100.432 88.4336C99.9701 88.4332 99.5963 88.0585 99.5967 87.5968C99.5972 87.135 99.9732 86.7534 100.434 86.7617L119.11 86.7821C119.572 86.7825 119.946 87.1572 119.945 87.6189C119.945 88.0661 119.593 88.4311 119.152 88.453Z" fill="url(#paint84_linear_126_55945)"/>
<path id="Vector_93" d="M83.6418 71.4956H99.1959C100.343 71.4956 101.388 72.1578 101.877 73.1956L109.068 88.443H89.7382C88.9988 88.443 88.3344 87.9912 88.0626 87.3036L82.4866 73.1944C82.1644 72.3791 82.7652 71.4956 83.6418 71.4956Z" fill="url(#paint85_linear_126_55945)"/>
<path id="Vector_94" d="M94.5994 79.3136C94.9365 80.3608 94.6875 81.3778 94.0433 81.5851C93.3991 81.7925 92.6036 81.1117 92.2665 80.0645C91.9294 79.0173 92.1784 78.0003 92.8227 77.7929C93.4669 77.5855 94.2624 78.2663 94.5994 79.3136Z" fill="url(#paint86_linear_126_55945)"/>
</g>
<g id="Group_34">
<g id="Group_35">
<path id="Vector_95" d="M121.673 89.0589C121.735 88.7826 121.651 88.4969 121.444 88.2798C121.237 88.0627 120.928 87.937 120.602 87.937H10.2795C9.85126 87.937 9.45251 88.1256 9.22176 88.4374C8.99102 88.7492 8.96006 89.1412 9.13971 89.4771L10.3353 91.7129C10.609 92.225 11.2022 92.5528 11.8549 92.5528H119.845C120.452 92.5528 120.974 92.1807 121.09 91.6656L121.673 89.0589Z" fill="url(#paint87_linear_126_55945)"/>
<g id="Group_36">
<path id="Vector_96" d="M15.3079 131.269C15.1525 131.269 14.9946 131.248 14.8426 131.203C14.2446 131.025 13.9684 130.544 14.2256 130.13L38.9471 90.3306C39.2042 89.9166 39.8972 89.7254 40.4957 89.9033C41.0937 90.0815 41.37 90.5617 41.1127 90.9758L16.3913 130.775C16.1994 131.084 15.7647 131.269 15.3079 131.269Z" fill="url(#paint88_linear_126_55945)"/>
<path id="Vector_97" d="M43.1574 131.269C42.7006 131.269 42.2659 131.084 42.074 130.775L17.3526 90.9757C17.0953 90.5616 17.3716 90.0814 17.9696 89.9032C18.5672 89.725 19.2608 89.9162 19.5182 90.3305L44.2397 130.13C44.4969 130.544 44.2207 131.024 43.6227 131.203C43.4709 131.248 43.3128 131.269 43.1574 131.269Z" fill="url(#paint89_linear_126_55945)"/>
<path id="Vector_98" d="M85.9282 131.716C85.7637 131.716 85.5967 131.695 85.4359 131.65C84.8031 131.472 84.5108 130.991 84.783 130.577L110.942 90.7776C111.215 90.3636 111.948 90.1724 112.581 90.3503C113.214 90.5285 113.506 91.0087 113.234 91.4228L87.0746 131.222C86.8716 131.531 86.4116 131.716 85.9282 131.716Z" fill="url(#paint90_linear_126_55945)"/>
<path id="Vector_99" d="M115.398 131.716C114.915 131.716 114.455 131.531 114.252 131.222L88.0921 91.4227C87.8198 91.0086 88.1122 90.5284 88.745 90.3502C89.3774 90.1721 90.1112 90.3632 90.3837 90.7775L116.543 130.577C116.815 130.991 116.523 131.471 115.89 131.65C115.73 131.695 115.562 131.716 115.398 131.716Z" fill="url(#paint91_linear_126_55945)"/>
</g>
</g>
</g>
<g id="Group_37">
<path id="Vector_100" d="M24.729 88.2251C24.7433 88.2258 24.7576 88.2262 24.772 88.2261L43.4488 88.2057C43.9105 88.2053 44.2843 87.8306 44.2839 87.3689C44.2834 86.9071 43.9074 86.5255 43.447 86.5338L24.7702 86.5542C24.3084 86.5546 23.9346 86.9293 23.9351 87.391C23.9355 87.8383 24.2873 88.2033 24.729 88.2251Z" fill="url(#paint92_linear_126_55945)"/>
<path id="Vector_101" d="M60.2381 71.2676H44.6839C43.5365 71.2676 42.4922 71.9298 42.0027 72.9676L34.812 88.215H54.1417C54.8811 88.215 55.5454 87.7632 55.8173 87.0756L61.3933 72.9664C61.7155 72.1511 61.1147 71.2676 60.2381 71.2676Z" fill="url(#paint93_linear_126_55945)"/>
<path id="Vector_102" d="M49.2797 79.0854C48.9426 80.1326 49.1916 81.1497 49.8359 81.357C50.48 81.5643 51.2756 80.8835 51.6126 79.8363C51.9497 78.7891 51.7007 77.7721 51.0564 77.5648C50.4123 77.3574 49.6168 78.0382 49.2797 79.0854Z" fill="url(#paint94_linear_126_55945)"/>
</g>
</g>
</g>
<defs>
<linearGradient id="paint0_linear_126_55945" x1="141.486" y1="148.763" x2="43.3825" y2="45.2247" gradientUnits="userSpaceOnUse">
<stop stop-color="#B37CFF"/>
<stop offset="1" stop-color="#F895E7"/>
</linearGradient>
<linearGradient id="paint1_linear_126_55945" x1="55.8349" y1="19.2783" x2="0.766608" y2="19.2783" gradientUnits="userSpaceOnUse">
<stop stop-color="#53D8FF"/>
<stop offset="1" stop-color="#3840F7"/>
</linearGradient>
<linearGradient id="paint2_linear_126_55945" x1="30.2401" y1="7.50877" x2="4.92531" y2="7.50877" gradientUnits="userSpaceOnUse">
<stop stop-color="#53D8FF"/>
<stop offset="1" stop-color="#3840F7"/>
</linearGradient>
<linearGradient id="paint3_linear_126_55945" x1="30.24" y1="10.0058" x2="4.92526" y2="10.0058" gradientUnits="userSpaceOnUse">
<stop stop-color="#53D8FF"/>
<stop offset="1" stop-color="#3840F7"/>
</linearGradient>
<linearGradient id="paint4_linear_126_55945" x1="22.8262" y1="12.0127" x2="4.92526" y2="12.0127" gradientUnits="userSpaceOnUse">
<stop stop-color="#53D8FF"/>
<stop offset="1" stop-color="#3840F7"/>
</linearGradient>
<linearGradient id="paint5_linear_126_55945" x1="46.3355" y1="18.8875" x2="7.08591" y2="18.8875" gradientUnits="userSpaceOnUse">
<stop stop-color="#53D8FF"/>
<stop offset="1" stop-color="#3840F7"/>
</linearGradient>
<linearGradient id="paint6_linear_126_55945" x1="36.4086" y1="23.3179" x2="36.0444" y2="23.3179" gradientUnits="userSpaceOnUse">
<stop stop-color="#53D8FF"/>
<stop offset="1" stop-color="#3840F7"/>
</linearGradient>
<linearGradient id="paint7_linear_126_55945" x1="26.3788" y1="28.333" x2="26.0147" y2="28.333" gradientUnits="userSpaceOnUse">
<stop stop-color="#53D8FF"/>
<stop offset="1" stop-color="#3840F7"/>
</linearGradient>
<linearGradient id="paint8_linear_126_55945" x1="19.1257" y1="26.192" x2="18.4058" y2="26.192" gradientUnits="userSpaceOnUse">
<stop stop-color="#53D8FF"/>
<stop offset="1" stop-color="#3840F7"/>
</linearGradient>
<linearGradient id="paint9_linear_126_55945" x1="11.4882" y1="28.8079" x2="11.124" y2="28.8079" gradientUnits="userSpaceOnUse">
<stop stop-color="#53D8FF"/>
<stop offset="1" stop-color="#3840F7"/>
</linearGradient>
<linearGradient id="paint10_linear_126_55945" x1="49.2937" y1="21.8119" x2="46.6469" y2="21.8119" gradientUnits="userSpaceOnUse">
<stop stop-color="#53D8FF"/>
<stop offset="1" stop-color="#3840F7"/>
</linearGradient>
<linearGradient id="paint11_linear_126_55945" x1="49.294" y1="9.98898" x2="46.6471" y2="9.98898" gradientUnits="userSpaceOnUse">
<stop stop-color="#53D8FF"/>
<stop offset="1" stop-color="#3840F7"/>
</linearGradient>
<linearGradient id="paint12_linear_126_55945" x1="48.7433" y1="32.7674" x2="5.47534" y2="32.7674" gradientUnits="userSpaceOnUse">
<stop stop-color="#53D8FF"/>
<stop offset="1" stop-color="#3840F7"/>
</linearGradient>
<linearGradient id="paint13_linear_126_55945" x1="48.7429" y1="32.7673" x2="5.47491" y2="32.7673" gradientUnits="userSpaceOnUse">
<stop stop-color="#53D8FF"/>
<stop offset="1" stop-color="#3840F7"/>
</linearGradient>
<linearGradient id="paint14_linear_126_55945" x1="54.5014" y1="119.327" x2="91.5872" y2="159.666" gradientUnits="userSpaceOnUse">
<stop stop-color="#2B3582"/>
<stop offset="1" stop-color="#150E42"/>
</linearGradient>
<linearGradient id="paint15_linear_126_55945" x1="66.5397" y1="122.323" x2="63.2456" y2="122.323" gradientUnits="userSpaceOnUse">
<stop stop-color="#F9B776"/>
<stop offset="1" stop-color="#F47960"/>
</linearGradient>
<linearGradient id="paint16_linear_126_55945" x1="51.5818" y1="73.7078" x2="83.1382" y2="116.478" gradientUnits="userSpaceOnUse">
<stop stop-color="#2B3582"/>
<stop offset="1" stop-color="#150E42"/>
</linearGradient>
<linearGradient id="paint17_linear_126_55945" x1="62.8211" y1="111.678" x2="99.9069" y2="152.017" gradientUnits="userSpaceOnUse">
<stop stop-color="#2B3582"/>
<stop offset="1" stop-color="#150E42"/>
</linearGradient>
<linearGradient id="paint18_linear_126_55945" x1="78.4111" y1="122.154" x2="75.5669" y2="122.154" gradientUnits="userSpaceOnUse">
<stop stop-color="#F9B776"/>
<stop offset="1" stop-color="#F47960"/>
</linearGradient>
<linearGradient id="paint19_linear_126_55945" x1="57.2053" y1="69.5584" x2="88.7617" y2="112.329" gradientUnits="userSpaceOnUse">
<stop stop-color="#2B3582"/>
<stop offset="1" stop-color="#150E42"/>
</linearGradient>
<linearGradient id="paint20_linear_126_55945" x1="85.8736" y1="67.1231" x2="34.0402" y2="29.8203" gradientUnits="userSpaceOnUse">
<stop stop-color="#CB236D"/>
<stop offset="1" stop-color="#4C246D"/>
</linearGradient>
<linearGradient id="paint21_linear_126_55945" x1="38.7494" y1="16.7751" x2="44.5614" y2="33.3811" gradientUnits="userSpaceOnUse">
<stop stop-color="#F9B776"/>
<stop offset="1" stop-color="#F47960"/>
</linearGradient>
<linearGradient id="paint22_linear_126_55945" x1="33.7819" y1="18.5139" x2="39.5939" y2="35.1197" gradientUnits="userSpaceOnUse">
<stop stop-color="#F9B776"/>
<stop offset="1" stop-color="#F47960"/>
</linearGradient>
<linearGradient id="paint23_linear_126_55945" x1="38.2473" y1="29.1233" x2="33.8693" y2="20.2919" gradientUnits="userSpaceOnUse">
<stop stop-color="#F9B776"/>
<stop offset="1" stop-color="#F47960"/>
</linearGradient>
<linearGradient id="paint24_linear_126_55945" x1="92.7046" y1="57.6324" x2="40.8712" y2="20.3297" gradientUnits="userSpaceOnUse">
<stop stop-color="#CB236D"/>
<stop offset="1" stop-color="#4C246D"/>
</linearGradient>
<linearGradient id="paint25_linear_126_55945" x1="89.8097" y1="60.221" x2="68.5122" y2="60.221" gradientUnits="userSpaceOnUse">
<stop stop-color="#F9B776"/>
<stop offset="1" stop-color="#F47960"/>
</linearGradient>
<linearGradient id="paint26_linear_126_55945" x1="62.069" y1="45.0792" x2="50.3583" y2="93.8739" gradientUnits="userSpaceOnUse">
<stop stop-color="#FDF53F"/>
<stop offset="0.6645" stop-color="#E57A58"/>
<stop offset="1" stop-color="#D93C65"/>
</linearGradient>
<linearGradient id="paint27_linear_126_55945" x1="54.737" y1="37.3878" x2="57.2311" y2="48.34" gradientUnits="userSpaceOnUse">
<stop stop-color="#53D8FF"/>
<stop offset="1" stop-color="#3840F7"/>
</linearGradient>
<linearGradient id="paint28_linear_126_55945" x1="56.0427" y1="41.9821" x2="57.2355" y2="49.1389" gradientUnits="userSpaceOnUse">
<stop stop-color="#53D8FF"/>
<stop offset="1" stop-color="#3840F7"/>
</linearGradient>
<linearGradient id="paint29_linear_126_55945" x1="70.093" y1="57.9879" x2="63.458" y2="57.9879" gradientUnits="userSpaceOnUse">
<stop stop-color="#F9B776"/>
<stop offset="1" stop-color="#F47960"/>
</linearGradient>
<linearGradient id="paint30_linear_126_55945" x1="73.456" y1="37.4528" x2="65.0357" y2="37.4528" gradientUnits="userSpaceOnUse">
<stop stop-color="#F9B776"/>
<stop offset="1" stop-color="#F47960"/>
</linearGradient>
<linearGradient id="paint31_linear_126_55945" x1="63.0336" y1="32.0958" x2="72.2917" y2="26.449" gradientUnits="userSpaceOnUse">
<stop stop-color="#F9B776"/>
<stop offset="1" stop-color="#F47960"/>
</linearGradient>
<linearGradient id="paint32_linear_126_55945" x1="77.1922" y1="20.4969" x2="65.2318" y2="29.9436" gradientUnits="userSpaceOnUse">
<stop stop-color="#2B3582"/>
<stop offset="1" stop-color="#150E42"/>
</linearGradient>
<linearGradient id="paint33_linear_126_55945" x1="65.4652" y1="34.2018" x2="73.7949" y2="29.1213" gradientUnits="userSpaceOnUse">
<stop stop-color="#F9B776"/>
<stop offset="1" stop-color="#F47960"/>
</linearGradient>
<linearGradient id="paint34_linear_126_55945" x1="27.8858" y1="90.7352" x2="19.4752" y2="77.5709" gradientUnits="userSpaceOnUse">
<stop stop-color="#A737D5"/>
<stop offset="1" stop-color="#EF497A"/>
</linearGradient>
<linearGradient id="paint35_linear_126_55945" x1="25.1948" y1="81.9435" x2="36.2684" y2="81.9435" gradientUnits="userSpaceOnUse">
<stop stop-color="#F9B776"/>
<stop offset="1" stop-color="#F47960"/>
</linearGradient>
<linearGradient id="paint36_linear_126_55945" x1="27.8644" y1="85.624" x2="37.2862" y2="86.8226" gradientUnits="userSpaceOnUse">
<stop stop-color="#F9B776"/>
<stop offset="1" stop-color="#F47960"/>
</linearGradient>
<linearGradient id="paint37_linear_126_55945" x1="27.4799" y1="128.534" x2="40.2091" y2="128.534" gradientUnits="userSpaceOnUse">
<stop stop-color="#CB236D"/>
<stop offset="1" stop-color="#4C246D"/>
</linearGradient>
<linearGradient id="paint38_linear_126_55945" x1="37.2876" y1="104.058" x2="33.8097" y2="128.087" gradientUnits="userSpaceOnUse">
<stop stop-color="#CB236D"/>
<stop offset="1" stop-color="#4C246D"/>
</linearGradient>
<linearGradient id="paint39_linear_126_55945" x1="28.1162" y1="124.698" x2="31.5603" y2="124.698" gradientUnits="userSpaceOnUse">
<stop stop-color="#F9B776"/>
<stop offset="1" stop-color="#F47960"/>
</linearGradient>
<linearGradient id="paint40_linear_126_55945" x1="47.4458" y1="126.012" x2="57.7232" y2="126.012" gradientUnits="userSpaceOnUse">
<stop stop-color="#CB236D"/>
<stop offset="1" stop-color="#4C246D"/>
</linearGradient>
<linearGradient id="paint41_linear_126_55945" x1="54.5148" y1="106.551" x2="51.0369" y2="130.58" gradientUnits="userSpaceOnUse">
<stop stop-color="#CB236D"/>
<stop offset="1" stop-color="#4C246D"/>
</linearGradient>
<linearGradient id="paint42_linear_126_55945" x1="9.07169" y1="109.158" x2="36.3358" y2="109.158" gradientUnits="userSpaceOnUse">
<stop stop-color="#2B3582"/>
<stop offset="1" stop-color="#150E42"/>
</linearGradient>
<linearGradient id="paint43_linear_126_55945" x1="44.4297" y1="124.988" x2="48.5415" y2="124.988" gradientUnits="userSpaceOnUse">
<stop stop-color="#F9B776"/>
<stop offset="1" stop-color="#F47960"/>
</linearGradient>
<linearGradient id="paint44_linear_126_55945" x1="33.8379" y1="97.7983" x2="3.90637" y2="131.735" gradientUnits="userSpaceOnUse">
<stop stop-color="#2B3582"/>
<stop offset="1" stop-color="#150E42"/>
</linearGradient>
<linearGradient id="paint45_linear_126_55945" x1="16.8616" y1="64.7279" x2="17.9952" y2="59.3466" gradientUnits="userSpaceOnUse">
<stop stop-color="#F9B776"/>
<stop offset="1" stop-color="#F47960"/>
</linearGradient>
<linearGradient id="paint46_linear_126_55945" x1="8.7066" y1="78.3992" x2="34.9273" y2="108.475" gradientUnits="userSpaceOnUse">
<stop stop-color="#A737D5"/>
<stop offset="1" stop-color="#EF497A"/>
</linearGradient>
<linearGradient id="paint47_linear_126_55945" x1="21.6707" y1="54.9595" x2="11.6917" y2="63" gradientUnits="userSpaceOnUse">
<stop stop-color="#F9B776"/>
<stop offset="1" stop-color="#F47960"/>
</linearGradient>
<linearGradient id="paint48_linear_126_55945" x1="14.3686" y1="48.9935" x2="23.8801" y2="60.6246" gradientUnits="userSpaceOnUse">
<stop stop-color="#2B3582"/>
<stop offset="1" stop-color="#150E42"/>
</linearGradient>
<linearGradient id="paint49_linear_126_55945" x1="20.3673" y1="53.342" x2="10.3884" y2="61.3824" gradientUnits="userSpaceOnUse">
<stop stop-color="#F9B776"/>
<stop offset="1" stop-color="#F47960"/>
</linearGradient>
<linearGradient id="paint50_linear_126_55945" x1="95.9038" y1="8.81727" x2="118.237" y2="8.81727" gradientUnits="userSpaceOnUse">
<stop stop-color="#B37CFF"/>
<stop offset="1" stop-color="#F895E7"/>
</linearGradient>
<linearGradient id="paint51_linear_126_55945" x1="119.323" y1="2.93483" x2="120.627" y2="2.93483" gradientUnits="userSpaceOnUse">
<stop stop-color="#B37CFF"/>
<stop offset="1" stop-color="#F895E7"/>
</linearGradient>
<linearGradient id="paint52_linear_126_55945" x1="126.092" y1="12.9016" x2="126.987" y2="12.9016" gradientUnits="userSpaceOnUse">
<stop stop-color="#B37CFF"/>
<stop offset="1" stop-color="#F895E7"/>
</linearGradient>
<linearGradient id="paint53_linear_126_55945" x1="104.175" y1="23.0827" x2="127.179" y2="23.0827" gradientUnits="userSpaceOnUse">
<stop stop-color="#B37CFF"/>
<stop offset="1" stop-color="#F895E7"/>
</linearGradient>
<linearGradient id="paint54_linear_126_55945" x1="101.883" y1="27.9316" x2="103.171" y2="27.9316" gradientUnits="userSpaceOnUse">
<stop stop-color="#B37CFF"/>
<stop offset="1" stop-color="#F895E7"/>
</linearGradient>
<linearGradient id="paint55_linear_126_55945" x1="164.571" y1="38.793" x2="82.5164" y2="2.76893" gradientUnits="userSpaceOnUse">
<stop stop-color="#A737D5"/>
<stop offset="1" stop-color="#EF497A"/>
</linearGradient>
<linearGradient id="paint56_linear_126_55945" x1="82.6192" y1="27.4184" x2="83.2558" y2="27.4184" gradientUnits="userSpaceOnUse">
<stop stop-color="#B37CFF"/>
<stop offset="1" stop-color="#F895E7"/>
</linearGradient>
<linearGradient id="paint57_linear_126_55945" x1="82.3613" y1="20.267" x2="94.8377" y2="20.267" gradientUnits="userSpaceOnUse">
<stop stop-color="#B37CFF"/>
<stop offset="1" stop-color="#F895E7"/>
</linearGradient>
<linearGradient id="paint58_linear_126_55945" x1="87.9297" y1="32.2275" x2="102.17" y2="32.2275" gradientUnits="userSpaceOnUse">
<stop stop-color="#B37CFF"/>
<stop offset="1" stop-color="#F895E7"/>
</linearGradient>
<linearGradient id="paint59_linear_126_55945" x1="86.3638" y1="33.1182" x2="87.3377" y2="33.1182" gradientUnits="userSpaceOnUse">
<stop stop-color="#B37CFF"/>
<stop offset="1" stop-color="#F895E7"/>
</linearGradient>
<linearGradient id="paint60_linear_126_55945" x1="158.134" y1="53.4346" x2="76.0796" y2="17.4106" gradientUnits="userSpaceOnUse">
<stop stop-color="#A737D5"/>
<stop offset="1" stop-color="#EF497A"/>
</linearGradient>
<linearGradient id="paint61_linear_126_55945" x1="124.734" y1="46.7414" x2="124.713" y2="46.1051" gradientUnits="userSpaceOnUse">
<stop stop-color="#B37CFF"/>
<stop offset="1" stop-color="#F895E7"/>
</linearGradient>
<linearGradient id="paint62_linear_126_55945" x1="117.595" y1="47.2343" x2="117.185" y2="34.765" gradientUnits="userSpaceOnUse">
<stop stop-color="#B37CFF"/>
<stop offset="1" stop-color="#F895E7"/>
</linearGradient>
<linearGradient id="paint63_linear_126_55945" x1="129.365" y1="41.2757" x2="128.896" y2="27.0436" gradientUnits="userSpaceOnUse">
<stop stop-color="#B37CFF"/>
<stop offset="1" stop-color="#F895E7"/>
</linearGradient>
<linearGradient id="paint64_linear_126_55945" x1="130.307" y1="42.8109" x2="130.275" y2="41.8375" gradientUnits="userSpaceOnUse">
<stop stop-color="#B37CFF"/>
<stop offset="1" stop-color="#F895E7"/>
</linearGradient>
<linearGradient id="paint65_linear_126_55945" x1="148.251" y1="-29.5882" x2="114.946" y2="53.6069" gradientUnits="userSpaceOnUse">
<stop stop-color="#A737D5"/>
<stop offset="1" stop-color="#EF497A"/>
</linearGradient>
<linearGradient id="paint66_linear_126_55945" x1="116.452" y1="128.686" x2="120.755" y2="101.618" gradientUnits="userSpaceOnUse">
<stop stop-color="#53D8FF"/>
<stop offset="1" stop-color="#3840F7"/>
</linearGradient>
<linearGradient id="paint67_linear_126_55945" x1="118.129" y1="128.324" x2="123.498" y2="94.5564" gradientUnits="userSpaceOnUse">
<stop stop-color="#53D8FF"/>
<stop offset="1" stop-color="#3840F7"/>
</linearGradient>
<linearGradient id="paint68_linear_126_55945" x1="99.3423" y1="105.991" x2="171.601" y2="104.661" gradientUnits="userSpaceOnUse">
<stop stop-color="#53D8FF"/>
<stop offset="1" stop-color="#3840F7"/>
</linearGradient>
<linearGradient id="paint69_linear_126_55945" x1="9.84508" y1="128.002" x2="14.1483" y2="100.933" gradientUnits="userSpaceOnUse">
<stop stop-color="#53D8FF"/>
<stop offset="1" stop-color="#3840F7"/>
</linearGradient>
<linearGradient id="paint70_linear_126_55945" x1="11.5224" y1="127.639" x2="16.8906" y2="93.8722" gradientUnits="userSpaceOnUse">
<stop stop-color="#53D8FF"/>
<stop offset="1" stop-color="#3840F7"/>
</linearGradient>
<linearGradient id="paint71_linear_126_55945" x1="-7.26462" y1="105.307" x2="64.9939" y2="103.977" gradientUnits="userSpaceOnUse">
<stop stop-color="#53D8FF"/>
<stop offset="1" stop-color="#3840F7"/>
</linearGradient>
<linearGradient id="paint72_linear_126_55945" x1="102.542" y1="60.4412" x2="110.791" y2="51.5697" gradientUnits="userSpaceOnUse">
<stop stop-color="#F9B776"/>
<stop offset="1" stop-color="#F47960"/>
</linearGradient>
<linearGradient id="paint73_linear_126_55945" x1="125.157" y1="81.1439" x2="98.3151" y2="115.927" gradientUnits="userSpaceOnUse">
<stop stop-color="#F9B776"/>
<stop offset="1" stop-color="#F47960"/>
</linearGradient>
<linearGradient id="paint74_linear_126_55945" x1="104.939" y1="119.889" x2="102.857" y2="151.816" gradientUnits="userSpaceOnUse">
<stop stop-color="#CB236D"/>
<stop offset="1" stop-color="#4C246D"/>
</linearGradient>
<linearGradient id="paint75_linear_126_55945" x1="96.3695" y1="117.43" x2="116.064" y2="149.672" gradientUnits="userSpaceOnUse">
<stop stop-color="#F9B776"/>
<stop offset="1" stop-color="#F47960"/>
</linearGradient>
<linearGradient id="paint76_linear_126_55945" x1="108.87" y1="120.442" x2="114.237" y2="100.653" gradientUnits="userSpaceOnUse">
<stop stop-color="#A737D5"/>
<stop offset="1" stop-color="#EF497A"/>
</linearGradient>
<linearGradient id="paint77_linear_126_55945" x1="84.8465" y1="118.578" x2="82.7643" y2="150.505" gradientUnits="userSpaceOnUse">
<stop stop-color="#CB236D"/>
<stop offset="1" stop-color="#4C246D"/>
</linearGradient>
<linearGradient id="paint78_linear_126_55945" x1="113.891" y1="67.8339" x2="132.82" y2="109.031" gradientUnits="userSpaceOnUse">
<stop stop-color="#A737D5"/>
<stop offset="1" stop-color="#EF497A"/>
</linearGradient>
<linearGradient id="paint79_linear_126_55945" x1="113.97" y1="72.1814" x2="111.707" y2="57.6594" gradientUnits="userSpaceOnUse">
<stop stop-color="#F9B776"/>
<stop offset="1" stop-color="#F47960"/>
</linearGradient>
<linearGradient id="paint80_linear_126_55945" x1="103.422" y1="60.482" x2="109.082" y2="53.4138" gradientUnits="userSpaceOnUse">
<stop stop-color="#F9B776"/>
<stop offset="1" stop-color="#F47960"/>
</linearGradient>
<linearGradient id="paint81_linear_126_55945" x1="126.973" y1="38.3579" x2="105.497" y2="56.936" gradientUnits="userSpaceOnUse">
<stop stop-color="#2B3582"/>
<stop offset="1" stop-color="#150E42"/>
</linearGradient>
<linearGradient id="paint82_linear_126_55945" x1="137.5" y1="50.5157" x2="116.156" y2="72.7889" gradientUnits="userSpaceOnUse">
<stop stop-color="#2B3582"/>
<stop offset="1" stop-color="#150E42"/>
</linearGradient>
<linearGradient id="paint83_linear_126_55945" x1="122.285" y1="84.2649" x2="148.087" y2="84.2649" gradientUnits="userSpaceOnUse">
<stop stop-color="#F9B776"/>
<stop offset="1" stop-color="#F47960"/>
</linearGradient>
<linearGradient id="paint84_linear_126_55945" x1="122.32" y1="83.4905" x2="107.494" y2="88.3532" gradientUnits="userSpaceOnUse">
<stop stop-color="#2B3582"/>
<stop offset="1" stop-color="#150E42"/>
</linearGradient>
<linearGradient id="paint85_linear_126_55945" x1="101.953" y1="73.7695" x2="91.2759" y2="85.0546" gradientUnits="userSpaceOnUse">
<stop stop-color="#2B3582"/>
<stop offset="1" stop-color="#150E42"/>
</linearGradient>
<linearGradient id="paint86_linear_126_55945" x1="95.4979" y1="76.5795" x2="90.6533" y2="83.875" gradientUnits="userSpaceOnUse">
<stop stop-color="#53D8FF"/>
<stop offset="1" stop-color="#3840F7"/>
</linearGradient>
<linearGradient id="paint87_linear_126_55945" x1="87.7815" y1="3.47607" x2="51.3339" y2="142.706" gradientUnits="userSpaceOnUse">
<stop stop-color="#53D8FF"/>
<stop offset="1" stop-color="#3840F7"/>
</linearGradient>
<linearGradient id="paint88_linear_126_55945" x1="54.8392" y1="6.76359" x2="23.0308" y2="128.272" gradientUnits="userSpaceOnUse">
<stop stop-color="#53D8FF"/>
<stop offset="1" stop-color="#3840F7"/>
</linearGradient>
<linearGradient id="paint89_linear_126_55945" x1="55.1999" y1="17.3305" x2="26.4797" y2="127.042" gradientUnits="userSpaceOnUse">
<stop stop-color="#53D8FF"/>
<stop offset="1" stop-color="#3840F7"/>
</linearGradient>
<linearGradient id="paint90_linear_126_55945" x1="122.153" y1="22.5881" x2="90.0866" y2="145.082" gradientUnits="userSpaceOnUse">
<stop stop-color="#53D8FF"/>
<stop offset="1" stop-color="#3840F7"/>
</linearGradient>
<linearGradient id="paint91_linear_126_55945" x1="122.705" y1="33.1197" x2="94.2825" y2="141.694" gradientUnits="userSpaceOnUse">
<stop stop-color="#53D8FF"/>
<stop offset="1" stop-color="#3840F7"/>
</linearGradient>
<linearGradient id="paint92_linear_126_55945" x1="21.5603" y1="83.2627" x2="36.3865" y2="88.1253" gradientUnits="userSpaceOnUse">
<stop stop-color="#2B3582"/>
<stop offset="1" stop-color="#150E42"/>
</linearGradient>
<linearGradient id="paint93_linear_126_55945" x1="41.9268" y1="73.5414" x2="52.604" y2="84.8266" gradientUnits="userSpaceOnUse">
<stop stop-color="#2B3582"/>
<stop offset="1" stop-color="#150E42"/>
</linearGradient>
<linearGradient id="paint94_linear_126_55945" x1="48.3813" y1="76.3514" x2="53.2259" y2="83.6468" gradientUnits="userSpaceOnUse">
<stop stop-color="#53D8FF"/>
<stop offset="1" stop-color="#3840F7"/>
</linearGradient>
</defs>
</svg>
