<svg width="124" height="123" viewBox="0 0 124 123" fill="none" xmlns="http://www.w3.org/2000/svg">
<g id="Property 1=Academic">
<g id="Group">
<path id="Vector" opacity="0.3" d="M108.97 105.598C106.622 108.364 104.107 109.925 102.238 111.266C80.2786 127.021 54.2942 122.428 48.7717 121.307C40.6169 119.651 24.8536 116.449 13.4571 103.048C-3.78485 82.7742 -2.42646 45.2806 10.9476 24.1955C13.3939 20.3387 25.6928 2.07779 53.9068 1.05143C69.9263 0.468675 89.5395 -0.610337 102.957 10.63C131.122 34.2244 126.255 85.2404 108.97 105.598Z" fill="url(#paint0_linear_126_56184)"/>
<g id="Group_2">
<g id="Group_3">
<path id="Vector_2" d="M36.596 62.9406C36.596 62.9406 36.9191 49.3586 30.6634 45.7235C24.4076 42.0883 12.5133 39.8156 12.0675 20.3131C11.8065 8.89554 11.5239 3.90357 11.3346 1.72683C11.2607 0.877724 12.0153 0.192349 12.8529 0.350127C18.7776 1.46625 38.0243 6.06024 42.0596 19.1971C46.8433 34.7708 36.596 62.9406 36.596 62.9406Z" fill="url(#paint1_linear_126_56184)"/>
<path id="Vector_3" d="M17.4351 5.77633C23.9386 11.5766 31.4588 21.8418 35.467 32.1071C35.9816 33.7988 37.4865 37.3966 38.1401 43.7888C38.7239 49.1201 38.4337 54.7536 37.7258 58.4827C37.6811 58.7185 37.4537 58.8733 37.2179 58.8285C36.8126 58.7516 36.8665 58.3156 36.8701 58.3293C37.6785 51.9581 37.343 44.028 35.4907 36.8727C33.1243 28.0869 27.8462 19.5687 22.3869 12.3441L21.8251 11.6327C17.5955 6.20086 16.705 6.16082 17.1005 5.78223C17.1939 5.69282 17.3401 5.69202 17.4351 5.77633Z" fill="white"/>
</g>
<g id="Group_4">
<path id="Vector_4" d="M24.1534 80.8279C24.8594 81.5131 23.9994 66.6077 26.895 48.3445C28.2596 39.7384 27.2427 30.4662 23.8665 24.9981C21.0565 20.4473 7.17825 18.228 2.60159 17.6116C2.02971 17.5346 1.62613 18.1573 1.93152 18.647C3.43713 21.0608 6.53366 26.6065 6.34276 31.118C6.09114 37.0646 10.1459 42.2182 14.4805 44.6661C18.8151 47.1141 21.0999 48.8645 20.9462 57.0202C20.7925 65.1758 22.1471 78.8808 24.1534 80.8279Z" fill="url(#paint2_linear_126_56184)"/>
<path id="Vector_5" d="M7.92804 21.8915C13.3645 23.9155 18.4628 28.3545 19.9308 34.0474L20.0677 34.5897C20.3789 35.8578 21.6476 44.5659 21.6847 51.4544C21.6851 51.5403 21.6159 51.6103 21.53 51.6108C21.3841 51.6115 21.3653 51.4452 21.3737 51.462C21.0813 47.4822 20.4688 42.3578 19.9105 38.4931C19.3322 34.286 18.9008 31.4238 15.6517 27.7597C12.0076 23.7665 7.82215 22.1157 7.83411 22.1225C7.77111 22.0947 7.74259 22.021 7.77044 21.958C7.79726 21.8974 7.86675 21.8689 7.92804 21.8915Z" fill="white"/>
</g>
</g>
<g id="Group_5">
<g id="Group_6">
<path id="Vector_6" d="M6.95844 104.971C6.95844 106.062 7.85196 106.954 8.94404 106.954H116.318C117.41 106.954 118.304 106.062 118.304 104.971L119.197 43.2659C119.197 42.1749 117.912 40.0449 115.556 40.205L10.6182 37.4897C9.24791 37.4543 7.92306 37.9817 6.95271 38.9488C5.9824 39.916 5.45145 41.2384 5.48382 42.6074L6.95844 104.971Z" fill="url(#paint3_linear_126_56184)"/>
<path id="Vector_7" d="M8.91921 103.068C8.91921 104.101 9.76456 104.946 10.7977 104.946H113.729C114.762 104.946 115.608 104.101 115.608 103.068L116.451 47.0514C116.351 43.6804 113.396 42.4689 111.605 42.5404L11.0313 39.8422C10.0687 39.8164 9.13792 40.1873 8.45613 40.8674C7.7743 41.5474 7.39933 42.4782 7.42346 43.4409L8.91921 103.068Z" fill="url(#paint4_linear_126_56184)"/>
<g id="Group_7">
<path id="Vector_8" d="M114.496 68.7579C114.494 68.7579 114.493 68.7579 114.491 68.7579C114.339 68.7562 114.218 68.6597 114.22 68.5423L114.287 65.0369C114.289 64.9207 114.412 64.8276 114.562 64.8276C114.563 64.8276 114.565 64.8276 114.566 64.8276C114.718 64.8293 114.84 64.9258 114.837 65.0433L114.771 68.5487C114.768 68.6648 114.646 68.7579 114.496 68.7579Z" fill="white"/>
<path id="Vector_9" d="M114.659 60.1679C114.658 60.1679 114.656 60.1679 114.655 60.1679C114.503 60.1662 114.382 60.0695 114.384 59.9523L114.639 46.5265C114.634 45.729 114.321 45.0923 113.707 44.6383C112.561 43.791 110.741 43.8343 110.664 43.837L78.5189 43.1718C78.3669 43.1689 78.247 43.0711 78.2511 42.9539C78.2551 42.8366 78.3719 42.7367 78.5337 42.7474L110.66 43.4125C110.86 43.4034 112.797 43.3775 114.088 44.3314C114.813 44.8681 115.184 45.6075 115.19 46.5286L114.934 59.9586C114.932 60.0748 114.809 60.1679 114.659 60.1679Z" fill="white"/>
</g>
<path id="Vector_10" d="M1.46896 112.077H123.288C123.427 112.077 123.541 111.963 123.541 111.823V106.908C123.541 106.769 123.427 106.655 123.288 106.655H1.46896C1.32977 106.655 1.21582 106.769 1.21582 106.908V111.823C1.21582 111.963 1.32972 112.077 1.46896 112.077Z" fill="url(#paint5_linear_126_56184)"/>
</g>
<g id="Group_8">
<g id="Clip path group">
<mask id="mask0_126_56184" style="mask-type:luminance" maskUnits="userSpaceOnUse" x="7" y="15" width="110" height="90">
<g id="SVGID_00000113344378435006959750000014881278580178198702_">
<path id="Vector_11" d="M8.91926 102.363C8.91926 103.784 9.7646 104.946 10.7978 104.946H113.729C114.762 104.946 115.608 103.784 115.608 102.363L116.451 25.3499C116.351 20.7155 113.396 19.0498 111.605 19.1481L11.0313 15.4385C10.0687 15.403 9.13792 15.9129 8.45613 16.8479C7.77429 17.7829 7.39933 19.0625 7.42346 20.386L8.91926 102.363Z" fill="white"/>
</g>
</mask>
<g mask="url(#mask0_126_56184)">
<g id="Group_9">
<path id="Vector_12" d="M55.2568 57.1676C55.2568 57.1676 77.1201 74.5273 92.3029 40.9028L97.5256 44.0677C97.5256 44.0677 93.0607 80.0608 59.9343 71.505L55.2568 57.1676Z" fill="url(#paint6_linear_126_56184)"/>
<path id="Vector_13" d="M113.915 35.1123C113.077 34.2227 111.881 33.7621 110.663 33.8606L98.7765 34.8212C98.7765 34.8212 97.9934 33.6263 99.8036 31.645C101.614 29.6635 99.8372 27.4153 99.8372 27.4153C99.8372 27.4153 97.4729 30.3402 94.0964 34.7927C92.1655 37.339 91.8439 40.2934 91.9215 42.3578L96.1427 44.4369C103.159 43.2242 109.507 40.4929 115.37 36.6579L113.915 35.1123Z" fill="url(#paint7_linear_126_56184)"/>
<path id="Vector_14" d="M25.6295 111.626C26.5231 104.428 35.5324 97.6389 35.5324 97.6389C46.9142 101.715 55.0298 95.6854 55.0298 95.6854C55.0298 95.6854 58.5725 102.967 58.61 110.383C58.6475 117.799 59.1001 165.417 59.1001 165.417C45.9416 170.932 32.3544 168.227 32.3544 168.227C33.3699 151.084 24.7357 118.824 25.6295 111.626Z" fill="url(#paint8_linear_126_56184)"/>
<path id="Vector_15" d="M51.8234 23.7384C51.8234 23.7384 42.2675 17.0322 37.1629 29.0043C36.2302 31.1917 30.8486 31.5543 30.2982 35.9968C30.0141 38.2905 28.3168 40.1274 26.0323 40.4775C20.3425 41.3496 11.5739 44.3043 10.1709 54.1831C9.10007 61.7235 12.944 64.5827 16.9782 65.5724C19.9411 66.2993 21.9102 69.1813 21.3109 72.1727C20.7361 75.0418 21.5933 78.3587 26.5639 80.9816C37.7029 86.8593 48.8268 67.0571 48.8268 67.0571L51.1066 32.4811L51.8234 23.7384Z" fill="url(#paint9_linear_126_56184)"/>
<path id="Vector_16" d="M35.6302 97.9109C41.2449 74.1192 26.2769 61.3367 26.2769 61.3367C33.2369 54.6558 47.1165 53.0217 52.6634 52.9271C54.3222 52.8989 55.882 53.6874 56.8666 55.0227C59.6521 58.8002 64.9066 67.0167 63.5303 73.6559C62.6834 77.7413 58.0411 91.3879 56.0454 97.1776C55.4158 99.0041 53.8843 100.38 51.9959 100.788C48.4482 101.554 42.2924 101.912 35.6302 97.9109Z" fill="url(#paint10_linear_126_56184)"/>
<path id="Vector_17" d="M46.0329 36.2465L42.3806 54.3349C41.9435 56.141 44.5528 56.533 46.4047 56.6844C49.5711 56.9432 51.3479 56.1923 52.6363 53.8654C52.7674 53.6286 52.8329 53.3609 52.8699 53.0927L54.8311 38.8744C54.9866 37.7464 54.3768 36.6516 53.3358 36.1899L49.5514 34.5119C48.0944 33.8659 46.4078 34.6973 46.0329 36.2465Z" fill="url(#paint11_linear_126_56184)"/>
<path id="Vector_18" d="M26.0943 61.0053C20.7052 66.0552 -2.10438 90.0273 28.1186 108.9C28.1186 108.9 29.4473 110.003 31.8562 110.381C33.0723 110.571 36.8382 112.607 38.7515 113.675C39.3665 114.018 40.172 113.785 40.4899 113.178C40.7389 112.703 40.711 112.147 40.4159 111.704L35.0111 103.585C33.663 102.668 31.776 102.808 30.5635 103.914C29.79 104.62 28.5257 104.506 27.9523 103.673C25.0289 99.4245 9.29553 89.155 31.605 72.8252C32.3351 72.2907 34.1364 69.9524 33.8101 67.5126C33.4213 64.6055 31.9027 61.9068 28.7442 60.5388C27.8485 60.151 26.8065 60.3379 26.0943 61.0053Z" fill="url(#paint12_linear_126_56184)"/>
<g id="Group_10">
<path id="Vector_19" d="M61.1656 26.6889C61.1656 26.6889 63.598 32.0296 61.0129 40.2674C58.4278 48.5054 53.9653 49.3008 51.0926 47.3303C48.2199 45.3597 44.4765 41.8124 43.8801 34.4053C43.2838 26.9982 57.8265 19.9386 61.1656 26.6889Z" fill="url(#paint13_linear_126_56184)"/>
<path id="Vector_20" d="M49.4027 33.8189C49.4027 33.8189 54.1409 22.6464 61.6891 29.4089L62.3151 32.2499C62.3151 32.2499 69.3421 30.1045 66.9 23.7462C64.4578 17.3879 57.5101 14.3902 50.0318 18.6816C42.5535 22.973 38.5004 26.7225 39.016 32.5428C39.5317 38.363 43.8621 36.2867 43.8621 36.2867C43.8621 36.2867 44.6221 31.9862 46.6599 31.1863C48.6976 30.3865 48.7146 33.6305 48.7146 33.6305L49.4027 33.8189Z" fill="url(#paint14_linear_126_56184)"/>
<path id="Vector_21" d="M47.1498 36.5804C47.1498 36.5804 49.6191 30.8515 46.0069 30.7139C42.3947 30.5764 43.9695 36.23 44.7276 38.2895L47.1498 36.5804Z" fill="url(#paint15_linear_126_56184)"/>
</g>
</g>
</g>
</g>
</g>
</g>
<g id="Group_11">
<g id="Group_12">
<path id="Vector_22" d="M113.822 33.936C117.322 33.936 120.16 31.098 120.16 27.5972C120.16 24.0964 117.322 21.2584 113.822 21.2584C110.321 21.2584 107.483 24.0964 107.483 27.5972C107.483 31.098 110.321 33.936 113.822 33.936Z" fill="url(#paint16_linear_126_56184)"/>
<g id="Group_13">
<path id="Vector_23" d="M115.403 29.6894C115.404 29.8528 115.536 29.9849 115.7 29.9844L116.735 29.9814C116.899 29.981 117.031 29.8481 117.03 29.6848L117.017 24.9608C117.016 24.7975 116.884 24.6654 116.72 24.6659L115.685 24.6688C115.521 24.6693 115.389 24.8021 115.39 24.9655L115.403 29.6894Z" fill="white"/>
<path id="Vector_24" d="M111.731 29.9957L112.8 29.9927L112.804 31.2644C112.805 31.6747 113.022 31.9447 113.433 31.9436L113.459 31.9435C113.869 31.9423 114.201 31.6397 114.2 31.2295L114.55 29.9624C114.713 29.962 114.969 29.8443 114.969 29.6809L114.955 24.8284C114.955 24.665 114.574 24.455 114.41 24.4554L114.18 24.4561L111.715 24.4632C111.102 24.4649 110.616 25.0425 110.618 25.6562L110.627 28.8779C110.629 29.4916 111.117 29.9975 111.731 29.9957Z" fill="white"/>
</g>
</g>
<g id="Group_14">
<path id="Vector_25" d="M76.2216 51.4827C79.7224 51.4827 82.5603 48.6447 82.5603 45.1439C82.5603 41.6431 79.7224 38.8052 76.2216 38.8052C72.7208 38.8052 69.8828 41.6431 69.8828 45.1439C69.8828 48.6447 72.7208 51.4827 76.2216 51.4827Z" fill="url(#paint17_linear_126_56184)"/>
<g id="Group_15">
<path id="Vector_26" d="M77.8036 47.2362C77.804 47.3996 77.9368 47.5316 78.1002 47.5311L79.1358 47.5282C79.2992 47.5277 79.4313 47.3949 79.4308 47.2315L79.4172 42.5076C79.4168 42.3442 79.2839 42.2122 79.1206 42.2126L78.085 42.2156C77.9216 42.216 77.7895 42.3489 77.79 42.5123L77.8036 47.2362Z" fill="white"/>
<path id="Vector_27" d="M74.1315 47.5426L75.2006 47.5395L75.2042 48.8112C75.2054 49.2214 75.4227 49.4916 75.8329 49.4904L75.8592 49.4903C76.2695 49.4891 76.6012 49.1865 76.6 48.7763L76.9504 47.5093C77.1137 47.5088 77.3698 47.3911 77.3693 47.2277L77.3554 42.3753C77.355 42.2119 76.9741 42.0018 76.8107 42.0023L76.5806 42.003L74.1157 42.0101C73.502 42.0118 73.0168 42.5894 73.0186 43.2031L73.0278 46.4248C73.0295 47.0384 73.5178 47.5443 74.1315 47.5426Z" fill="white"/>
</g>
</g>
<g id="Group_16">
<path id="Vector_28" d="M67.8954 14.0004C71.3962 14.0004 74.2342 11.1624 74.2342 7.66164C74.2342 4.16083 71.3962 1.32288 67.8954 1.32288C64.3946 1.32288 61.5566 4.16083 61.5566 7.66164C61.5566 11.1624 64.3946 14.0004 67.8954 14.0004Z" fill="url(#paint18_linear_126_56184)"/>
<g id="Group_17">
<path id="Vector_29" d="M69.4774 9.75388C69.4778 9.91725 69.6107 10.0493 69.774 10.0488L70.8096 10.0459C70.973 10.0454 71.1051 9.9126 71.1046 9.74922L71.0911 5.0253C71.0906 4.86193 70.9578 4.72986 70.7944 4.73035L69.7588 4.7333C69.5955 4.73375 69.4634 4.86659 69.4639 5.02996L69.4774 9.75388Z" fill="white"/>
<path id="Vector_30" d="M65.8053 10.0603L66.8745 10.0572L66.8781 11.3289C66.8792 11.7391 67.0965 12.0093 67.5068 12.0081L67.5331 12.008C67.9433 12.0068 68.2751 11.7042 68.2739 11.294L68.6242 10.027C68.7876 10.0265 69.0437 9.90881 69.0432 9.74539L69.0293 4.89297C69.0289 4.72959 68.6479 4.51953 68.4846 4.52002L68.2545 4.52069L65.7895 4.52772C65.1758 4.52946 64.6906 5.10707 64.6924 5.72076L64.7016 8.94244C64.7034 9.55613 65.1916 10.062 65.8053 10.0603Z" fill="white"/>
</g>
</g>
<g id="Group_18">
<path id="Vector_31" d="M89.4483 27.3602C97.2346 27.3602 103.547 22.7462 103.547 17.0545C103.547 11.3628 97.2346 6.74878 89.4483 6.74878C81.6621 6.74878 75.3501 11.3628 75.3501 17.0545C75.3501 22.7462 81.6621 27.3602 89.4483 27.3602Z" fill="url(#paint19_linear_126_56184)"/>
<path id="Vector_32" d="M77.1646 20.5996L72.8774 29.5038L82.1114 25.0517L77.1646 20.5996Z" fill="url(#paint20_linear_126_56184)"/>
<g id="Group_19">
<path id="Vector_33" d="M91.4657 19.9291C91.4664 20.1871 91.6762 20.3957 91.9342 20.395L93.5696 20.3903C93.8277 20.3895 94.0362 20.1798 94.0355 19.9218L94.0141 12.4615C94.0134 12.2035 93.8036 11.995 93.5456 11.9957L91.9102 12.0004C91.6522 12.0011 91.4436 12.2109 91.4443 12.4689L91.4657 19.9291Z" fill="white"/>
<path id="Vector_34" d="M85.6673 20.4129L87.3556 20.4081L87.3613 22.4164C87.3632 23.0643 87.7063 23.4908 88.3542 23.4889L88.3957 23.4888C89.0436 23.487 89.5674 23.0091 89.5656 22.3612L90.119 20.3602C90.377 20.3595 90.7814 20.1736 90.7806 19.9156L90.7587 12.2525C90.7579 11.9944 90.1564 11.6627 89.8984 11.6635L89.535 11.6645L85.6423 11.6756C84.6731 11.6784 83.9069 12.5906 83.9097 13.5597L83.9242 18.6476C83.927 19.6167 84.6981 20.4157 85.6673 20.4129Z" fill="white"/>
</g>
</g>
</g>
<g id="Group_20">
<g id="Group_21">
<g id="Group_22">
<path id="Vector_35" d="M115.162 122.027H116.625V106.211H115.162V122.027Z" fill="url(#paint21_linear_126_56184)"/>
<path id="Vector_36" d="M109.489 122.332H122.298V121.533C122.298 121.448 122.23 121.38 122.146 121.38H109.641C109.557 121.38 109.489 121.448 109.489 121.533V122.332Z" fill="url(#paint22_linear_126_56184)"/>
<path id="Vector_37" d="M107.587 105.662C107.587 106.527 108.295 107.234 109.16 107.234H122.12C122.985 107.234 123.693 106.527 123.693 105.662V104.239C123.693 103.374 122.985 102.667 122.12 102.667H109.16C108.295 102.667 107.587 103.374 107.587 104.239V105.662Z" fill="url(#paint23_linear_126_56184)"/>
</g>
<g id="Group_23">
<g id="Group_24">
<path id="Vector_38" d="M86.7431 119.661C86.0873 119.342 81.0624 117.553 79.8071 115.643C79.867 115.597 79.9396 115.565 80.0244 115.555C81.4441 115.384 84.2798 115.214 86.7919 116.109L88.1239 117.25C88.1239 117.25 88.5722 118.327 87.696 119.64C87.476 119.757 87.1369 119.852 86.7431 119.661Z" fill="url(#paint24_linear_126_56184)"/>
<path id="Vector_39" d="M79.8069 115.643C81.0622 117.554 86.0871 119.342 86.7429 119.661C87.1367 119.852 87.4758 119.757 87.6958 119.64C87.6942 119.642 87.6931 119.644 87.6915 119.647C87.4698 119.978 87.0437 120.104 86.6733 119.958C85.2599 119.4 81.6556 117.892 79.7881 116.347C79.5502 116.151 79.5906 115.806 79.8069 115.643Z" fill="url(#paint25_linear_126_56184)"/>
</g>
<g id="Group_25">
<path id="Vector_40" d="M86.9165 121.332C86.2606 121.013 81.2357 119.224 79.9805 117.313C80.0403 117.268 80.1129 117.236 80.1977 117.226C81.6175 117.055 84.4532 116.885 86.9653 117.78L88.2972 118.921C88.2972 118.921 88.7456 119.997 87.8693 121.311C87.6494 121.428 87.3103 121.523 86.9165 121.332Z" fill="url(#paint26_linear_126_56184)"/>
<path id="Vector_41" d="M79.9803 117.313C81.2356 119.224 86.2604 121.013 86.9163 121.332C87.3101 121.523 87.6492 121.428 87.8691 121.311C87.8676 121.313 87.8665 121.315 87.8648 121.318C87.6431 121.649 87.217 121.775 86.8466 121.629C85.4333 121.071 81.829 119.563 79.9614 118.018C79.7236 117.822 79.7639 117.477 79.9803 117.313Z" fill="url(#paint27_linear_126_56184)"/>
</g>
<g id="Group_26">
<path id="Vector_42" d="M87.8314 115.022C88.0243 115.498 88.4436 116.081 89.3456 116.565L88.0327 117.479C87.5417 117.493 87.2262 117.352 87.024 117.174C86.7358 116.92 86.6979 116.482 86.9302 116.176C87.2284 115.784 87.5291 115.399 87.8314 115.022Z" fill="url(#paint28_linear_126_56184)"/>
<path id="Vector_43" d="M87.8053 114.608C98.4563 101.471 111.603 98.0499 111.603 98.0499L111.269 101.302L89.1341 116.782C88.3939 116.385 87.9723 115.659 87.7382 115.148C87.6565 114.97 87.6817 114.76 87.8053 114.608Z" fill="url(#paint29_linear_126_56184)"/>
</g>
<g id="Group_27">
<path id="Vector_44" d="M88.1175 116.212C88.1747 116.666 88.4373 117.47 89.5011 118.139C89.0996 118.448 88.7117 118.759 88.3407 119.073C88.1916 119.199 87.9952 119.251 87.804 119.212C87.4377 119.138 86.8771 118.907 86.7107 118.198C86.6684 118.018 86.7146 117.828 86.8332 117.686C87.0549 117.42 87.4927 116.905 88.1175 116.212Z" fill="url(#paint30_linear_126_56184)"/>
<path id="Vector_45" d="M88.0355 116.028C91.3571 112.387 99.5335 104.46 108.514 101.169C109.262 100.895 109.87 100.336 110.214 99.6186L111.557 96.8181C111.557 96.8181 118.106 95.2835 122.141 99.5083C122.141 99.5083 121.895 103.527 116.827 104.996C112.096 106.367 98.0786 111.936 89.8106 118.175C89.621 118.318 89.3579 118.325 89.1702 118.179C88.5128 117.669 88.101 117.033 87.9258 116.584C87.8516 116.394 87.8979 116.179 88.0355 116.028Z" fill="url(#paint31_linear_126_56184)"/>
</g>
<path id="Vector_46" d="M122.852 99.4545C122.852 99.4545 121.516 100.039 119.226 98.9804C116.936 97.9218 110.709 97.8163 110.709 97.8163C110.709 97.8163 112.726 90.2659 108.243 84.8641C108.243 84.8641 104.632 91.6226 102.095 92.6313L100.958 92.6835V87.8619C100.958 87.8619 101.922 81.9098 108.019 77.465L109.917 75.754C109.917 75.754 116.592 74.4082 121.132 82.371C125.671 90.3338 122.852 99.4545 122.852 99.4545Z" fill="url(#paint32_linear_126_56184)"/>
<path id="Vector_47" d="M100.575 78.6347C100.511 78.3001 100.487 77.5175 101.294 76.5635C102.375 75.2871 103.76 75.9379 103.76 75.9379C104.988 76.6253 105.506 78.8702 105.506 78.8702L104.208 78.1774C104.012 78.7485 102.095 79.3642 102.095 79.3642L102.084 79.3602C102.066 80.6019 102.096 84.2232 102.976 86.742C103.321 87.7287 104.023 89.562 101.706 92.7037L100.43 92.6515C100.43 92.6515 97.5692 87.796 100.575 78.6347Z" fill="url(#paint33_linear_126_56184)"/>
<g id="Group_28">
<path id="Vector_48" d="M107.063 71.2741L110.618 76.2934C110.849 76.6196 110.817 77.0621 110.544 77.3539C110.065 77.8651 109.257 78.5854 108.387 78.7499C108.116 78.801 107.841 78.6875 107.691 78.457L105.801 75.5551C105.801 75.5551 105.439 70.9966 107.063 71.2741Z" fill="url(#paint34_linear_126_56184)"/>
<path id="Vector_49" d="M99.8651 70.901C99.8917 70.996 103.671 76.3158 103.671 76.3158L106.662 74.0934L103.83 68.5193C103.83 68.5193 99.4195 69.3099 99.8651 70.901Z" fill="url(#paint35_linear_126_56184)"/>
<path id="Vector_50" d="M103.7 70.2113L105.35 72.9136C105.386 72.9724 105.413 73.0359 105.429 73.1028C105.504 73.401 105.614 74.1873 104.758 74.3082C104.11 74.3998 103.507 74.4926 103.085 74.6973C102.712 74.8777 102.601 75.3563 102.844 75.6911C103.208 76.1929 103.849 77.0346 104.533 77.7418C104.78 77.9974 105.184 78.0167 105.453 77.7848C106.018 77.2987 106.969 76.4238 107.627 75.5228C107.773 75.3229 107.792 75.0581 107.683 74.8362C107.272 74.001 106.259 71.9182 106.058 71.2729C105.874 70.6797 106.369 70.0388 106.651 69.7347C106.782 69.5936 106.846 69.4045 106.827 69.2129C106.782 68.7636 106.556 68.0344 105.559 68.0622C105.213 68.0719 104.92 67.8246 104.868 67.4818C104.793 66.9863 104.511 66.4072 103.603 66.4027C102.64 66.3979 102.195 67.0474 101.993 67.5606C101.895 67.811 101.644 67.9514 101.376 67.9592C101.297 67.9615 101.218 67.989 101.145 68.0581C100.906 68.2834 100.557 68.3293 100.291 68.1372C99.8979 67.8532 99.3235 67.6766 98.619 68.1442C97.2421 69.058 97.8034 70.7834 98.6241 71.5769C99.4448 72.3705 100.881 71.2948 101.468 70.4524C101.874 69.8686 102.711 69.849 103.186 69.8921C103.398 69.9112 103.589 70.0291 103.7 70.2113Z" fill="url(#paint36_linear_126_56184)"/>
<path id="Vector_51" d="M106.675 72.305C106.675 72.305 105.304 70.8609 105.748 70.1627C106.191 69.4645 107.219 69.2705 107.563 70.6035C107.992 72.2617 106.675 72.305 106.675 72.305Z" fill="url(#paint37_linear_126_56184)"/>
</g>
<g id="Group_29">
<path id="Vector_52" d="M106.832 87.8986C106.151 86.6135 108.056 80.7385 108.056 80.7385L106.223 79.6909C106.223 79.6909 101.063 89.6754 105.063 92.2716C105.603 92.6218 106.193 92.8451 106.795 92.9773C107.244 91.558 107.43 89.9943 107.811 88.53C107.363 88.4158 107.002 88.2194 106.832 87.8986Z" fill="url(#paint38_linear_126_56184)"/>
<path id="Vector_53" d="M106.223 79.6909C106.838 77.6035 106.214 74.808 106.457 73.9203C106.528 73.6605 106.752 73.471 107.018 73.433L107.246 73.4006C107.487 73.3662 107.731 73.4616 107.878 73.6564C108.445 74.4117 108.655 75.7616 108.815 77.1974C108.94 77.9595 108.418 79.5159 107.926 81.0366L106.647 81.0574L106.223 79.6909Z" fill="url(#paint39_linear_126_56184)"/>
</g>
<path id="Vector_54" d="M105.149 92.3784C107.645 94.9343 112.198 91.1816 117.002 86.133C117.658 85.4436 117.868 84.4417 117.546 83.5462C117.015 82.0712 116.39 80.9032 115.629 80.1702C114.306 78.8953 112.104 79.4125 111.451 81.1297C110.234 84.33 108.192 89.0507 106.732 87.6821L105.149 92.3784Z" fill="url(#paint40_linear_126_56184)"/>
</g>
<g id="Group_30">
<g id="Group_31">
<path id="Vector_55" d="M101.462 122.332C101.533 122.332 101.605 122.317 101.675 122.286C101.95 122.165 102.076 121.839 101.958 121.558L90.6092 94.5337C90.4911 94.2525 90.1731 94.1227 89.8982 94.2435C89.6237 94.3645 89.4969 94.6905 89.615 94.9718L100.964 121.996C101.052 122.206 101.252 122.332 101.462 122.332Z" fill="url(#paint41_linear_126_56184)"/>
<path id="Vector_56" d="M88.6763 122.332C88.886 122.332 89.0856 122.206 89.1737 121.996L100.523 94.9719C100.641 94.6906 100.514 94.3646 100.24 94.2436C99.9651 94.1227 99.6468 94.2525 99.5286 94.5338L88.1794 121.558C88.0613 121.84 88.1882 122.166 88.4627 122.287C88.5324 122.317 88.605 122.332 88.6763 122.332Z" fill="url(#paint42_linear_126_56184)"/>
</g>
<path id="Vector_57" d="M83.3715 93.7268C83.3566 93.5592 83.3768 93.386 83.4263 93.2544C83.4759 93.1228 83.5497 93.0465 83.6276 93.0465H110.008C110.111 93.0465 110.206 93.1609 110.261 93.3499C110.316 93.539 110.324 93.7766 110.281 93.9803L109.995 95.336C109.929 95.6465 109.788 95.8453 109.632 95.8453H83.8086C83.6634 95.8453 83.5386 95.6197 83.5111 95.3073L83.3715 93.7268Z" fill="url(#paint43_linear_126_56184)"/>
</g>
<g id="Group_32">
<path id="Vector_58" d="M106.392 93.1128C106.382 93.1133 106.372 93.1135 106.362 93.1135L93.0848 93.099C92.7566 93.0987 92.4909 92.8324 92.4912 92.5041C92.4915 92.1758 92.7589 91.9046 93.0861 91.9105L106.363 91.925C106.691 91.9252 106.957 92.1916 106.957 92.5198C106.956 92.8378 106.706 93.0972 106.392 93.1128Z" fill="url(#paint44_linear_126_56184)"/>
<path id="Vector_59" d="M81.149 81.0582H92.206C93.0217 81.0582 93.7641 81.529 94.1121 82.2667L99.2237 93.1057H85.4828C84.9572 93.1057 84.4849 92.7845 84.2917 92.2957L80.3278 82.2658C80.0988 81.6863 80.5258 81.0582 81.149 81.0582Z" fill="url(#paint45_linear_126_56184)"/>
<path id="Vector_60" d="M88.9381 86.6156C89.1778 87.3601 89.0007 88.083 88.5428 88.2304C88.0848 88.3778 87.5193 87.8938 87.2797 87.1494C87.0401 86.405 87.2171 85.682 87.6751 85.5346C88.133 85.3872 88.6985 85.8712 88.9381 86.6156Z" fill="url(#paint46_linear_126_56184)"/>
</g>
</g>
</g>
<g id="Group_33">
<path id="Vector_61" d="M88.4131 78.0027C88.4131 78.5097 88.8241 78.9207 89.3311 78.9207C89.8381 78.9207 90.2492 78.5097 90.2492 78.0027C90.2492 77.4956 89.8381 77.0846 89.3311 77.0846C88.8241 77.0846 88.4131 77.4956 88.4131 78.0027Z" fill="white"/>
<path id="Vector_62" d="M89.3304 70.3079C91.2485 70.3079 93.0023 71.01 94.3497 72.1709C94.6263 72.4091 94.6461 72.8303 94.388 73.0884L94.362 73.1142C94.1325 73.3438 93.7636 73.3606 93.5179 73.1483C92.3944 72.178 90.9314 71.5903 89.3303 71.5903C87.7293 71.5903 86.2662 72.178 85.1428 73.1483C84.8971 73.3606 84.5282 73.3438 84.2986 73.1142L84.2728 73.0883C84.0147 72.8302 84.0345 72.4091 84.311 72.1708C85.6584 71.01 87.4123 70.3079 89.3304 70.3079Z" fill="white"/>
<path id="Vector_63" d="M89.331 72.4453C90.6561 72.4453 91.8721 72.9098 92.8269 73.6841C93.1126 73.9159 93.1307 74.3463 92.8706 74.6064L92.8661 74.6108C92.6381 74.8388 92.2774 74.8513 92.0262 74.6491C91.2887 74.0552 90.3516 73.6992 89.331 73.6992C88.3103 73.6992 87.3732 74.0552 86.6357 74.6491C86.3846 74.8513 86.0238 74.8388 85.7958 74.6109L85.7914 74.6064C85.5313 74.3463 85.5494 73.9158 85.8351 73.6841C86.7899 72.9098 88.0059 72.4453 89.331 72.4453Z" fill="white"/>
<path id="Vector_64" d="M91.3415 76.1353C91.1158 76.361 90.7657 76.3865 90.4985 76.2119C90.1629 75.9926 89.7618 75.8651 89.3309 75.8651C88.9001 75.8651 88.499 75.9926 88.1633 76.2119C87.8962 76.3865 87.5461 76.361 87.3204 76.1353L87.3175 76.1324C87.0408 75.8557 87.0843 75.3957 87.4075 75.1752C87.9555 74.8014 88.6175 74.5826 89.3309 74.5826C90.0443 74.5826 90.7063 74.8014 91.2542 75.1752C91.5774 75.3957 91.6209 75.8558 91.3443 76.1324L91.3415 76.1353Z" fill="white"/>
</g>
</g>
</g>
<defs>
<linearGradient id="paint0_linear_126_56184" x1="141.321" y1="159.337" x2="29.2703" y2="20.1774" gradientUnits="userSpaceOnUse">
<stop stop-color="#B37CFF"/>
<stop offset="1" stop-color="#F895E7"/>
</linearGradient>
<linearGradient id="paint1_linear_126_56184" x1="11.7614" y1="31.8175" x2="43.3692" y2="31.3655" gradientUnits="userSpaceOnUse">
<stop stop-color="#A737D5"/>
<stop offset="1" stop-color="#EF497A"/>
</linearGradient>
<linearGradient id="paint2_linear_126_56184" x1="26.8318" y1="59.2603" x2="4.49325" y2="9.05389" gradientUnits="userSpaceOnUse">
<stop stop-color="#CE1567"/>
<stop offset="1" stop-color="#7A1DBC"/>
</linearGradient>
<linearGradient id="paint3_linear_126_56184" x1="36.7515" y1="89.5604" x2="142.405" y2="19.6263" gradientUnits="userSpaceOnUse">
<stop stop-color="#2B3582"/>
<stop offset="1" stop-color="#150E42"/>
</linearGradient>
<linearGradient id="paint4_linear_126_56184" x1="61.7128" y1="41.6935" x2="64.7208" y2="144.971" gradientUnits="userSpaceOnUse">
<stop stop-color="#53D8FF"/>
<stop offset="1" stop-color="#3840F7"/>
</linearGradient>
<linearGradient id="paint5_linear_126_56184" x1="61.2553" y1="104.624" x2="41.2118" y2="19.9962" gradientUnits="userSpaceOnUse">
<stop stop-color="#2B3582"/>
<stop offset="1" stop-color="#150E42"/>
</linearGradient>
<linearGradient id="paint6_linear_126_56184" x1="91.9857" y1="18.4992" x2="65.516" y2="76.4484" gradientUnits="userSpaceOnUse">
<stop stop-color="#F9B776"/>
<stop offset="1" stop-color="#F47960"/>
</linearGradient>
<linearGradient id="paint7_linear_126_56184" x1="109.344" y1="25.3379" x2="81.5782" y2="86.1251" gradientUnits="userSpaceOnUse">
<stop stop-color="#F9B776"/>
<stop offset="1" stop-color="#F47960"/>
</linearGradient>
<linearGradient id="paint8_linear_126_56184" x1="79.6941" y1="67.0229" x2="65.3567" y2="94.1723" gradientUnits="userSpaceOnUse">
<stop stop-color="#A737D5"/>
<stop offset="1" stop-color="#EF497A"/>
</linearGradient>
<linearGradient id="paint9_linear_126_56184" x1="53.7406" y1="-0.821362" x2="37.927" y2="38.8465" gradientUnits="userSpaceOnUse">
<stop stop-color="#2B3582"/>
<stop offset="1" stop-color="#150E42"/>
</linearGradient>
<linearGradient id="paint10_linear_126_56184" x1="44.3861" y1="72.5258" x2="36.0683" y2="149.698" gradientUnits="userSpaceOnUse">
<stop stop-color="#FDF53F"/>
<stop offset="1" stop-color="#D93C65"/>
</linearGradient>
<linearGradient id="paint11_linear_126_56184" x1="52.7754" y1="77.1736" x2="49.4568" y2="52.8954" gradientUnits="userSpaceOnUse">
<stop stop-color="#F9B776"/>
<stop offset="1" stop-color="#F47960"/>
</linearGradient>
<linearGradient id="paint12_linear_126_56184" x1="37.7105" y1="86.6101" x2="12.9832" y2="89.4346" gradientUnits="userSpaceOnUse">
<stop stop-color="#F9B776"/>
<stop offset="1" stop-color="#F47960"/>
</linearGradient>
<linearGradient id="paint13_linear_126_56184" x1="48.1784" y1="54.966" x2="62.2039" y2="-4.41637" gradientUnits="userSpaceOnUse">
<stop stop-color="#F9B776"/>
<stop offset="1" stop-color="#F47960"/>
</linearGradient>
<linearGradient id="paint14_linear_126_56184" x1="74.8164" y1="16.5264" x2="38.4339" y2="33.9926" gradientUnits="userSpaceOnUse">
<stop stop-color="#2B3582"/>
<stop offset="1" stop-color="#150E42"/>
</linearGradient>
<linearGradient id="paint15_linear_126_56184" x1="40.5214" y1="55.8827" x2="54.547" y2="-3.49972" gradientUnits="userSpaceOnUse">
<stop stop-color="#F9B776"/>
<stop offset="1" stop-color="#F47960"/>
</linearGradient>
<linearGradient id="paint16_linear_126_56184" x1="269.276" y1="191.827" x2="-15.2832" y2="-108.795" gradientUnits="userSpaceOnUse">
<stop stop-color="#53D8FF"/>
<stop offset="1" stop-color="#3840F7"/>
</linearGradient>
<linearGradient id="paint17_linear_126_56184" x1="231.676" y1="209.374" x2="-52.8834" y2="-91.2485" gradientUnits="userSpaceOnUse">
<stop stop-color="#53D8FF"/>
<stop offset="1" stop-color="#3840F7"/>
</linearGradient>
<linearGradient id="paint18_linear_126_56184" x1="223.35" y1="171.892" x2="-61.2095" y2="-128.731" gradientUnits="userSpaceOnUse">
<stop stop-color="#53D8FF"/>
<stop offset="1" stop-color="#3840F7"/>
</linearGradient>
<linearGradient id="paint19_linear_126_56184" x1="99.878" y1="-2.69524" x2="95.5642" y2="5.47345" gradientUnits="userSpaceOnUse">
<stop stop-color="#A737D5"/>
<stop offset="1" stop-color="#EF497A"/>
</linearGradient>
<linearGradient id="paint20_linear_126_56184" x1="82.2925" y1="17.799" x2="80.398" y2="21.3865" gradientUnits="userSpaceOnUse">
<stop stop-color="#A737D5"/>
<stop offset="1" stop-color="#EF497A"/>
</linearGradient>
<linearGradient id="paint21_linear_126_56184" x1="112.929" y1="104.869" x2="124.078" y2="139.656" gradientUnits="userSpaceOnUse">
<stop stop-color="#FDF53F"/>
<stop offset="1" stop-color="#D93C65"/>
</linearGradient>
<linearGradient id="paint22_linear_126_56184" x1="110.483" y1="105.039" x2="121.967" y2="140.87" gradientUnits="userSpaceOnUse">
<stop stop-color="#FDF53F"/>
<stop offset="1" stop-color="#D93C65"/>
</linearGradient>
<linearGradient id="paint23_linear_126_56184" x1="115.364" y1="104.089" x2="126.514" y2="138.875" gradientUnits="userSpaceOnUse">
<stop stop-color="#FDF53F"/>
<stop offset="1" stop-color="#D93C65"/>
</linearGradient>
<linearGradient id="paint24_linear_126_56184" x1="83.3805" y1="113.631" x2="84.2477" y2="117.744" gradientUnits="userSpaceOnUse">
<stop stop-color="#2B3582"/>
<stop offset="1" stop-color="#150E42"/>
</linearGradient>
<linearGradient id="paint25_linear_126_56184" x1="81.9655" y1="112.937" x2="83.254" y2="116.679" gradientUnits="userSpaceOnUse">
<stop stop-color="#53D8FF"/>
<stop offset="1" stop-color="#3840F7"/>
</linearGradient>
<linearGradient id="paint26_linear_126_56184" x1="84.5334" y1="117.259" x2="82.516" y2="125.497" gradientUnits="userSpaceOnUse">
<stop stop-color="#2B3582"/>
<stop offset="1" stop-color="#150E42"/>
</linearGradient>
<linearGradient id="paint27_linear_126_56184" x1="84.3842" y1="117.223" x2="82.3668" y2="125.46" gradientUnits="userSpaceOnUse">
<stop stop-color="#53D8FF"/>
<stop offset="1" stop-color="#3840F7"/>
</linearGradient>
<linearGradient id="paint28_linear_126_56184" x1="81.0326" y1="106.046" x2="88.6819" y2="117.646" gradientUnits="userSpaceOnUse">
<stop stop-color="#F9B776"/>
<stop offset="1" stop-color="#F47960"/>
</linearGradient>
<linearGradient id="paint29_linear_126_56184" x1="93.4018" y1="97.1464" x2="101.444" y2="109.342" gradientUnits="userSpaceOnUse">
<stop stop-color="#CB236D"/>
<stop offset="1" stop-color="#4C246D"/>
</linearGradient>
<linearGradient id="paint30_linear_126_56184" x1="86.5445" y1="117.317" x2="109.134" y2="123.665" gradientUnits="userSpaceOnUse">
<stop stop-color="#F9B776"/>
<stop offset="1" stop-color="#F47960"/>
</linearGradient>
<linearGradient id="paint31_linear_126_56184" x1="90.0677" y1="103.831" x2="113.253" y2="110.346" gradientUnits="userSpaceOnUse">
<stop stop-color="#CB236D"/>
<stop offset="1" stop-color="#4C246D"/>
</linearGradient>
<linearGradient id="paint32_linear_126_56184" x1="115.925" y1="85.8146" x2="127.956" y2="64.3909" gradientUnits="userSpaceOnUse">
<stop stop-color="#A737D5"/>
<stop offset="1" stop-color="#EF497A"/>
</linearGradient>
<linearGradient id="paint33_linear_126_56184" x1="105.506" y1="84.2378" x2="99.2002" y2="84.2378" gradientUnits="userSpaceOnUse">
<stop stop-color="#F9B776"/>
<stop offset="1" stop-color="#F47960"/>
</linearGradient>
<linearGradient id="paint34_linear_126_56184" x1="112.3" y1="77.7594" x2="104.97" y2="73.5126" gradientUnits="userSpaceOnUse">
<stop stop-color="#F9B776"/>
<stop offset="1" stop-color="#F47960"/>
</linearGradient>
<linearGradient id="paint35_linear_126_56184" x1="115.336" y1="55.9284" x2="112.17" y2="60.2026" gradientUnits="userSpaceOnUse">
<stop stop-color="#F9B776"/>
<stop offset="1" stop-color="#F47960"/>
</linearGradient>
<linearGradient id="paint36_linear_126_56184" x1="107.433" y1="71.2749" x2="98.8226" y2="73.6865" gradientUnits="userSpaceOnUse">
<stop stop-color="#2B3582"/>
<stop offset="1" stop-color="#150E42"/>
</linearGradient>
<linearGradient id="paint37_linear_126_56184" x1="113.965" y1="75.1417" x2="106.522" y2="70.8289" gradientUnits="userSpaceOnUse">
<stop stop-color="#F9B776"/>
<stop offset="1" stop-color="#F47960"/>
</linearGradient>
<linearGradient id="paint38_linear_126_56184" x1="107.84" y1="75.3351" x2="104.095" y2="97.6388" gradientUnits="userSpaceOnUse">
<stop stop-color="#F9B776"/>
<stop offset="1" stop-color="#F47960"/>
</linearGradient>
<linearGradient id="paint39_linear_126_56184" x1="107.612" y1="76.0235" x2="106.174" y2="97.0358" gradientUnits="userSpaceOnUse">
<stop stop-color="#F9B776"/>
<stop offset="1" stop-color="#F47960"/>
</linearGradient>
<linearGradient id="paint40_linear_126_56184" x1="113.827" y1="74.1692" x2="109.58" y2="99.4617" gradientUnits="userSpaceOnUse">
<stop stop-color="#A737D5"/>
<stop offset="1" stop-color="#EF497A"/>
</linearGradient>
<linearGradient id="paint41_linear_126_56184" x1="102.003" y1="108.265" x2="89.5708" y2="108.265" gradientUnits="userSpaceOnUse">
<stop stop-color="#9CFFFB"/>
<stop offset="1" stop-color="#9BFFFA"/>
</linearGradient>
<linearGradient id="paint42_linear_126_56184" x1="100.567" y1="108.265" x2="88.1353" y2="108.265" gradientUnits="userSpaceOnUse">
<stop stop-color="#9CFFFB"/>
<stop offset="1" stop-color="#9BFFFA"/>
</linearGradient>
<linearGradient id="paint43_linear_126_56184" x1="110.309" y1="94.4459" x2="83.3667" y2="94.4459" gradientUnits="userSpaceOnUse">
<stop stop-color="#9CFFFB"/>
<stop offset="1" stop-color="#9BFFFA"/>
</linearGradient>
<linearGradient id="paint44_linear_126_56184" x1="108.645" y1="89.5851" x2="98.1052" y2="93.0419" gradientUnits="userSpaceOnUse">
<stop stop-color="#2B3582"/>
<stop offset="1" stop-color="#150E42"/>
</linearGradient>
<linearGradient id="paint45_linear_126_56184" x1="94.166" y1="82.6746" x2="86.5759" y2="90.6969" gradientUnits="userSpaceOnUse">
<stop stop-color="#2B3582"/>
<stop offset="1" stop-color="#150E42"/>
</linearGradient>
<linearGradient id="paint46_linear_126_56184" x1="89.5768" y1="84.6721" x2="86.1329" y2="89.8582" gradientUnits="userSpaceOnUse">
<stop stop-color="#53D8FF"/>
<stop offset="1" stop-color="#3840F7"/>
</linearGradient>
</defs>
</svg>
