<svg width="134" height="102" viewBox="0 0 134 102" fill="none" xmlns="http://www.w3.org/2000/svg">
<g id="Property 1=Salesforce">
<g id="Group">
<path id="Vector" d="M124.239 19.7491H10.3262V100.784H124.239V19.7491Z" fill="url(#paint0_linear_126_40766)"/>
<path id="Vector_2" d="M80.3054 49.6962H67.1924V97.5684H80.3054V49.6962Z" fill="url(#paint1_linear_126_40766)"/>
<path id="Vector_3" d="M102.019 60.1456H79.0229V97.5683H102.019V60.1456Z" fill="url(#paint2_linear_126_40766)"/>
<path id="Vector_4" d="M25.6382 101V65.1486H38.3124V36.3864H63.4483V65.9973H75.7388V100.784L25.6382 101Z" fill="url(#paint3_linear_126_40766)"/>
<g id="Group_2">
<path id="Vector_5" d="M39.7756 100.347L35.9032 98.5576C34.4953 97.907 33.5939 96.4974 33.5939 94.9464V74.5544H30.8688V94.9464C30.8688 96.4974 29.9673 97.907 28.5595 98.5576L24.687 100.347H39.7756Z" fill="#1E3980"/>
<path id="Vector_6" opacity="0.36" d="M33.5938 87.0758V74.5547H30.8687V84.8778C31.7149 85.5638 32.6829 86.3438 33.5938 87.0758Z" fill="url(#paint4_linear_126_40766)"/>
<path id="Vector_7" d="M35.4836 72.8844L29.7449 49.4356C29.4241 48.1247 28.2493 47.2028 26.8996 47.2028H17.8923C16.5116 47.2028 15.4962 48.4968 15.8242 49.8378L21.4419 72.7928C21.8803 74.5844 23.4862 75.8447 25.3307 75.8447H36.2079H41.4165C42.2338 75.8447 42.8966 75.182 42.8966 74.3647C42.8966 73.5473 42.2338 72.8846 41.4165 72.8846L35.4836 72.8844Z" fill="#285EE0"/>
<path id="Vector_8" opacity="0.36" d="M29.7451 49.4356C29.4242 48.1247 28.2494 47.2028 26.8997 47.2028H25.8261L20.9443 70.7582L21.4423 72.7926C21.4962 73.0125 21.568 73.2243 21.6553 73.4269L37.9378 74.5544L37.4764 72.8841H35.484L29.7451 49.4356Z" fill="url(#paint5_linear_126_40766)"/>
<path id="Vector_9" d="M42.276 74.0336H23.7808V73.548C23.7808 72.0961 24.9578 70.9191 26.4097 70.9191H42.276V74.0336Z" fill="#1E3980"/>
<path id="Vector_10" d="M25.0215 72.8844C24.239 72.8844 23.558 72.3518 23.372 71.5918C22.1816 66.7328 18.0444 49.8378 18.0444 49.8378C17.7161 48.4968 18.7316 47.2028 20.1125 47.2028H17.8923C16.5116 47.2028 15.4962 48.4968 15.8242 49.8378L21.4419 72.7928C21.8803 74.5844 23.4862 75.8447 25.3307 75.8447H41.4163C42.2336 75.8447 42.8963 75.182 42.8963 74.3647C42.8963 73.5473 42.2336 72.8846 41.4163 72.8846L25.0215 72.8844Z" fill="#477DFF"/>
</g>
<g id="Group_3">
<path id="Vector_11" d="M110.316 70.6329C110.316 70.6329 107.75 70.3672 109.746 65.9975C110.959 63.3421 112.343 61.8759 114.556 62.6299C116.769 63.3839 115.454 68.571 115.454 68.571C115.454 68.571 117.43 68.7189 116.574 71.6936C119.068 74.4002 117.58 82.1926 113.132 82.1926C108.439 82.1926 108.869 77.1142 109.947 76.0782C107.783 75.4553 109.394 71.3705 110.316 70.6329Z" fill="url(#paint6_linear_126_40766)"/>
<path id="Vector_12" d="M113.145 65.9976V97.3201" stroke="#223B52" stroke-width="0.7951" stroke-miterlimit="10"/>
<path id="Vector_13" d="M112.204 67.1084L113.133 68.7475" stroke="#223B52" stroke-width="0.7951" stroke-miterlimit="10"/>
<path id="Vector_14" d="M114.556 68.895L113.132 72.0202" stroke="#223B52" stroke-width="0.7951" stroke-miterlimit="10"/>
<path id="Vector_15" d="M110.958 73.0505L113.201 76.2197" stroke="#223B52" stroke-width="0.7951" stroke-miterlimit="10"/>
<path id="Vector_16" d="M116.17 73.6323L113.132 78.5168" stroke="#223B52" stroke-width="0.7951" stroke-miterlimit="10"/>
</g>
<g id="Group_4">
<path id="Vector_17" d="M119.726 76.9477C119.726 76.9477 117.161 76.682 119.157 72.3123C120.37 69.6569 121.753 68.1907 123.966 68.9447C126.179 69.6987 124.865 74.8858 124.865 74.8858C124.865 74.8858 126.841 75.0337 125.984 78.0084C128.478 80.715 126.99 88.5074 122.543 88.5074C117.849 88.5074 118.28 83.429 119.358 82.393C117.194 81.7701 118.804 77.6851 119.726 76.9477Z" fill="url(#paint7_linear_126_40766)"/>
<path id="Vector_18" d="M122.556 72.3124V98.8242" stroke="#223B52" stroke-width="0.7951" stroke-miterlimit="10"/>
<path id="Vector_19" d="M121.614 73.4235L122.543 75.0623" stroke="#223B52" stroke-width="0.7951" stroke-miterlimit="10"/>
<path id="Vector_20" d="M123.966 75.21L122.543 78.3349" stroke="#223B52" stroke-width="0.7951" stroke-miterlimit="10"/>
<path id="Vector_21" d="M120.369 79.3652L122.612 82.5344" stroke="#223B52" stroke-width="0.7951" stroke-miterlimit="10"/>
<path id="Vector_22" d="M125.581 79.947L122.543 84.8315" stroke="#223B52" stroke-width="0.7951" stroke-miterlimit="10"/>
</g>
<path id="Vector_23" d="M43.3022 100.784H128.151C128.151 100.784 127.59 92.549 120.663 92.2464C116.732 85.0175 111.006 84.5495 105.726 86.3279C102.224 80.6182 97.0383 78.8868 92.0494 80.1736C88.8387 74.6279 73.4768 68.4066 67.8197 85.6978C60.3842 86.2344 58.4423 90.6335 57.8221 92.9737C54.3002 95.0329 54.3692 96.5305 51.7606 97.2794C49.1523 98.0279 44.1913 96.6134 43.3022 100.784Z" fill="url(#paint8_linear_126_40766)"/>
<g id="Group_5">
<path id="Vector_24" d="M58.7151 60.1455H42.6392V61.0556H58.7151V60.1455Z" fill="#F9BA39"/>
<path id="Vector_25" d="M58.7151 60.1455H42.6392V61.0556H58.7151V60.1455Z" fill="url(#paint9_linear_126_40766)"/>
<path id="Vector_26" d="M69.6591 61.0557H53.0449L55.2679 47.5773H71.8821L69.6591 61.0557Z" fill="#DF9D2F"/>
<path id="Vector_27" d="M54.0399 61.0557H53.0449L55.2679 47.5773H56.2628L54.0399 61.0557Z" fill="#F9BA39"/>
<path id="Vector_28" d="M63.6114 55.9506C64.6803 55.201 65.0326 53.8601 64.3982 52.9556C63.7639 52.0512 62.3831 51.9257 61.3143 52.6753C60.2454 53.425 59.8931 54.7659 60.5275 55.6704C61.1618 56.5748 62.5425 56.7003 63.6114 55.9506Z" fill="white"/>
<path id="Vector_29" d="M56.0657 48.7709L54.0688 60.8786" stroke="#F9E5BD" stroke-width="0.5676" stroke-miterlimit="10"/>
</g>
<g id="Group_6">
<path id="Vector_30" d="M43.555 34.8315C42.9254 35.2922 42.2369 36.7945 42.4341 38.2582C42.5571 39.1708 43.0308 39.6448 42.3112 40.8733C41.5915 42.1018 41.1586 42.3825 41.4453 43.1548C41.732 43.9269 36.8179 42.2774 36.8179 42.2774L39.3978 34.8318L43.555 34.8315Z" fill="#12255E"/>
<path id="Vector_31" d="M38.3799 92.3654L36.2443 97.6719C36.127 97.9635 36.1844 98.295 36.3925 98.5308C36.7477 98.9338 37.3496 99.5109 37.9938 99.6662C38.7235 99.8424 39.6881 100.127 40.2274 100.507C40.4433 100.659 40.3308 101 40.0666 101H34.106C33.6817 101 33.3772 100.591 33.4994 100.185C33.6488 99.6885 33.8512 99.0193 34.0624 98.3326C34.4837 96.9636 35.7122 92.3656 35.7122 92.3656H38.3799V92.3654Z" fill="#FF8282"/>
<path id="Vector_32" d="M38.3804 92.3654H35.713C35.713 92.3654 35.5732 92.8886 35.3721 93.6337L37.5394 94.4557L38.3804 92.3654Z" fill="#D94D4D"/>
<path id="Vector_33" d="M40.2274 100.506C39.6881 100.127 38.7238 99.8422 37.9938 99.6661C37.4575 99.5367 36.9516 99.1152 36.5919 98.7451L35.1858 99.6485L33.8067 99.1694C33.6921 99.5456 33.5867 99.8949 33.4994 100.185C33.3772 100.591 33.6815 101 34.106 101H40.0666C40.331 101 40.4433 100.659 40.2274 100.506Z" fill="#222F73"/>
<path id="Vector_34" d="M53.1221 87.8489L54.0391 92.5758C54.0391 92.5758 55.5066 96.1564 55.4388 96.5539C55.371 96.9512 53.6604 95.9456 53.4031 95.2903C53.1456 94.635 53.1456 93.6756 52.4671 92.9736C51.7885 92.2715 50.9684 91.3589 51.9634 90.8909C51.6245 89.791 50.8057 87.8489 50.8057 87.8489H53.1221Z" fill="#FF8282"/>
<path id="Vector_35" d="M53.4029 95.2903C53.6602 95.9456 55.371 96.9512 55.4386 96.5539C55.493 96.2343 54.5547 93.856 54.1854 92.9374C54.0659 93.1027 53.8848 93.1987 53.6132 93.1608C52.5198 93.0087 51.9629 90.8909 51.9629 90.8909C50.968 91.3589 51.788 92.2715 52.4666 92.9736C53.1454 93.6756 53.1454 94.635 53.4029 95.2903Z" fill="#222F73"/>
<path id="Vector_36" d="M53.1224 87.8489H50.8057C50.8057 87.8489 50.9722 88.2439 51.1856 88.7775L53.4677 89.6305L53.1224 87.8489Z" fill="#D94D4D"/>
<path id="Vector_37" d="M26.0952 61.9449C26.0952 61.9449 20.6546 68.8832 27.2185 71.0242C28.8906 71.5697 42.4286 71.3985 42.4286 71.3985L50.3608 88.4691L54.1754 88.387C54.1754 88.387 50.9461 70.0891 50.291 67.2337C49.6357 64.3784 47.0617 63.3018 43.2242 63.3018C39.3866 63.3018 32.8813 62.4127 32.8813 62.4127L26.0952 61.9449Z" fill="url(#paint10_linear_126_40766)"/>
<path id="Vector_38" d="M46.1727 67.2339L45.1196 70.1116" stroke="#B82A51" stroke-width="0.5676" stroke-miterlimit="10" stroke-linecap="round" stroke-linejoin="round"/>
<path id="Vector_39" d="M46.1722 68.673L45.9263 70.6033" stroke="#B82A51" stroke-width="0.5676" stroke-miterlimit="10" stroke-linecap="round" stroke-linejoin="round"/>
<path id="Vector_40" opacity="0.36" d="M34.3084 64.1446C37.294 63.9591 38.8975 63.519 39.7468 63.145C36.3713 62.8897 32.881 62.413 32.881 62.413L26.0949 61.9449C26.0949 61.9449 23.0786 65.7929 24.2495 68.6417C25.7063 64.6179 29.0162 64.4734 34.3084 64.1446Z" fill="url(#paint11_linear_126_40766)"/>
<path id="Vector_41" d="M49.8877 87.4512H54.0394" stroke="#B82A51" stroke-width="0.5676" stroke-miterlimit="10" stroke-linecap="round" stroke-linejoin="round"/>
<path id="Vector_42" d="M37.374 71.4237C37.374 71.4237 42.6157 68.497 45.9388 69.5734C49.2615 70.6497 47.0151 77.0615 45.9388 80.0565C44.8624 83.0518 39.1702 92.9734 39.1702 92.9734H35.0059L40.512 72.7789C40.6993 72.0917 40.1808 71.4148 39.4683 71.4171L37.374 71.4237Z" fill="url(#paint12_linear_126_40766)"/>
<path id="Vector_43" opacity="0.36" d="M45.9383 69.5734C42.6155 68.497 37.3735 71.4237 37.3735 71.4237L39.4678 71.4173C40.18 71.4151 40.6988 72.0919 40.5115 72.7791L39.1574 77.7455C40.5556 78.7137 42.8411 80.6312 44.2972 83.5921C45.0405 82.1362 45.6526 80.8516 45.9383 80.0565C47.0146 77.0615 49.2611 70.6499 45.9383 69.5734Z" fill="url(#paint13_linear_126_40766)"/>
<path id="Vector_44" d="M39.7909 91.8822H35.3032" stroke="#B82A51" stroke-width="0.5676" stroke-miterlimit="10" stroke-linecap="round" stroke-linejoin="round"/>
<path id="Vector_45" d="M43.5048 70.6031L41.3452 72.8845" stroke="#B82A51" stroke-width="0.5676" stroke-miterlimit="10" stroke-linecap="round" stroke-linejoin="round"/>
<path id="Vector_46" d="M42.2763 70.9191L41.3452 71.7438" stroke="#B82A51" stroke-width="0.5676" stroke-miterlimit="10" stroke-linecap="round" stroke-linejoin="round"/>
<g id="Group_7">
<path id="Vector_47" d="M39.7608 42.2889C39.7608 42.2889 41.1546 42.0897 42.3586 43.453C43.3117 44.5321 45.5173 54.6677 45.5173 54.6677C45.5173 54.6677 49.6592 44.7226 50.0335 43.9973C50.408 43.272 50.6888 42.8039 51.3438 42.3359C51.9992 41.8678 52.2564 41.2828 52.4669 41.3998C52.6775 41.5168 51.6946 42.3826 52.0457 42.4996C52.3967 42.6167 53.4028 41.7041 53.4028 41.7041C53.4028 41.7041 53.8941 40.6745 54.1281 40.9085C54.3621 41.1425 54.0813 43.1315 51.6244 43.9038C50.8991 46.548 49.3915 61.056 45.2497 61.056C41.1078 61.056 39.082 48.5134 39.082 48.5134L39.7608 42.2889Z" fill="#FF8282"/>
<path id="Vector_48" d="M46.6066 60.4927C45.366 58.7336 43.0941 58.2715 41.9863 58.1505C42.8697 59.8327 43.9567 61.0555 45.25 61.0555C45.7381 61.0557 46.1888 60.8524 46.6066 60.4927Z" fill="#D94D4D"/>
<path id="Vector_49" d="M42.3583 43.4531C41.1543 42.0901 39.7606 42.289 39.7606 42.289L39.082 48.5135C39.082 48.5135 39.7089 52.3912 40.977 55.8344C41.2802 55.2749 41.7436 54.7259 42.4516 54.3168C43.659 53.6187 44.3386 52.262 44.7094 51.156C43.9814 48.1167 42.9384 44.1094 42.3583 43.4531Z" fill="#D94D4D"/>
<path id="Vector_50" d="M45.5175 54.6675L44.9092 56.3054" stroke="#D94D4D" stroke-width="0.5676" stroke-miterlimit="10" stroke-linecap="round" stroke-linejoin="round"/>
<path id="Vector_51" d="M52.4091 42.8268C52.4091 42.8268 51.1339 42.5109 50.8647 43.634" stroke="#D94D4D" stroke-width="0.5676" stroke-miterlimit="10" stroke-linecap="round" stroke-linejoin="round"/>
</g>
<path id="Vector_52" d="M41.4456 35.7836C41.4456 35.7836 40.8841 37.7258 41.2116 38.1236C40.9308 38.3809 40.65 38.4044 40.65 38.4044C40.65 38.4044 40.1867 40.0893 39.948 40.253C39.6392 40.4648 38.5438 39.9958 38.5438 39.9958L37.9588 41.9847L35.4551 41.3764L36.1104 38.1003C36.1104 38.1003 34.6595 34.8243 36.6017 33.6542C38.5441 32.4841 41.2116 34.169 41.4456 35.7836Z" fill="#FF8282"/>
<path id="Vector_53" d="M35.455 40.7677C35.455 40.7677 36.1336 41.189 36.941 41.3293C37.7485 41.4698 38.3627 41.2941 38.5205 41.4698C38.6783 41.6454 38.5205 41.9846 38.5205 41.9846L39.6669 42.1256C39.9553 42.1609 40.171 42.4058 40.1681 42.6963C40.1604 43.4013 40.6257 44.5034 41.0245 45.8924C41.6036 47.9108 42.7094 50.081 40.6091 52.2983L38.6962 63.1619C38.6962 63.1619 32.0996 64.3189 25.6039 62.3371C24.5684 62.0212 25.6039 61.6351 26.1654 61.056C26.727 60.4769 31.2901 44.3483 31.2901 44.3483L32.2646 41.3624L35.455 40.7677Z" fill="#961313"/>
<path id="Vector_54" opacity="0.36" d="M37.9374 63.2686C35.3454 60.4425 37.8182 53.0919 35.923 51.649C31.8049 48.5134 32.226 45.5649 32.226 45.5649L30.7011 46.4142C29.4494 50.7841 26.6016 60.6063 26.1654 61.0558C25.6039 61.6349 24.5684 62.0211 25.6039 62.337C30.785 63.9175 36.0267 63.5016 37.9374 63.2686Z" fill="url(#paint14_linear_126_40766)"/>
<path id="Vector_55" d="M33.3366 41.1624C33.3366 41.1624 34.7999 42.7335 33.8873 46.1733C32.9747 49.6131 31.325 56.4434 31.325 56.4434L42.0773 59.4409C42.0773 59.4409 44.5577 58.6686 46.3829 61.0556C46.3829 61.0556 30.1197 61.0556 27.8968 61.0556C25.6738 61.0556 24.8783 59.7919 25.9079 55.3693C26.9374 50.9467 28.5108 45.6817 29.1982 43.9501C29.8857 42.2187 31.128 41.3986 33.3366 41.1624Z" fill="#FF8282"/>
<path id="Vector_56" d="M31.3249 56.4435L28.8677 55.8345" stroke="#D94D4D" stroke-width="0.5676" stroke-miterlimit="10" stroke-linecap="round" stroke-linejoin="round"/>
<path id="Vector_57" d="M41.4458 35.725C41.4458 35.725 40.5737 36.3071 39.1689 35.9195C38.7394 35.801 38.2954 36.0105 38.1118 36.4162C37.857 36.9795 37.4283 37.4616 37.0879 37.7857C36.7799 38.0788 36.6164 38.4875 36.6234 38.9125C36.637 39.7553 36.49 41.1248 35.4555 41.575C33.9227 42.242 33.6595 41.0662 31.7641 41.7504C29.8687 42.4349 29.3247 43.4529 29.3247 43.4529C29.3247 43.4529 28.728 41.4872 30.1319 40.0306C31.536 38.5741 32.5537 38.416 33.3436 36.2925C34.1335 34.169 34.6248 32.0628 36.7483 32.2209C38.8718 32.3787 40.2759 33.0808 41.6798 33.0984C43.0839 33.1159 43.7585 33.6013 43.7157 34.5549C43.6571 35.8539 41.4458 35.725 41.4458 35.725Z" fill="#222F73"/>
<path id="Vector_58" d="M38.5441 39.9957C37.9358 39.7617 36.8359 38.9545 36.707 38.3459C36.7538 39.4925 37.4284 40.7935 38.2202 41.0966L38.5441 39.9957Z" fill="#D94D4D"/>
</g>
<g id="Group_8">
<path id="Vector_59" d="M14.5906 100.784H7.1356C5.71119 100.784 4.51166 99.7195 4.3422 98.3053L2.78174 85.2778H18.9442L17.3838 98.3053C17.2145 99.7195 16.015 100.784 14.5906 100.784Z" fill="#3A4C59"/>
<path id="Vector_60" d="M17.5448 96.964L18.9447 85.2778H7.95117C8.51049 86.6124 9.50669 88.4616 11.1891 90.144C13.962 92.9171 14.525 98.3535 17.5448 96.964Z" fill="url(#paint15_linear_126_40766)"/>
<path id="Vector_61" d="M3.47656 86.8855H18.249" stroke="#66869E" stroke-width="0.5676" stroke-miterlimit="10" stroke-linecap="round" stroke-linejoin="round"/>
<g id="Group_9">
<path id="Vector_62" d="M12.5468 79.8917C12.5468 79.8917 12.3293 79.3146 12.6878 77.881C13.0462 76.4472 13.7305 76.1214 14.1867 75.5022C14.6428 74.883 14.5125 73.8077 15.262 73.0584C16.0116 72.3088 16.8913 72.2002 17.2824 71.3747C17.6735 70.5492 18.4715 69.3057 19.3109 69.0828C19.8568 70.2751 19.8078 71.3312 19.3109 72.4716C18.8141 73.612 18.8465 75.0785 18.0646 76.1865C17.2826 77.2945 16.8564 76.967 16.092 78.2061C15.3271 79.4452 14.1582 80.1104 12.5468 79.8917Z" fill="url(#paint16_linear_126_40766)"/>
<path id="Vector_63" d="M13.0993 83.5769C13.0993 83.5769 13.0461 82.4429 13.8934 81.9214C14.7407 81.3999 14.6429 80.618 15.5879 80.1292C16.5329 79.6403 16.5656 78.9887 17.6733 78.565C18.7813 78.1415 19.4982 77.2942 20.2802 77.3268C20.7364 78.6303 19.8891 78.891 19.4656 79.7056C19.0421 80.5203 18.9876 81.1394 18.249 81.4163C17.5103 81.6933 17.5311 82.3449 16.7548 82.8337C15.979 83.3228 15.1402 84.157 13.0993 83.5769Z" fill="url(#paint17_linear_126_40766)"/>
<path id="Vector_64" d="M8.74263 82.6141C8.74263 82.6141 9.01647 80.9332 8.32109 80.2598C7.62571 79.5864 6.99589 79.2821 6.71363 78.522C6.43137 77.7618 6.12709 76.8274 5.34513 76.5234C4.56317 76.2194 4.25889 75.4611 3.91132 74.504C3.56376 73.5472 1.63024 72.2653 1.00042 72.0698C0.674621 73.873 0.848282 75.2459 1.43482 75.9497C2.02135 76.6535 1.97781 76.4145 2.39069 77.6311C2.80356 78.8478 2.86862 79.4776 3.69412 79.9555C4.51963 80.4335 4.88896 80.9114 5.21476 81.6501C5.54056 82.3887 6.88308 83.1435 8.74263 82.6141Z" fill="url(#paint18_linear_126_40766)"/>
<path id="Vector_65" d="M7.79018 74.5078C7.79018 74.5078 8.53008 73.0581 7.79018 71.657C7.05027 70.2558 6.65941 69.93 6.36602 68.4636C6.07262 66.9971 5.29066 66.1174 4.60641 65.3352C3.92216 64.5533 4.28062 61.3272 1.7388 60.5776C-0.183826 63.6407 1.28263 64.5315 1.60843 65.5524C1.93423 66.5734 1.67349 68.0072 2.29268 69.5713C2.91187 71.1355 3.56347 70.614 3.85686 71.8848C4.15025 73.1561 5.8579 75.0124 7.79018 74.5078Z" fill="url(#paint19_linear_126_40766)"/>
<path id="Vector_66" d="M8.79577 54.6675C8.79577 54.6675 8.74234 55.8203 8.11894 57.2105C7.49555 58.6008 7.45225 59.5134 7.92994 60.8168C8.40788 62.1203 7.56902 63.0761 8.11894 64.9879C8.66862 66.8996 9.10326 67.1386 8.97289 69.0827C8.84252 71.0271 9.81992 72.7976 10.8953 74.1283C13.6216 71.4615 13.1439 69.3761 12.7093 67.0733C12.2749 64.7704 12.8397 63.2498 12.2314 61.6423C11.6231 60.0349 11.1451 60.0781 11.1451 58.7314C11.1451 57.3847 10.4 55.0789 8.79577 54.6675Z" fill="url(#paint20_linear_126_40766)"/>
<path id="Vector_67" d="M9.14648 56.9065C9.14648 56.9065 11.3623 66.8125 10.8628 85.8429" stroke="#1D262D" stroke-width="0.8513" stroke-miterlimit="10"/>
<path id="Vector_68" d="M2.29248 62.5981C2.29248 62.5981 4.16638 72.3956 10.9359 77.6311" stroke="#1D262D" stroke-width="0.8513" stroke-miterlimit="10"/>
<path id="Vector_69" d="M18.6508 71.0703C18.6508 71.0703 15.6855 77.631 10.936 81.3024" stroke="#1D262D" stroke-width="0.8513" stroke-miterlimit="10"/>
<path id="Vector_70" d="M2.29248 74.1283C2.29248 74.1283 5.54032 82.1216 10.8627 83.5772" stroke="#1D262D" stroke-width="0.8513" stroke-miterlimit="10"/>
<path id="Vector_71" d="M19.3103 78.4023C19.3103 78.4023 16.3042 82.8339 10.895 84.4307" stroke="#1D262D" stroke-width="0.8513" stroke-miterlimit="10"/>
<path id="Vector_72" d="M13.6649 72.6781C13.6649 72.6781 12.8609 75.5457 10.895 76.697" stroke="#1D262D" stroke-width="0.8513" stroke-miterlimit="10"/>
<path id="Vector_73" d="M7.40869 76.697C7.40869 76.697 8.07661 78.826 10.9361 80.1294" stroke="#1D262D" stroke-width="0.8513" stroke-miterlimit="10"/>
<path id="Vector_74" d="M7.99431 76.816C7.99431 77.0978 7.76598 77.3261 7.48422 77.3261C7.20245 77.3261 6.97412 77.0978 6.97412 76.816C6.97412 76.5342 7.20245 76.3059 7.48422 76.3059C7.76574 76.3059 7.99431 76.5342 7.99431 76.816Z" fill="#163173"/>
<path id="Vector_75" d="M14.1755 72.6782C14.1755 72.96 13.9471 73.1883 13.6654 73.1883C13.3836 73.1883 13.1553 72.96 13.1553 72.6782C13.1553 72.3964 13.3836 72.1681 13.6654 72.1681C13.9471 72.1681 14.1755 72.3964 14.1755 72.6782Z" fill="#163173"/>
</g>
</g>
<g id="Group_10">
<path id="Vector_76" d="M57.9041 31.7736H48.7348C48.413 31.7736 48.1522 32.0345 48.1522 32.3561V34.4007L45.9224 35.3296L48.1522 36.2585V38.3031C48.1522 38.625 48.4132 38.8857 48.7348 38.8857H57.9041C58.226 38.8857 58.4867 38.6247 58.4867 38.3031V32.3561C58.4867 32.0345 58.2257 31.7736 57.9041 31.7736Z" fill="white"/>
<path id="Vector_77" opacity="0.5" d="M58.3121 32.3385H49.1428C48.8209 32.3385 48.5602 32.5995 48.5602 32.9211V34.9657L46.3301 35.8946L48.5602 36.8235V38.8681C48.5602 39.1899 48.8212 39.4506 49.1428 39.4506H58.3121C58.634 39.4506 58.8947 39.1899 58.8947 38.8681V32.9211C58.8947 32.5995 58.6337 32.3385 58.3121 32.3385Z" fill="url(#paint21_linear_126_40766)"/>
<g id="Group_11">
<path id="Vector_78" d="M50.6882 35.2955C50.6882 35.537 50.4925 35.7326 50.2511 35.7326C50.0096 35.7326 49.814 35.537 49.814 35.2955C49.814 35.0541 50.0096 34.8584 50.2511 34.8584C50.4925 34.8584 50.6882 35.0541 50.6882 35.2955Z" fill="#285EE0"/>
<path id="Vector_79" d="M52.612 35.2955C52.612 35.537 52.4164 35.7326 52.1749 35.7326C51.9335 35.7326 51.7378 35.537 51.7378 35.2955C51.7378 35.0541 51.9335 34.8584 52.1749 34.8584C52.4161 34.8584 52.612 35.0541 52.612 35.2955Z" fill="#285EE0"/>
<path id="Vector_80" d="M54.5363 35.2955C54.5363 35.537 54.3407 35.7326 54.0992 35.7326C53.8578 35.7326 53.6621 35.537 53.6621 35.2955C53.6621 35.0541 53.8578 34.8584 54.0992 34.8584C54.3407 34.8584 54.5363 35.0541 54.5363 35.2955Z" fill="#285EE0"/>
<path id="Vector_81" d="M56.4607 35.2955C56.4607 35.537 56.265 35.7326 56.0235 35.7326C55.7821 35.7326 55.5864 35.537 55.5864 35.2955C55.5864 35.0541 55.7821 34.8584 56.0235 34.8584C56.265 34.8584 56.4607 35.0541 56.4607 35.2955Z" fill="#285EE0"/>
</g>
</g>
<g id="Group_12">
<path id="Vector_82" opacity="0.5" d="M86.7037 20.9509L82.9336 20.7688C81.3568 17.7585 77.8102 16.2082 74.4503 17.2548C70.6678 18.4331 68.557 22.4545 69.7352 26.2369C70.9135 30.0193 74.9349 32.1302 78.7173 30.9519C82.0772 29.9053 84.1161 26.6149 83.704 23.2416L86.7037 20.9509Z" fill="url(#paint22_linear_126_40766)"/>
<path id="Vector_83" d="M86.5235 20.3724L82.7534 20.1903C81.1767 17.18 77.63 15.6297 74.2701 16.6763C70.4877 17.8546 68.3768 21.876 69.5551 25.6584C70.7333 29.4408 74.7547 31.5517 78.5371 30.3734C81.897 29.3268 83.9359 26.0364 83.5238 22.6631L86.5235 20.3724Z" fill="#DF9D2F"/>
<g id="Group_13">
<path id="Vector_84" d="M75.6601 20.8553L75.603 20.6515C75.5376 20.419 75.3256 20.2584 75.0842 20.2584H72.4932V26.2697H80.6418V20.8553H75.6601Z" fill="url(#paint23_linear_126_40766)"/>
<path id="Vector_85" d="M80.2693 21.0532H72.8662V22.9259H80.2693V21.0532Z" fill="url(#paint24_linear_126_40766)"/>
<path id="Vector_86" d="M80.1672 21.1903H72.9688V22.9259H80.1672V21.1903Z" fill="white"/>
<path id="Vector_87" d="M80.1672 21.8636H72.9688V22.9259H80.1672V21.8636Z" fill="url(#paint25_linear_126_40766)"/>
<path id="Vector_88" d="M77.4749 22.0856L77.532 21.882C77.5973 21.6494 77.8093 21.4889 78.0508 21.4889H80.6418V26.27H72.4932V22.0856H77.4749Z" fill="#F9D384"/>
</g>
</g>
<path id="Vector_89" d="M114.17 18.9267C117.469 16.8908 117.609 11.7663 112.836 9.97605C108.062 8.18602 93.6324 9.98025 86.8265 10.2217C82.4667 10.3763 75.3623 9.97234 74.5543 5.69615C73.7461 1.41996 78.3929 0.0395913 81.2885 1.65572C84.184 3.27184 83.642 8.56945 79.403 10.6793C74.8925 12.9243 66.0969 18.049 51.1897 12.7138C36.2824 7.37857 24.5927 3.23869 15.5597 9.90579C7.57038 15.8026 7.90755 24.8245 11.642 29.1407C17.0475 35.3885 27.9987 33.9846 31.0174 27.2453" stroke="#285EE0" stroke-width="0.75" stroke-miterlimit="10" stroke-linecap="round" stroke-linejoin="round"/>
<g id="Group_14">
<path id="Vector_90" d="M109.654 98.0281C109.654 98.0281 110.224 99.0577 110.197 100.743H107.923C107.923 100.743 105.349 100.836 102.962 100.743C102.962 100.743 103.336 99.947 104.717 99.7597C106.097 99.5725 107.127 98.2621 107.127 98.2621L109.654 98.0281Z" fill="#59301E"/>
<path id="Vector_91" d="M92.9113 98.0281C92.9113 98.0281 93.4808 99.0577 93.4533 100.743H91.1797C91.1797 100.743 88.6057 100.836 86.2188 100.743C86.2188 100.743 86.5933 99.947 87.9737 99.7597C89.3543 99.5725 90.3839 98.2621 90.3839 98.2621L92.9113 98.0281Z" fill="#59301E"/>
<path id="Vector_92" d="M96.4567 62.1789L94.6036 79.0971C94.6036 79.0971 94.9578 86.5382 93.4594 94.4709C93.4594 94.4709 93.8669 95.2081 93.4594 96.1558C93.5082 97.1387 93.4594 98.5425 93.4594 98.5425H88.9453L89.6825 96.6822C89.6825 96.6822 88.2432 80.2202 88.0327 75.7975C87.8422 71.7972 87.4793 60.6179 87.5936 54.3112C87.6146 53.1498 88.0547 52.0371 88.8317 51.1737L89.4123 50.5283L95.7197 50.7708L96.4567 62.1789Z" fill="#1C3170"/>
<path id="Vector_93" opacity="0.5" d="M96.188 58.0138C96.188 58.0138 93.1153 64.2185 87.7915 69.27C87.8744 71.9988 87.9649 74.3618 88.0332 75.7978C88.1222 77.6658 88.4302 81.6817 88.7565 85.6977C89.9862 85.0587 91.1868 84.3153 91.6484 83.6603C92.8717 83.2969 93.8644 82.3734 94.6402 81.3198C94.6431 79.9258 94.6041 79.0971 94.6041 79.0971L96.4572 62.1789L96.188 58.0138Z" fill="url(#paint26_linear_126_40766)"/>
<path id="Vector_94" d="M92.853 51.2042L93.0692 55.1865C93.1103 55.9415 93.4779 56.6414 94.0766 57.1035L94.3744 57.3335" stroke="#285EE0" stroke-width="0.5676" stroke-miterlimit="10" stroke-linecap="round" stroke-linejoin="round"/>
<path id="Vector_95" d="M88.8755 53.0364C88.8755 53.0364 89.1645 55.3694 87.7915 57.0543" stroke="#285EE0" stroke-width="0.5676" stroke-miterlimit="10" stroke-linecap="round" stroke-linejoin="round"/>
<path id="Vector_96" d="M104.732 49.8535C104.732 49.8535 106.347 72.8496 106.351 76.6404C106.351 76.6404 108.999 84.2688 109.467 93.4416C109.467 93.4416 109.935 93.9097 109.467 95.3135C109.467 95.3135 110.321 96.0859 110.181 98.5428H105.969C105.969 98.5428 106.495 97.4197 106.179 96.1561C105.863 94.8925 99.3698 78.5358 99.3698 78.5358L94.6035 60.541L93.8394 49.8535H104.732Z" fill="#1E3980"/>
<path id="Vector_97" d="M93.8872 51.0662L94.6484 60.7097" stroke="#285EE0" stroke-width="0.5676" stroke-miterlimit="10" stroke-linecap="round" stroke-linejoin="round"/>
<path id="Vector_98" opacity="0.5" d="M104.732 49.8535H93.8396L93.9002 50.7015L89.4123 50.5289L88.8317 51.1743C88.0549 52.0376 87.6148 53.1506 87.5938 54.3118C87.5928 54.362 87.5923 54.4149 87.5913 54.4659L95.1463 55.8144C95.1463 55.8144 101.311 58.4089 105.374 59.2913C105.032 54.126 104.732 49.8535 104.732 49.8535Z" fill="url(#paint27_linear_126_40766)"/>
<path id="Vector_99" d="M104.732 49.8535H88.875V51.2045H104.732V49.8535Z" fill="#613B0C" stroke="#1D262D" stroke-width="0.2838" stroke-miterlimit="10"/>
<path id="Vector_100" d="M94.9475 49.8535H91.6479V51.2045H94.9475V49.8535Z" fill="#1D262D"/>
<path id="Vector_101" d="M65.8958 35.5635C65.8958 35.5635 64.1057 34.7539 63.9652 34.9409C63.8247 35.1281 65.4393 36.0991 65.4393 36.0991L65.3458 36.3096C65.3458 36.3096 63.3079 35.8134 63.2399 36.0289C63.0994 36.4734 65.2874 36.766 65.2874 36.766L65.2407 37.4214C65.2407 37.4214 63.6144 38.919 63.8952 39.036C64.176 39.153 65.1472 38.1118 65.1472 38.1118C65.1472 38.1118 64.1411 39.4457 64.2814 39.5859C64.4219 39.7264 65.6736 38.3691 65.6736 38.3691L65.8958 35.5635Z" fill="#FF8282"/>
<g id="Group_15">
<path id="Vector_102" d="M69.7005 33.6417L65.6406 33.1049L64.5884 41.062L68.6483 41.5989L69.7005 33.6417Z" fill="#1C3170"/>
<path id="Vector_103" d="M68.6452 41.5962L69.0303 41.6471L70.0817 33.6899L69.6967 33.639L68.6452 41.5962Z" fill="#0D1A42"/>
<path id="Vector_104" d="M69.3072 33.9775L65.938 33.5323L64.9897 40.7091L68.3589 41.1543L69.3072 33.9775Z" fill="#78BBFF"/>
<path id="Vector_105" d="M68.3546 41.1573L64.9854 40.712L65.934 33.5353L69.3033 33.9806L68.3546 41.1573Z" fill="url(#paint28_linear_126_40766)"/>
<path id="Vector_106" d="M68.043 37.1002L67.3929 35.4635L66.3398 36.875L66.8104 36.9371L66.6031 38.506L67.365 38.6069L67.5725 37.0381L68.043 37.1002Z" fill="url(#paint29_linear_126_40766)"/>
</g>
<path id="Vector_107" d="M72.6057 39.241L71.2191 38.5916L70.7605 37.1833C70.5791 36.6264 70.1611 36.1784 69.6178 35.9605C68.9976 35.7114 68.2659 35.4541 68.2357 35.6124C68.183 35.889 69.2888 36.5559 69.2888 36.5559L69.5315 37.8744L69.2371 40.1009H70.4198L72.4243 41.2766L72.6057 39.241Z" fill="#FF8282"/>
<path id="Vector_108" d="M89.1909 49.8535H104.732L101.23 23.8144L98.0713 22.9194L93.6136 23.7266L90.8056 25.2888L89.1909 49.8535Z" fill="#285EE0"/>
<path id="Vector_109" d="M96.1937 20.4273C96.1937 20.4273 96.3167 19.462 97.036 18.9005C97.7557 18.3389 97.931 16.2503 96.5272 15.6712C96.8255 14.0039 96.0883 13.6529 94.8863 13.688C93.6841 13.7231 92.8944 14.7059 91.7011 14.7059C90.5077 14.7059 89.911 14.6884 89.8583 15.5483C89.8113 16.3179 90.0689 17.7596 92.3856 17.5139C94.3159 18.8654 95.2109 20.7081 96.1937 20.4273Z" fill="#1D262D"/>
<path id="Vector_110" d="M92.5482 15.9745L94.0345 15.3553C94.0345 15.3553 94.2099 16.1977 95.0524 16.496C95.0524 17.6542 95.0524 18.7073 95.0524 18.7073C95.0524 18.7073 95.3508 18.286 95.4386 17.8999C95.8247 17.4262 96.1406 17.6367 96.0879 18.0928C96.0353 18.5493 95.7896 19.3389 95.2981 19.3564C95.6842 20.0234 96.1931 20.4271 96.1931 20.4271L96.7546 22.5506L98.0709 22.9192C98.0709 22.9192 97.2637 25.1656 95.5086 25.1656C93.7537 25.1656 93.6132 23.7266 93.6132 23.7266L93.8764 23.5512L93.4727 21.0767L92.9697 21.1161C92.6353 21.1423 92.3496 20.8778 92.3496 20.5424V19.0235L91.7002 18.9883L92.0013 16.6895C92.0433 16.3706 92.2516 16.0982 92.5482 15.9745Z" fill="#FF8282"/>
<path id="Vector_111" d="M93.4731 21.0767C94.1049 20.9832 95.1105 20.2477 95.3102 19.9652C95.2986 20.6673 94.2279 21.6471 93.5991 21.8475L93.4731 21.0767Z" fill="#D94D4D"/>
<path id="Vector_112" d="M98.8755 23.0802L105.57 24.4183C106.768 24.6577 107.62 25.7232 107.591 26.9443L106.94 53.7081L98.4773 54.216C97.9612 54.2469 97.4996 53.8969 97.3905 53.3913L94.659 40.742C94.5796 40.3744 94.5862 39.9932 94.6788 39.6286L98.8755 23.0802Z" fill="#1C3170"/>
<path id="Vector_113" opacity="0.36" d="M106.94 53.708L107.323 37.9354L103.336 32.2734L102.406 44.2782C102.34 45.1329 102.176 45.9775 101.918 46.7948L99.5918 54.1486L106.94 53.708Z" fill="url(#paint30_linear_126_40766)"/>
<path id="Vector_114" d="M98.0713 38.1235L97.3928 34.1922L101.065 27.7806L100.364 23.3776L98.8755 23.0802L94.6783 39.6286C94.5857 39.9932 94.5791 40.3744 94.6585 40.742L95.5409 44.8287L98.0713 38.1235Z" fill="#263D82"/>
<path id="Vector_115" d="M100.762 32.4141C100.762 32.4141 101.035 34.6335 103.496 35.5127" stroke="#285EE0" stroke-width="0.5676" stroke-miterlimit="10" stroke-linecap="round" stroke-linejoin="round"/>
<path id="Vector_116" d="M105.279 51.2042L102.95 56.364C102.95 56.364 103.458 57.2182 104.681 58.0138C105.068 57.6277 105.115 56.4227 105.115 56.4227L107.97 52.7724L105.279 51.2042Z" fill="#FF8282"/>
<path id="Vector_117" d="M104.733 52.4879L106.33 54.8686L107.97 52.7721L105.279 51.2042L104.733 52.4879Z" fill="#D94D4D"/>
<path id="Vector_118" d="M100.246 45.6675L99.9395 45.9419L103.034 49.3984L103.341 49.124L100.246 45.6675Z" fill="#285EE0"/>
<path id="Vector_119" d="M87.9978 26.5521C85.9619 27.6401 84.558 30.6336 82.9785 33.9631C81.399 37.2926 79.7843 40.1708 79.7843 40.1708C79.7843 40.1708 79.3279 39.5741 79.1876 40.1708C79.0471 40.7675 78.9771 41.0131 78.9771 41.0131L72.3432 38.9812C72.3432 38.9812 71.3252 40.6621 71.0444 42.6275C71.0444 42.6275 77.3157 48.925 81.5395 49.0861C85.2249 49.2264 88.2256 39.3735 88.2256 39.3735L87.9978 26.5521Z" fill="#1C3170"/>
<path id="Vector_120" opacity="0.36" d="M87.9975 26.5521C85.9616 27.6401 84.5577 30.6336 82.9782 33.9631C82.5619 34.8408 82.1433 35.6861 81.7524 36.4567C82.974 37.1659 84.5619 38.6254 85.0844 41.5398C85.332 42.9217 85.6855 43.9322 86.0665 44.6724C87.3924 42.1058 88.2253 39.3735 88.2253 39.3735L87.9975 26.5521Z" fill="url(#paint31_linear_126_40766)"/>
<path id="Vector_121" d="M86.1372 32.6246C86.1372 32.6246 86.9446 35.5044 88.4539 37.8203" stroke="#285EE0" stroke-width="0.5676" stroke-miterlimit="10" stroke-linecap="round" stroke-linejoin="round"/>
<path id="Vector_122" d="M80.104 40.8234L81.5217 42.4647" stroke="#285EE0" stroke-width="0.5676" stroke-miterlimit="10" stroke-linecap="round" stroke-linejoin="round"/>
<path id="Vector_123" d="M79.6348 41.6442L79.8059 42.9869" stroke="#285EE0" stroke-width="0.5676" stroke-miterlimit="10" stroke-linecap="round" stroke-linejoin="round"/>
<path id="Vector_124" d="M73.8049 39.4294L72.3427 38.9817C72.3427 38.9817 71.3247 40.6626 71.0439 42.6281C71.0439 42.6281 71.5172 43.1028 72.288 43.7927C72.7499 42.2426 73.4232 40.4279 73.8049 39.4294Z" fill="#285EE0"/>
<path id="Vector_125" d="M104.699 24.2441C104.699 24.2441 108.344 24.4111 110.403 28.3425C111.885 31.1717 113.44 38.3643 114.195 42.1741C114.506 43.7455 114.263 45.374 113.507 46.786L109.373 54.504L104.927 51.696L106.94 44.829C106.94 44.829 103.196 34.848 102.119 31.6187C101.043 28.3892 103.487 24.545 104.699 24.2441Z" fill="url(#paint32_linear_126_40766)"/>
<path id="Vector_126" d="M105.467 49.8535L104.927 51.6957L109.373 54.5037L110.244 52.8772L105.467 49.8535Z" fill="#285EE0"/>
<path id="Vector_127" d="M107.158 44.7205C107.158 44.7205 108.858 44.3014 109.631 43.7399" stroke="#285EE0" stroke-width="0.5676" stroke-miterlimit="10" stroke-linecap="round" stroke-linejoin="round"/>
<path id="Vector_128" d="M107.592 45.0266H109.35" stroke="#285EE0" stroke-width="0.5676" stroke-miterlimit="10" stroke-linecap="round" stroke-linejoin="round"/>
<path id="Vector_129" d="M108.395 31.6067L110.286 32.2736" stroke="#285EE0" stroke-width="0.5676" stroke-miterlimit="10" stroke-linecap="round" stroke-linejoin="round"/>
<path id="Vector_130" d="M107.899 34.5771C107.899 34.5771 109.268 33.9584 110.462 33.7128" stroke="#285EE0" stroke-width="0.5676" stroke-miterlimit="10" stroke-linecap="round" stroke-linejoin="round"/>
<path id="Vector_131" d="M103.158 34.5771C102.727 33.3808 102.358 32.3339 102.119 31.6185C101.353 29.3206 102.37 26.7115 103.457 25.2891" stroke="#285EE0" stroke-width="0.5676" stroke-miterlimit="10" stroke-linecap="round" stroke-linejoin="round"/>
<path id="Vector_132" d="M101.606 54.2178C101.606 54.2178 102.379 56.8484 105.314 58.3903" stroke="#285EE0" stroke-width="0.5676" stroke-miterlimit="10" stroke-linecap="round" stroke-linejoin="round"/>
<path id="Vector_133" d="M93.0523 23.8145L93.4582 39.6462C93.4684 40.0415 93.4288 40.4363 93.3402 40.8217L90.6077 52.7194C90.4261 53.5098 89.6394 54.0043 88.8486 53.8252L85.3652 53.0365L87.436 44.2301L87.9976 26.5524L93.0523 23.8145Z" fill="#1C3170"/>
<path id="Vector_134" d="M89.4136 45.9806L89.0425 45.803L87.0396 49.9879L87.4106 50.1655L89.4136 45.9806Z" fill="#285EE0"/>
<path id="Vector_135" d="M93.458 39.6462L93.0521 23.8145L91.5639 24.6204L90.1738 28.7635L92.4554 34.1447L91.0513 38.2755L92.5269 44.362L93.34 40.8215C93.4283 40.4363 93.4679 40.0413 93.458 39.6462Z" fill="#263D82"/>
<path id="Vector_136" d="M104.225 77.2019C104.225 77.2019 103.57 78.6995 103.477 79.4484" stroke="#285EE0" stroke-width="0.5676" stroke-miterlimit="10" stroke-linecap="round" stroke-linejoin="round"/>
<path id="Vector_137" d="M105.208 78.3251L104.225 79.6822" stroke="#285EE0" stroke-width="0.5676" stroke-miterlimit="10" stroke-linecap="round" stroke-linejoin="round"/>
<path id="Vector_138" d="M92.1239 77.623C92.1239 77.623 91.4958 79.2612 90.7002 80.5248" stroke="#285EE0" stroke-width="0.5676" stroke-miterlimit="10" stroke-linecap="round" stroke-linejoin="round"/>
<path id="Vector_139" d="M92.7123 79.4481L91.4116 80.899" stroke="#285EE0" stroke-width="0.5676" stroke-miterlimit="10" stroke-linecap="round" stroke-linejoin="round"/>
</g>
<path id="Vector_140" d="M2.01807 100.784H133.3" stroke="#3D5413" stroke-width="1.1789" stroke-miterlimit="10"/>
<g id="Group_16">
<path id="Vector_141" d="M125.639 42.1034V36.7528H122.839V42.1034C122.839 42.2505 122.719 42.3698 122.572 42.3698H121.733C121.646 42.3698 121.595 42.467 121.644 42.538L124.084 46.0735C124.159 46.1821 124.319 46.1821 124.394 46.0735L126.833 42.538C126.882 42.4668 126.831 42.3698 126.745 42.3698H125.905C125.758 42.3698 125.639 42.2505 125.639 42.1034Z" fill="#285EE0"/>
<g id="Group_17">
<g id="Group_18">
<path id="Vector_142" d="M122.341 46.5505L122.221 46.1245C122.085 45.6384 121.642 45.3022 121.137 45.3022H115.717V57.8753H132.76V46.5505H122.341Z" fill="url(#paint33_linear_126_40766)"/>
<path id="Vector_143" d="M131.981 46.9645H116.497V50.8815H131.981V46.9645Z" fill="url(#paint34_linear_126_40766)"/>
<path id="Vector_144" d="M131.766 47.2511H116.71V50.8814H131.766V47.2511Z" fill="white"/>
<path id="Vector_145" d="M131.766 48.6594H116.71V50.8811H131.766V48.6594Z" fill="url(#paint35_linear_126_40766)"/>
<path id="Vector_146" d="M126.137 49.1235L126.256 48.6975C126.393 48.2114 126.836 47.8752 127.341 47.8752H132.76V57.875H115.717V49.1235H126.137Z" fill="#DF9D2F"/>
</g>
<path id="Vector_147" d="M132.76 58.731H115.717V63.5635H132.76V58.731Z" fill="url(#paint36_linear_126_40766)"/>
</g>
</g>
<g id="Group_19">
<path id="Vector_148" opacity="0.5" d="M51.2314 21.2214H49.7083C49.7085 21.1997 49.71 21.1784 49.71 21.1566C49.71 16.1551 45.6555 12.1003 40.6537 12.1003C37.6315 12.1003 34.9566 13.5824 33.3115 15.8575C32.7712 15.6829 32.1958 15.5859 31.5974 15.5859C28.521 15.5859 26.027 18.08 26.027 21.1564C26.027 21.1781 26.0299 21.1994 26.0302 21.2212H24.6493C22.5834 21.2212 20.9087 22.8959 20.9087 24.9618C20.9087 27.0277 22.5834 28.7024 24.6493 28.7024H51.2316C53.2975 28.7024 54.9722 27.0277 54.9722 24.9618C54.972 22.8962 53.2972 21.2214 51.2314 21.2214Z" fill="url(#paint37_linear_126_40766)"/>
<path id="Vector_149" d="M51.2314 20.4133H49.7083C49.7085 20.3916 49.71 20.3703 49.71 20.3485C49.71 15.347 45.6555 11.2922 40.6537 11.2922C37.6315 11.2922 34.9566 12.774 33.3115 15.0494C32.7712 14.8748 32.1958 14.7778 31.5974 14.7778C28.521 14.7778 26.027 17.2719 26.027 20.3483C26.027 20.37 26.0299 20.3913 26.0302 20.4131H24.6493C22.5834 20.4131 20.9087 22.0878 20.9087 24.1537C20.9087 26.2196 22.5834 27.8943 24.6493 27.8943H51.2316C53.2975 27.8943 54.9722 26.2196 54.9722 24.1537C54.972 22.0881 53.2972 20.4133 51.2314 20.4133Z" fill="url(#paint38_linear_126_40766)"/>
<path id="Vector_150" opacity="0.5" d="M35.8913 20.8846V27.8945H39.9884V20.8846H41.9061L37.9399 15.7517L33.9736 20.8846H35.8913Z" fill="url(#paint39_linear_126_40766)"/>
<path id="Vector_151" d="M35.8913 20.4634V26.2452H39.9884V20.4634H41.9061L37.9399 15.3306L33.9736 20.4634H35.8913Z" fill="white"/>
</g>
<g id="Group_20">
<g id="Group_21">
<path id="Vector_152" d="M60.929 62.8342L55.0322 100.784H56.6234L63.55 62.8342H60.929Z" fill="#3A4C59"/>
<path id="Vector_153" d="M78.6661 62.8342L84.5632 100.784H82.9718L76.0454 62.8342H78.6661Z" fill="#3A4C59"/>
</g>
<g id="Group_22" opacity="0.5">
<path id="Vector_154" d="M78.6666 62.8342H76.0459L77.6462 71.6023C78.4272 71.6337 79.2235 71.6419 80.0327 71.6256L78.6666 62.8342Z" fill="url(#paint40_linear_126_40766)"/>
<path id="Vector_155" d="M63.5508 62.8342H60.9301L60.2646 67.1164C60.9365 67.4486 61.7106 67.8075 62.5764 68.1734L63.5508 62.8342Z" fill="url(#paint41_linear_126_40766)"/>
</g>
<path id="Vector_156" d="M55.8062 62.8341H80.291V61.0557H55.8062V62.8341Z" fill="#3A4C59"/>
<path id="Vector_157" d="M55.8067 61.0558H34.4658V62.8342H55.8067V61.0558Z" fill="#66869E"/>
<g id="Group_23">
<path id="Vector_158" d="M36.2669 62.8342L30.3701 100.784H31.9613L38.8879 62.8342H36.2669Z" fill="#66869E"/>
<path id="Vector_159" d="M54.0045 62.8342L59.9015 100.784H58.3101L51.3838 62.8342H54.0045Z" fill="#66869E"/>
</g>
<g id="Group_24">
<path id="Vector_160" d="M54.0045 62.8342H51.3838L52.9841 71.6023C53.7648 71.6337 54.5614 71.6419 55.3705 71.6256L54.0045 62.8342Z" fill="url(#paint42_linear_126_40766)"/>
<path id="Vector_161" d="M38.8877 62.8342H36.267L35.6016 67.1164C36.2734 67.4486 37.0475 67.8075 37.9133 68.1734L38.8877 62.8342Z" fill="url(#paint43_linear_126_40766)"/>
</g>
</g>
<path id="Vector_162" d="M131.719 92.3652C130.558 93.1306 130.095 93.751 129.526 95.3102C128.955 93.7513 128.493 93.1306 127.332 92.3652C128.493 91.5998 128.956 90.9794 129.526 89.4202C130.096 90.9791 130.558 91.5996 131.719 92.3652Z" fill="#FCB707"/>
<path id="Vector_163" d="M7.01006 53.2726C5.84886 54.0379 5.38651 54.6584 4.81655 56.2174C4.24634 54.6584 3.78424 54.0377 2.62305 53.2726C3.78424 52.5072 4.24659 51.8867 4.81655 50.3275C5.38676 51.8865 5.84886 52.5072 7.01006 53.2726Z" fill="#FCB707"/>
<path id="Vector_164" d="M9.0585 36.7528C8.29014 37.2592 7.98414 37.6698 7.60713 38.7014C7.22988 37.6698 6.92412 37.2592 6.15576 36.7528C6.92412 36.2464 7.22988 35.8358 7.60713 34.8042C7.98414 35.8358 8.29014 36.2464 9.0585 36.7528Z" fill="#FCB707"/>
<path id="Vector_165" d="M128.951 29.933C128.182 30.4394 127.876 30.85 127.499 31.8816C127.122 30.85 126.816 30.4394 126.048 29.933C126.816 29.4266 127.122 29.0159 127.499 27.9841C127.876 29.0159 128.182 29.4263 128.951 29.933Z" fill="#FCB707"/>
<path id="Vector_166" opacity="0.5" d="M114.949 18.9616L113.96 14.9821L108.037 22.9353L117.89 21.8194L114.949 18.9616Z" fill="url(#paint44_linear_126_40766)"/>
<g id="Group_25">
<path id="Vector_167" d="M114.505 18.6107L113.516 14.6311L107.592 22.5843L114.505 18.6107Z" fill="#F9A963"/>
<path id="Vector_168" d="M114.505 18.6107L117.446 21.4684L107.592 22.5844L114.505 18.6107Z" fill="#FFB87D"/>
</g>
</g>
</g>
<defs>
<linearGradient id="paint0_linear_126_40766" x1="67.2825" y1="106.265" x2="67.2825" y2="12.852" gradientUnits="userSpaceOnUse">
<stop stop-color="white" stop-opacity="0"/>
<stop offset="0.1473" stop-color="#F6F9FF" stop-opacity="0.1473"/>
<stop offset="0.3893" stop-color="#DDE8FF" stop-opacity="0.3893"/>
<stop offset="0.6947" stop-color="#B5CCFF" stop-opacity="0.6947"/>
<stop offset="1" stop-color="#86ACFF"/>
</linearGradient>
<linearGradient id="paint1_linear_126_40766" x1="73.749" y1="92.7313" x2="73.749" y2="58.8738" gradientUnits="userSpaceOnUse">
<stop stop-color="white" stop-opacity="0"/>
<stop offset="0.1473" stop-color="#F6F9FF" stop-opacity="0.1473"/>
<stop offset="0.3893" stop-color="#DDE8FF" stop-opacity="0.3893"/>
<stop offset="0.6947" stop-color="#B5CCFF" stop-opacity="0.6947"/>
<stop offset="1" stop-color="#86ACFF"/>
</linearGradient>
<linearGradient id="paint2_linear_126_40766" x1="90.5207" y1="93.7871" x2="90.5207" y2="67.3199" gradientUnits="userSpaceOnUse">
<stop stop-color="white" stop-opacity="0"/>
<stop offset="0.1473" stop-color="#F6F9FF" stop-opacity="0.1473"/>
<stop offset="0.3893" stop-color="#DDE8FF" stop-opacity="0.3893"/>
<stop offset="0.6947" stop-color="#B5CCFF" stop-opacity="0.6947"/>
<stop offset="1" stop-color="#86ACFF"/>
</linearGradient>
<linearGradient id="paint3_linear_126_40766" x1="50.6885" y1="94.4711" x2="50.6885" y2="48.7734" gradientUnits="userSpaceOnUse">
<stop stop-color="white" stop-opacity="0"/>
<stop offset="0.1473" stop-color="#F6F9FF" stop-opacity="0.1473"/>
<stop offset="0.3893" stop-color="#DDE8FF" stop-opacity="0.3893"/>
<stop offset="0.6947" stop-color="#B5CCFF" stop-opacity="0.6947"/>
<stop offset="1" stop-color="#86ACFF"/>
</linearGradient>
<linearGradient id="paint4_linear_126_40766" x1="32.2312" y1="91.1951" x2="32.2312" y2="73.5655" gradientUnits="userSpaceOnUse">
<stop stop-opacity="0"/>
<stop offset="1"/>
</linearGradient>
<linearGradient id="paint5_linear_126_40766" x1="26.1519" y1="76.8931" x2="33.4527" y2="56.4882" gradientUnits="userSpaceOnUse">
<stop stop-opacity="0"/>
<stop offset="1"/>
</linearGradient>
<linearGradient id="paint6_linear_126_40766" x1="113.324" y1="61.1007" x2="113.324" y2="78.6788" gradientUnits="userSpaceOnUse">
<stop stop-color="#B3EBCD"/>
<stop offset="0.122" stop-color="#ADE7CC"/>
<stop offset="0.2891" stop-color="#9BDBCA"/>
<stop offset="0.4821" stop-color="#7EC7C6"/>
<stop offset="0.693" stop-color="#56ACC1"/>
<stop offset="0.8412" stop-color="#3696BD"/>
</linearGradient>
<linearGradient id="paint7_linear_126_40766" x1="122.735" y1="67.4154" x2="122.735" y2="84.9935" gradientUnits="userSpaceOnUse">
<stop stop-color="#B3EBCD"/>
<stop offset="0.122" stop-color="#ADE7CC"/>
<stop offset="0.2891" stop-color="#9BDBCA"/>
<stop offset="0.4821" stop-color="#7EC7C6"/>
<stop offset="0.693" stop-color="#56ACC1"/>
<stop offset="0.8412" stop-color="#3696BD"/>
</linearGradient>
<linearGradient id="paint8_linear_126_40766" x1="85.7267" y1="74.7214" x2="85.7267" y2="102.105" gradientUnits="userSpaceOnUse">
<stop stop-color="#B3EBCD"/>
<stop offset="0.122" stop-color="#ADE7CC"/>
<stop offset="0.2891" stop-color="#9BDBCA"/>
<stop offset="0.4821" stop-color="#7EC7C6"/>
<stop offset="0.693" stop-color="#56ACC1"/>
<stop offset="0.8412" stop-color="#3696BD"/>
</linearGradient>
<linearGradient id="paint9_linear_126_40766" x1="47.9393" y1="60.6005" x2="64.0152" y2="60.6005" gradientUnits="userSpaceOnUse">
<stop stop-opacity="0"/>
<stop offset="1"/>
</linearGradient>
<linearGradient id="paint10_linear_126_40766" x1="23.9786" y1="75.2072" x2="54.1754" y2="75.2072" gradientUnits="userSpaceOnUse">
<stop stop-color="#7D0E67"/>
<stop offset="1" stop-color="#ED8091"/>
</linearGradient>
<linearGradient id="paint11_linear_126_40766" x1="23.9795" y1="65.2934" x2="39.7468" y2="65.2934" gradientUnits="userSpaceOnUse">
<stop stop-opacity="0"/>
<stop offset="1"/>
</linearGradient>
<linearGradient id="paint12_linear_126_40766" x1="45.4053" y1="65.8964" x2="36.8876" y2="88.2669" gradientUnits="userSpaceOnUse">
<stop stop-color="#7D0E67"/>
<stop offset="1" stop-color="#ED8091"/>
</linearGradient>
<linearGradient id="paint13_linear_126_40766" x1="39.1613" y1="81.9205" x2="45.3858" y2="66.5232" gradientUnits="userSpaceOnUse">
<stop stop-opacity="0"/>
<stop offset="1"/>
</linearGradient>
<linearGradient id="paint14_linear_126_40766" x1="31.9029" y1="61.0928" x2="34.5705" y2="49.4395" gradientUnits="userSpaceOnUse">
<stop stop-opacity="0"/>
<stop offset="1"/>
</linearGradient>
<linearGradient id="paint15_linear_126_40766" x1="6.6581" y1="91.2327" x2="30.7887" y2="91.2327" gradientUnits="userSpaceOnUse">
<stop stop-opacity="0"/>
<stop offset="1"/>
</linearGradient>
<linearGradient id="paint16_linear_126_40766" x1="20.8664" y1="67.5866" x2="15.461" y2="76.5722" gradientUnits="userSpaceOnUse">
<stop stop-color="#B3EBCD"/>
<stop offset="0.122" stop-color="#ADE7CC"/>
<stop offset="0.2891" stop-color="#9BDBCA"/>
<stop offset="0.4821" stop-color="#7EC7C6"/>
<stop offset="0.693" stop-color="#56ACC1"/>
<stop offset="0.8412" stop-color="#3696BD"/>
</linearGradient>
<linearGradient id="paint17_linear_126_40766" x1="20.0738" y1="77.3615" x2="13.6153" y2="84.3815" gradientUnits="userSpaceOnUse">
<stop stop-color="#B3EBCD"/>
<stop offset="0.122" stop-color="#ADE7CC"/>
<stop offset="0.2891" stop-color="#9BDBCA"/>
<stop offset="0.4821" stop-color="#7EC7C6"/>
<stop offset="0.693" stop-color="#56ACC1"/>
<stop offset="0.8412" stop-color="#3696BD"/>
</linearGradient>
<linearGradient id="paint18_linear_126_40766" x1="2.33809" y1="74.0306" x2="6.1289" y2="80.5359" gradientUnits="userSpaceOnUse">
<stop stop-color="#B3EBCD"/>
<stop offset="0.122" stop-color="#ADE7CC"/>
<stop offset="0.2891" stop-color="#9BDBCA"/>
<stop offset="0.4821" stop-color="#7EC7C6"/>
<stop offset="0.693" stop-color="#56ACC1"/>
<stop offset="0.8412" stop-color="#3696BD"/>
</linearGradient>
<linearGradient id="paint19_linear_126_40766" x1="1.63755" y1="61.3219" x2="5.14758" y2="70.8692" gradientUnits="userSpaceOnUse">
<stop stop-color="#B3EBCD"/>
<stop offset="0.122" stop-color="#ADE7CC"/>
<stop offset="0.2891" stop-color="#9BDBCA"/>
<stop offset="0.4821" stop-color="#7EC7C6"/>
<stop offset="0.693" stop-color="#56ACC1"/>
<stop offset="0.8412" stop-color="#3696BD"/>
</linearGradient>
<linearGradient id="paint20_linear_126_40766" x1="10.4155" y1="57.8343" x2="10.2283" y2="71.6872" gradientUnits="userSpaceOnUse">
<stop stop-color="#B3EBCD"/>
<stop offset="0.122" stop-color="#ADE7CC"/>
<stop offset="0.2891" stop-color="#9BDBCA"/>
<stop offset="0.4821" stop-color="#7EC7C6"/>
<stop offset="0.693" stop-color="#56ACC1"/>
<stop offset="0.8412" stop-color="#3696BD"/>
</linearGradient>
<linearGradient id="paint21_linear_126_40766" x1="52.6124" y1="45.0553" x2="52.6124" y2="28.8788" gradientUnits="userSpaceOnUse">
<stop stop-opacity="0"/>
<stop offset="1"/>
</linearGradient>
<linearGradient id="paint22_linear_126_40766" x1="82.0303" y1="35.8271" x2="77.907" y2="22.5907" gradientUnits="userSpaceOnUse">
<stop stop-opacity="0"/>
<stop offset="1"/>
</linearGradient>
<linearGradient id="paint23_linear_126_40766" x1="76.5675" y1="22.5042" x2="76.5675" y2="18.9899" gradientUnits="userSpaceOnUse">
<stop stop-color="#FF3636"/>
<stop offset="0.1451" stop-color="#FF3C36"/>
<stop offset="0.3436" stop-color="#FF4E36"/>
<stop offset="0.5731" stop-color="#FF6B36"/>
<stop offset="0.8239" stop-color="#FF9336"/>
<stop offset="1" stop-color="#FFB336"/>
</linearGradient>
<linearGradient id="paint24_linear_126_40766" x1="76.5677" y1="19.5909" x2="76.5677" y2="22.1887" gradientUnits="userSpaceOnUse">
<stop stop-opacity="0"/>
<stop offset="1"/>
</linearGradient>
<linearGradient id="paint25_linear_126_40766" x1="76.5681" y1="22.3872" x2="76.5681" y2="19.3289" gradientUnits="userSpaceOnUse">
<stop stop-opacity="0"/>
<stop offset="1"/>
</linearGradient>
<linearGradient id="paint26_linear_126_40766" x1="88.0491" y1="76.4064" x2="101.879" y2="63.9809" gradientUnits="userSpaceOnUse">
<stop stop-opacity="0"/>
<stop offset="1"/>
</linearGradient>
<linearGradient id="paint27_linear_126_40766" x1="96.4825" y1="60.7516" x2="96.4825" y2="51.8628" gradientUnits="userSpaceOnUse">
<stop stop-opacity="0"/>
<stop offset="1"/>
</linearGradient>
<linearGradient id="paint28_linear_126_40766" x1="67.1809" y1="37.0425" x2="66.3151" y2="44.2497" gradientUnits="userSpaceOnUse">
<stop stop-color="white" stop-opacity="0"/>
<stop offset="1" stop-color="white"/>
</linearGradient>
<linearGradient id="paint29_linear_126_40766" x1="66.8669" y1="38.4183" x2="67.5301" y2="35.4944" gradientUnits="userSpaceOnUse">
<stop stop-color="white" stop-opacity="0"/>
<stop offset="1" stop-color="white"/>
</linearGradient>
<linearGradient id="paint30_linear_126_40766" x1="99.5918" y1="43.2112" x2="107.323" y2="43.2112" gradientUnits="userSpaceOnUse">
<stop stop-opacity="0"/>
<stop offset="1"/>
</linearGradient>
<linearGradient id="paint31_linear_126_40766" x1="82.1333" y1="41.9185" x2="88.1706" y2="33.5881" gradientUnits="userSpaceOnUse">
<stop stop-opacity="0"/>
<stop offset="1"/>
</linearGradient>
<linearGradient id="paint32_linear_126_40766" x1="103.84" y1="25.6174" x2="107.631" y2="39.2363" gradientUnits="userSpaceOnUse">
<stop offset="0.3002" stop-color="#263D82"/>
<stop offset="0.7224" stop-color="#213779"/>
<stop offset="1" stop-color="#1C3170"/>
</linearGradient>
<linearGradient id="paint33_linear_126_40766" x1="124.239" y1="49.9993" x2="124.239" y2="42.6488" gradientUnits="userSpaceOnUse">
<stop stop-color="#FF3636"/>
<stop offset="0.1451" stop-color="#FF3C36"/>
<stop offset="0.3436" stop-color="#FF4E36"/>
<stop offset="0.5731" stop-color="#FF6B36"/>
<stop offset="0.8239" stop-color="#FF9336"/>
<stop offset="1" stop-color="#FFB336"/>
</linearGradient>
<linearGradient id="paint34_linear_126_40766" x1="124.239" y1="43.9061" x2="124.239" y2="49.3396" gradientUnits="userSpaceOnUse">
<stop stop-opacity="0"/>
<stop offset="1"/>
</linearGradient>
<linearGradient id="paint35_linear_126_40766" x1="124.238" y1="49.7546" x2="124.238" y2="43.3579" gradientUnits="userSpaceOnUse">
<stop stop-opacity="0"/>
<stop offset="1"/>
</linearGradient>
<linearGradient id="paint36_linear_126_40766" x1="124.239" y1="62.8488" x2="124.239" y2="57.8779" gradientUnits="userSpaceOnUse">
<stop stop-color="white" stop-opacity="0"/>
<stop offset="0.1473" stop-color="#F6F9FF" stop-opacity="0.1473"/>
<stop offset="0.3893" stop-color="#DDE8FF" stop-opacity="0.3893"/>
<stop offset="0.6947" stop-color="#B5CCFF" stop-opacity="0.6947"/>
<stop offset="1" stop-color="#86ACFF"/>
</linearGradient>
<linearGradient id="paint37_linear_126_40766" x1="37.9402" y1="38.3457" x2="37.9402" y2="19.531" gradientUnits="userSpaceOnUse">
<stop stop-opacity="0"/>
<stop offset="1"/>
</linearGradient>
<linearGradient id="paint38_linear_126_40766" x1="37.9402" y1="31.1034" x2="37.9402" y2="10.9791" gradientUnits="userSpaceOnUse">
<stop stop-color="#285EE0"/>
<stop offset="0.1742" stop-color="#2E63E2"/>
<stop offset="0.4127" stop-color="#4072E8"/>
<stop offset="0.6883" stop-color="#5D8AF1"/>
<stop offset="0.9897" stop-color="#84ABFF"/>
<stop offset="1" stop-color="#86ACFF"/>
</linearGradient>
<linearGradient id="paint39_linear_126_40766" x1="37.9398" y1="16.8725" x2="37.9398" y2="26.9123" gradientUnits="userSpaceOnUse">
<stop stop-opacity="0"/>
<stop offset="1"/>
</linearGradient>
<linearGradient id="paint40_linear_126_40766" x1="78.0394" y1="74.1131" x2="78.0394" y2="57.9562" gradientUnits="userSpaceOnUse">
<stop stop-opacity="0"/>
<stop offset="1"/>
</linearGradient>
<linearGradient id="paint41_linear_126_40766" x1="61.9077" y1="74.1131" x2="61.9077" y2="57.9562" gradientUnits="userSpaceOnUse">
<stop stop-opacity="0"/>
<stop offset="1"/>
</linearGradient>
<linearGradient id="paint42_linear_126_40766" x1="53.3772" y1="76.3595" x2="53.3772" y2="54.7247" gradientUnits="userSpaceOnUse">
<stop stop-opacity="0"/>
<stop offset="1"/>
</linearGradient>
<linearGradient id="paint43_linear_126_40766" x1="37.2446" y1="76.3595" x2="37.2446" y2="54.7247" gradientUnits="userSpaceOnUse">
<stop stop-opacity="0"/>
<stop offset="1"/>
</linearGradient>
<linearGradient id="paint44_linear_126_40766" x1="108.037" y1="18.9586" x2="117.891" y2="18.9586" gradientUnits="userSpaceOnUse">
<stop stop-opacity="0"/>
<stop offset="1"/>
</linearGradient>
</defs>
</svg>
